{"glyphs":{"0":{"ha":778,"x_min":15,"x_max":786,"o":"m 15 306 q 46 556 15 433 q 136 775 76 679 q 285 930 196 871 q 492 989 374 989 q 633 961 576 989 q 724 888 690 933 q 772 783 758 842 q 786 664 786 725 q 754 409 786 532 q 662 192 722 286 q 513 40 601 97 q 310 -17 424 -17 q 167 11 224 -17 q 76 84 110 39 q 29 187 43 129 q 15 306 15 244 m 224 269 q 228 190 224 228 q 245 124 233 153 q 277 77 257 94 q 328 60 297 60 q 399 86 365 60 q 460 158 432 113 q 510 266 488 204 q 547 399 532 328 q 569 548 561 471 q 578 701 578 625 q 573 784 578 746 q 556 851 568 822 q 523 896 543 879 q 474 913 503 913 q 401 885 435 913 q 339 809 367 857 q 290 697 311 761 q 253 562 268 633 q 231 415 239 490 q 224 269 224 340 z "},"1":{"ha":778,"x_min":111,"x_max":663,"o":"m 592 0 l 111 0 l 124 60 q 275 107 196 90 l 411 744 l 438 826 q 352 810 397 815 q 263 807 307 806 l 267 858 q 439 911 346 878 q 615 989 532 944 l 663 989 l 475 107 q 540 88 507 100 q 604 60 572 76 l 592 0 z "},"2":{"ha":778,"x_min":-4,"x_max":776,"o":"m 271 664 l 224 664 q 214 713 219 685 q 204 771 208 740 q 197 831 200 801 q 194 886 194 861 q 253 923 221 904 q 323 956 285 942 q 408 980 361 971 q 508 989 454 989 q 636 971 585 989 q 719 924 688 953 q 763 856 750 894 q 776 776 776 818 q 727 608 776 689 q 603 454 678 526 q 442 320 529 382 q 282 210 356 258 l 200 161 l 200 156 l 285 164 l 524 164 l 625 319 l 672 319 q 667 241 671 286 q 657 151 663 196 q 644 65 651 106 q 632 0 638 25 l -4 0 l 15 89 q 125 172 64 125 q 250 274 186 219 q 375 390 314 329 q 483 515 436 451 q 560 644 531 579 q 589 772 589 710 q 558 858 589 824 q 460 892 526 892 q 368 879 414 892 l 271 664 z "},"3":{"ha":778,"x_min":17,"x_max":826,"o":"m 308 74 q 398 94 358 74 q 465 147 438 114 q 506 224 492 181 q 521 314 521 268 q 509 382 521 356 q 476 424 497 408 q 425 444 454 439 q 363 450 396 450 l 286 450 l 293 504 l 554 778 l 618 826 l 618 832 l 542 824 l 338 824 l 253 682 l 206 682 q 206 751 206 711 q 210 832 207 792 q 216 910 213 872 q 225 972 219 947 l 826 972 l 817 904 l 524 611 l 443 550 l 443 547 l 492 557 q 661 490 607 550 q 715 333 715 429 q 691 199 715 263 q 615 87 667 135 q 481 11 563 39 q 283 -17 399 -17 q 201 -10 242 -17 q 124 7 160 -4 q 61 33 89 18 q 17 67 33 49 l 99 211 l 139 211 q 157 185 146 201 q 180 151 168 169 q 203 115 192 133 q 224 85 215 97 q 308 74 254 74 z "},"4":{"ha":778,"x_min":-19,"x_max":778,"o":"m 640 0 l 211 0 l 224 60 q 358 93 294 83 l 392 250 l -19 250 l -7 313 l 669 989 l 744 989 l 607 340 l 778 340 l 758 250 l 588 250 l 554 93 q 653 60 606 82 l 640 0 m 474 636 l 513 733 l 508 733 l 433 636 l 179 376 l 114 331 l 215 340 l 411 340 l 474 636 z "},"5":{"ha":778,"x_min":10,"x_max":842,"o":"m 794 1049 l 842 1049 q 829 994 838 1028 q 809 926 821 961 q 785 860 797 892 q 763 813 772 829 l 383 813 l 315 614 l 407 614 q 536 596 481 614 q 628 545 592 578 q 684 468 665 513 q 703 371 703 424 q 676 219 703 289 q 594 96 649 149 q 455 13 539 43 q 257 -17 371 -17 q 106 9 171 -17 q 10 67 42 35 l 96 204 l 136 204 q 154 179 144 194 q 174 147 164 164 q 192 114 183 131 q 208 85 201 97 q 239 76 221 79 q 276 74 257 74 q 384 94 339 74 q 458 148 429 114 q 501 226 488 182 q 515 317 515 269 q 460 433 515 399 q 308 467 404 468 l 186 465 l 350 972 l 713 972 l 794 1049 z "},"6":{"ha":778,"x_min":47,"x_max":779,"o":"m 753 371 q 727 227 753 297 q 651 103 701 157 q 522 16 600 49 q 340 -17 444 -17 q 221 1 275 -17 q 128 53 167 18 q 69 143 90 89 q 47 269 47 197 q 97 505 47 389 q 240 719 146 621 q 467 890 333 817 q 771 997 601 963 l 779 938 q 486 773 606 885 q 308 485 367 661 q 399 556 340 528 q 532 585 458 585 q 700 526 647 585 q 753 371 753 467 m 544 360 q 520 457 544 426 q 435 488 496 488 q 351 463 392 488 q 288 407 311 439 q 278 378 283 397 q 267 334 272 358 q 259 285 263 310 q 256 240 256 261 q 260 173 256 204 q 277 118 265 142 q 310 81 289 94 q 363 67 331 67 q 443 96 408 67 q 500 169 478 125 q 533 264 522 213 q 544 360 544 315 z "},"7":{"ha":778,"x_min":90,"x_max":803,"o":"m 178 668 l 131 668 q 132 740 131 697 q 136 825 133 782 q 144 908 139 868 q 153 972 149 947 l 803 972 l 803 911 q 622 690 700 797 q 484 473 544 582 q 376 248 424 364 q 288 0 329 132 l 90 0 q 291 382 179 199 q 556 750 403 565 l 626 817 l 557 810 l 263 810 l 178 668 z "},"8":{"ha":778,"x_min":11,"x_max":781,"o":"m 11 190 q 31 285 11 240 q 88 367 51 331 q 177 433 125 404 q 294 479 229 461 q 196 578 229 528 q 163 703 163 629 q 185 813 163 761 q 253 904 208 865 q 363 966 297 943 q 513 989 428 989 q 713 937 646 989 q 781 793 781 885 q 763 710 781 750 q 713 636 744 671 q 634 575 681 601 q 532 532 588 549 q 615 470 582 500 q 667 410 647 440 q 695 345 688 379 q 703 272 703 311 q 676 162 703 214 q 600 70 650 110 q 477 7 550 31 q 313 -17 404 -17 q 91 35 171 -17 q 11 190 11 88 m 507 236 q 494 293 507 267 q 460 344 482 319 q 407 392 438 368 q 340 442 376 415 q 277 388 303 418 q 235 324 251 357 q 213 260 219 292 q 206 201 206 228 q 244 101 206 135 q 336 67 283 67 q 416 83 383 67 q 469 123 449 99 q 498 177 489 147 q 507 236 507 207 m 351 743 q 389 646 351 693 q 483 564 426 599 q 572 676 544 618 q 599 793 599 735 q 574 874 599 842 q 492 906 549 906 q 432 892 458 906 q 388 857 406 879 q 360 806 369 835 q 351 743 351 776 z "},"9":{"ha":778,"x_min":40,"x_max":772,"o":"m 67 608 q 92 752 67 682 q 169 876 118 822 q 297 964 219 931 q 479 997 375 997 q 599 980 544 997 q 691 926 653 963 q 751 836 729 890 q 772 710 772 782 q 723 474 772 590 q 580 260 674 358 q 352 90 486 163 q 49 -17 218 17 l 40 43 q 333 208 214 96 q 511 496 453 319 q 420 424 479 453 q 288 396 361 396 q 119 454 172 396 q 67 608 67 513 m 275 621 q 299 524 275 554 q 385 493 324 493 q 468 517 428 493 q 532 572 508 540 q 542 602 536 582 q 552 647 547 622 q 560 695 557 671 q 564 740 564 719 q 559 807 564 775 q 542 863 554 839 q 510 900 531 886 q 457 914 489 914 q 376 885 411 914 q 319 812 342 856 q 286 717 297 768 q 275 621 275 665 z "}," ":{"ha":375,"x_min":0,"x_max":0,"o":""},"!":{"ha":482,"x_min":100,"x_max":486,"o":"m 219 303 l 203 572 l 278 958 q 323 969 293 965 q 385 974 353 974 q 444 969 417 974 q 486 958 472 965 l 403 572 l 281 303 l 219 303 m 100 99 q 132 179 100 149 q 217 210 164 210 q 303 179 269 210 q 336 99 336 149 q 303 19 336 49 q 217 -11 269 -11 q 132 19 164 -11 q 100 99 100 49 z "},"\"":{"ha":547,"x_min":100,"x_max":497,"o":"m 317 931 q 356 960 328 949 q 415 972 383 972 q 469 962 444 972 q 497 931 494 951 l 389 675 l 336 675 l 317 931 m 100 931 q 139 960 111 949 q 199 972 167 972 q 253 962 228 972 q 281 931 278 951 l 172 675 l 119 675 l 100 931 z "},"#":{"ha":778,"x_min":33,"x_max":786,"o":"m 417 306 l 244 306 l 144 81 l 46 81 l 146 306 l 33 306 l 79 394 l 186 394 l 268 578 l 161 578 l 206 667 l 308 667 l 411 892 l 508 892 l 407 667 l 579 667 l 682 892 l 779 892 l 676 667 l 786 667 l 738 578 l 636 578 l 554 394 l 660 394 l 610 306 l 514 306 l 414 81 l 317 81 l 417 306 m 285 394 l 457 394 l 539 578 l 367 578 l 285 394 z "},"$":{"ha":778,"x_min":18,"x_max":803,"o":"m 275 -17 q 197 -8 238 -15 q 122 10 157 0 q 58 31 86 19 q 18 54 31 43 q 56 165 35 118 q 100 243 78 211 l 157 243 l 199 108 q 234 87 210 97 q 294 74 258 76 l 367 413 q 292 463 329 438 q 223 522 254 489 q 172 597 192 554 q 153 697 153 639 q 176 809 153 758 q 244 898 200 860 q 349 959 288 936 q 488 986 411 982 l 503 1056 l 600 1056 l 585 988 q 705 973 651 985 q 803 940 758 961 q 770 847 790 883 q 731 783 750 811 l 672 783 l 617 883 q 567 894 593 890 l 500 582 q 575 533 538 558 q 644 473 613 507 q 694 394 675 439 q 714 288 714 350 q 691 176 714 228 q 625 85 668 125 q 518 20 582 46 q 374 -14 454 -6 l 356 -97 l 258 -97 l 275 -17 m 354 761 q 374 687 354 717 q 426 632 394 657 l 483 894 q 390 852 425 886 q 354 761 354 818 m 506 215 q 487 294 506 261 q 438 356 468 328 l 379 79 q 468 124 431 90 q 506 215 506 157 z "},"%":{"ha":1149,"x_min":76,"x_max":1069,"o":"m 1003 993 l 1069 935 l 146 -18 l 81 42 l 1003 993 m 76 700 q 101 813 76 760 q 170 905 126 865 q 273 967 214 944 q 400 989 332 989 q 565 940 506 989 q 624 807 624 890 q 596 684 624 738 q 522 593 568 631 q 418 536 476 556 q 300 517 360 517 q 213 529 254 517 q 142 566 172 542 q 94 624 111 590 q 76 700 76 658 m 242 683 q 259 617 242 646 q 318 588 276 588 q 368 603 343 588 q 414 648 393 618 q 447 724 435 678 q 460 832 460 769 q 444 891 460 864 q 385 918 428 918 q 334 901 360 918 q 288 853 308 885 q 255 779 268 822 q 242 683 242 736 m 518 168 q 543 281 518 228 q 612 373 568 333 q 715 435 656 413 q 842 457 774 457 q 1006 408 947 457 q 1065 275 1065 358 q 1038 152 1065 206 q 964 61 1010 99 q 860 4 918 24 q 742 -15 801 -15 q 655 -3 696 -15 q 583 34 614 10 q 535 92 553 58 q 518 168 518 126 m 683 151 q 701 85 683 114 q 760 56 718 56 q 810 71 785 56 q 856 116 835 86 q 889 192 876 146 q 901 300 901 238 q 885 359 901 332 q 826 386 869 386 q 776 369 801 386 q 730 322 750 353 q 697 247 710 290 q 683 151 683 204 z "},"&":{"ha":1247,"x_min":90,"x_max":1181,"o":"m 663 161 q 591 247 626 199 q 526 346 556 296 q 472 443 496 396 q 436 524 449 490 q 344 408 378 472 q 310 271 311 344 q 322 200 310 233 q 356 142 333 167 q 411 102 378 117 q 488 88 444 88 q 576 105 529 88 q 663 161 624 122 m 513 782 q 528 699 513 739 q 567 622 543 660 q 659 710 621 658 q 697 822 697 763 q 682 885 697 858 q 626 913 667 913 q 545 875 578 913 q 513 782 513 838 m 833 0 q 776 40 808 17 q 715 99 743 63 q 654 56 689 76 q 579 19 619 35 q 495 -7 539 3 q 407 -17 451 -17 q 258 5 318 -17 q 160 61 197 26 q 106 140 122 96 q 90 228 90 183 q 122 353 90 294 q 199 459 153 411 q 297 544 244 507 q 394 603 350 581 q 357 683 369 640 q 344 765 344 725 q 366 856 344 815 q 424 927 388 897 q 511 973 461 957 q 618 989 561 989 q 769 946 722 989 q 817 831 817 903 q 797 749 817 789 q 744 675 776 710 q 672 610 711 640 q 594 560 632 581 q 796 279 664 426 q 831 331 810 294 q 873 413 853 367 q 906 510 893 458 q 918 607 919 561 q 883 619 897 611 q 853 640 868 628 l 864 694 l 1181 694 l 1168 640 q 1069 607 1126 618 q 1024 489 1050 547 q 968 379 997 431 q 909 288 939 328 q 854 225 879 247 q 937 149 894 182 q 1022 88 979 115 l 1086 54 l 1075 0 l 833 0 z "},"'":{"ha":331,"x_min":100,"x_max":281,"o":"m 100 931 q 139 960 111 949 q 199 972 167 972 q 253 962 228 972 q 281 931 278 951 l 172 675 l 119 675 l 100 931 z "},"(":{"ha":519,"x_min":76,"x_max":651,"o":"m 346 -292 q 238 -204 288 -251 q 153 -100 189 -157 q 97 26 117 -43 q 76 178 76 94 q 127 462 76 335 q 257 688 178 589 q 433 859 336 788 q 619 975 529 931 l 651 932 q 513 797 582 874 q 388 627 444 721 q 297 422 332 533 q 263 182 263 310 q 269 63 263 119 q 293 -45 276 7 q 336 -147 310 -97 q 401 -246 363 -196 l 346 -292 z "},")":{"ha":519,"x_min":-111,"x_max":461,"o":"m -111 -246 q 20 -121 -49 -196 q 145 52 89 -46 q 238 267 201 150 q 275 521 275 385 q 269 631 275 579 q 248 731 264 682 q 206 828 232 779 q 138 932 179 876 l 189 975 q 394 765 328 883 q 461 493 461 647 q 413 223 461 347 q 289 -1 365 99 q 117 -174 213 -101 q -76 -292 21 -247 l -111 -246 z "},"*":{"ha":643,"x_min":161,"x_max":660,"o":"m 169 829 q 167 863 161 840 q 185 909 172 886 q 215 949 197 932 q 250 968 233 967 l 375 821 q 358 790 375 800 l 169 829 m 253 596 q 220 613 238 596 q 189 653 203 631 q 169 700 175 676 q 169 736 163 724 l 357 772 q 375 743 375 763 l 253 596 m 494 549 q 465 531 488 538 q 417 525 443 525 q 366 529 389 524 q 336 546 343 535 l 396 728 q 433 728 414 739 l 494 549 m 651 736 q 656 697 660 721 q 639 651 651 674 q 609 613 626 629 q 575 597 592 597 l 454 740 q 471 769 454 758 l 651 736 m 579 967 q 611 953 596 968 q 638 917 626 939 q 655 872 650 896 q 654 831 660 847 l 468 789 q 451 819 451 801 l 579 967 m 335 1015 q 364 1035 342 1029 q 413 1042 386 1042 q 461 1035 439 1042 q 490 1015 483 1029 l 432 833 q 394 833 414 822 l 335 1015 z "},"+":{"ha":778,"x_min":76,"x_max":701,"o":"m 76 533 l 333 533 l 333 806 l 444 806 l 444 533 l 701 533 l 701 422 l 444 422 l 444 142 l 333 142 l 333 422 l 76 422 l 76 533 z "},",":{"ha":425,"x_min":-31,"x_max":281,"o":"m -31 -182 q 24 -157 -1 -174 q 70 -119 50 -140 q 103 -75 90 -99 q 121 -29 117 -51 q 83 11 108 -4 q 31 36 58 26 q 40 94 29 65 q 70 149 51 124 q 113 191 89 174 q 157 213 136 208 q 248 178 215 210 q 281 78 281 146 q 253 -33 281 21 q 185 -129 226 -86 q 91 -202 143 -172 q -12 -243 39 -232 l -31 -182 z "},"-":{"ha":575,"x_min":88,"x_max":514,"o":"m 115 454 l 514 454 l 486 329 l 88 329 l 115 454 z "},".":{"ha":401,"x_min":33,"x_max":269,"o":"m 33 99 q 65 179 33 149 q 150 210 97 210 q 236 179 203 210 q 269 99 269 149 q 236 19 269 49 q 150 -11 203 -11 q 65 19 97 -11 q 33 99 33 49 z "},"/":{"ha":478,"x_min":-60,"x_max":529,"o":"m 446 994 l 529 960 l 22 -185 l -60 -149 l 446 994 z "},":":{"ha":474,"x_min":78,"x_max":383,"o":"m 147 596 q 179 676 147 646 q 264 707 211 707 q 350 676 317 707 q 383 596 383 646 q 350 516 383 546 q 264 486 317 486 q 179 516 211 486 q 147 596 147 546 m 78 99 q 110 179 78 149 q 194 210 142 210 q 281 179 247 210 q 314 99 314 149 q 281 19 314 49 q 194 -11 247 -11 q 110 19 142 -11 q 78 99 78 49 z "},";":{"ha":464,"x_min":-8,"x_max":378,"o":"m 142 596 q 174 676 142 646 q 258 707 206 707 q 344 676 311 707 q 378 596 378 646 q 344 516 378 546 q 258 486 311 486 q 174 516 206 486 q 142 596 142 546 m -8 -182 q 47 -157 21 -174 q 92 -119 72 -140 q 126 -75 113 -99 q 143 -29 139 -51 q 106 11 131 -4 q 53 36 81 26 q 63 94 51 65 q 92 149 74 124 q 135 191 111 174 q 179 213 158 208 q 270 178 238 210 q 303 78 303 146 q 276 -33 303 21 q 207 -129 249 -86 q 113 -202 165 -172 q 10 -243 61 -232 l -8 -182 z "},"<":{"ha":778,"x_min":85,"x_max":696,"o":"m 85 450 l 85 493 l 619 819 l 669 729 l 374 551 l 260 504 l 372 461 l 696 271 l 618 143 l 85 450 z "},"=":{"ha":778,"x_min":76,"x_max":701,"o":"m 76 651 l 701 651 l 701 540 l 76 540 l 76 651 m 76 415 l 701 415 l 701 304 l 76 304 l 76 415 z "},">":{"ha":778,"x_min":82,"x_max":693,"o":"m 693 513 l 693 469 l 158 143 l 110 233 l 406 411 l 518 458 l 407 501 l 82 690 l 160 819 l 693 513 z "},"?":{"ha":701,"x_min":197,"x_max":758,"o":"m 283 696 l 236 696 q 226 741 232 714 q 214 798 219 768 q 206 859 208 828 q 207 918 204 890 q 335 969 267 950 q 496 989 404 989 q 688 939 618 989 q 758 797 758 889 q 730 680 758 728 q 658 594 701 632 q 563 526 615 557 q 465 460 511 494 q 383 384 418 426 q 338 282 347 342 l 292 282 q 301 399 285 349 q 347 492 318 450 q 413 568 376 533 q 481 638 449 603 q 534 709 513 672 q 556 790 556 746 q 526 872 556 846 q 449 899 497 899 q 392 893 415 899 q 354 879 368 888 l 283 696 m 197 99 q 229 179 197 149 q 314 210 261 210 q 400 179 367 210 q 433 99 433 149 q 400 19 433 49 q 314 -11 367 -11 q 229 19 261 -11 q 197 99 197 49 z "},"@":{"ha":1426,"x_min":106,"x_max":1364,"o":"m 892 646 q 972 668 925 661 q 1065 674 1018 675 l 997 288 q 983 155 981 199 q 1024 111 985 111 q 1097 132 1056 111 q 1174 195 1138 153 q 1235 302 1210 238 q 1260 453 1260 367 q 1222 642 1260 558 q 1116 782 1183 725 q 956 869 1049 839 q 757 899 864 899 q 535 856 636 899 q 363 739 435 814 q 250 560 290 664 q 210 336 210 457 q 251 120 210 213 q 364 -35 292 28 q 535 -128 436 -97 q 751 -160 635 -160 q 843 -150 792 -160 q 936 -121 894 -140 l 958 -200 q 851 -239 910 -228 q 722 -250 793 -250 q 487 -214 599 -250 q 290 -106 375 -178 q 156 75 206 -33 q 106 328 106 183 q 158 601 106 479 q 299 810 210 724 q 508 942 389 896 q 764 989 628 989 q 1006 952 896 989 q 1196 847 1117 915 q 1319 678 1275 778 q 1364 453 1364 579 q 1328 276 1364 356 q 1236 138 1293 196 q 1107 49 1179 81 q 961 18 1035 18 q 889 28 919 18 q 839 64 858 39 q 813 129 819 89 q 815 229 807 169 l 810 229 q 773 153 797 192 q 717 85 749 115 q 649 37 686 56 q 572 18 611 18 q 430 79 478 18 q 382 235 382 140 q 409 397 382 317 q 484 541 436 478 q 599 644 532 604 q 744 683 665 683 q 826 674 793 683 q 892 646 858 665 m 864 576 q 832 592 849 588 q 792 597 815 597 q 704 561 744 597 q 635 470 664 525 q 589 351 606 415 q 572 231 572 286 q 589 156 572 183 q 646 129 606 129 q 694 149 669 129 q 741 199 718 168 q 785 270 764 231 q 825 349 807 310 l 864 576 z "},"A":{"ha":1006,"x_min":-61,"x_max":961,"o":"m 285 0 l -61 0 l -51 53 q 1 77 -26 67 q 57 93 29 88 l 607 989 l 708 989 l 865 93 q 917 76 892 88 q 961 53 943 65 l 950 0 l 522 0 l 532 53 q 594 77 561 67 q 656 93 626 88 l 622 314 l 315 314 l 183 93 q 242 78 213 89 q 294 53 271 68 l 285 0 m 363 404 l 611 404 l 572 669 l 572 789 l 569 789 l 517 667 l 363 404 z "},"B":{"ha":894,"x_min":-33,"x_max":907,"o":"m -33 -1 l -24 51 q 39 78 7 67 q 100 92 71 89 l 267 878 q 211 894 239 883 q 161 918 183 904 l 172 971 l 393 971 q 495 975 446 971 q 606 979 544 979 q 728 969 672 979 q 823 937 783 958 q 885 880 863 915 q 907 794 907 844 q 887 690 907 736 q 831 610 867 644 q 747 553 796 575 q 642 519 699 531 l 642 514 q 717 500 679 511 q 784 467 754 489 q 833 410 814 444 q 851 329 851 376 q 822 192 851 254 q 733 85 792 131 q 588 15 675 40 q 385 -10 500 -10 q 322 -8 356 -10 q 253 -6 288 -7 q 186 -3 218 -4 q 132 -1 154 -1 l -33 -1 m 403 81 q 497 99 454 81 q 571 149 540 117 q 619 226 601 182 q 636 321 636 269 q 587 422 636 397 q 449 447 538 447 l 375 447 l 300 90 q 339 83 318 86 q 403 81 360 81 m 439 538 q 487 540 463 538 q 532 544 511 542 q 657 636 615 576 q 699 775 699 696 q 667 859 699 829 q 563 889 635 889 q 510 888 533 889 q 468 883 488 886 l 394 538 l 439 538 z "},"C":{"ha":906,"x_min":82,"x_max":965,"o":"m 779 292 l 838 292 q 836 238 838 269 q 831 172 835 207 q 821 101 826 136 q 808 39 815 67 q 744 13 779 24 q 672 -4 708 3 q 603 -14 636 -11 q 544 -17 569 -17 q 329 18 417 -17 q 186 108 242 53 q 106 233 131 164 q 82 374 82 303 q 122 624 82 511 q 240 819 163 738 q 428 944 317 900 q 682 989 540 989 q 847 976 774 989 q 965 940 919 963 q 951 883 961 918 q 929 810 942 849 q 903 735 917 772 q 876 674 889 699 l 818 674 l 786 883 q 744 894 774 890 q 686 899 715 899 q 538 860 606 899 q 422 750 471 821 q 345 578 372 679 q 318 354 318 478 q 340 223 318 276 q 398 136 363 169 q 476 88 433 103 q 558 74 518 74 q 628 81 599 74 q 671 97 657 89 l 779 292 z "},"D":{"ha":1019,"x_min":-33,"x_max":1026,"o":"m -33 0 l -24 53 q 35 77 3 67 q 100 93 67 88 l 267 879 q 208 897 235 886 q 161 919 181 907 l 172 972 l 333 972 q 392 974 357 972 q 466 977 428 975 q 540 981 504 979 q 600 983 575 983 q 798 958 717 983 q 930 888 879 933 q 1003 778 981 842 q 1026 639 1026 715 q 1013 481 1026 560 q 967 331 999 403 q 885 196 935 258 q 762 87 835 133 q 593 14 689 40 q 374 -12 497 -12 q 324 -10 356 -12 q 257 -6 293 -8 q 185 -2 221 -4 q 124 0 150 0 l -33 0 m 568 893 q 521 892 543 893 q 479 888 499 890 l 308 83 q 356 79 329 81 q 397 78 382 78 q 586 131 510 78 q 710 269 663 185 q 777 456 757 353 q 797 657 797 558 q 786 758 797 714 q 749 833 775 803 q 678 878 722 863 q 568 893 633 893 z "},"E":{"ha":836,"x_min":-33,"x_max":903,"o":"m 903 972 q 868 843 889 910 q 822 718 847 776 l 764 718 l 735 882 l 475 882 l 403 542 l 574 542 l 657 649 l 700 649 q 676 497 693 581 q 636 342 658 414 l 592 342 l 554 451 l 383 451 l 308 90 l 578 90 l 689 267 l 747 267 q 745 208 747 242 q 740 139 743 175 q 731 67 736 103 q 718 0 725 31 l -33 0 l -24 53 q 35 76 4 65 q 100 93 67 88 l 267 879 q 211 895 239 885 q 161 919 183 906 l 172 972 l 903 972 z "},"F":{"ha":794,"x_min":-33,"x_max":899,"o":"m 294 93 q 406 53 357 85 l 396 0 l -33 0 l -24 53 q 28 76 1 65 q 86 93 56 86 l 253 879 q 161 919 194 896 l 172 972 l 899 972 q 884 912 893 944 q 865 845 875 879 q 842 778 854 811 q 818 718 831 746 l 760 718 l 731 882 l 461 882 l 383 517 l 575 517 l 660 624 l 703 624 q 694 549 700 589 q 678 467 688 508 q 658 386 669 425 q 638 317 647 347 l 594 317 l 557 426 l 365 426 l 294 93 z "},"G":{"ha":985,"x_min":82,"x_max":1008,"o":"m 838 61 q 759 28 803 43 q 670 4 715 14 q 583 -11 625 -6 q 511 -17 542 -17 q 338 7 417 -17 q 201 79 258 31 q 113 201 144 128 q 82 375 82 275 q 123 625 82 513 q 241 819 164 738 q 431 944 318 900 q 685 989 543 989 q 776 985 731 989 q 862 976 821 982 q 936 960 903 969 q 990 940 969 951 q 976 887 986 919 q 954 817 967 854 q 928 742 942 779 q 900 674 914 704 l 843 674 l 811 885 q 756 895 792 892 q 690 899 721 899 q 527 853 597 899 q 410 732 457 808 q 341 556 364 656 q 318 346 318 456 q 335 222 318 274 q 380 138 351 171 q 447 89 408 104 q 529 74 485 74 q 613 85 569 74 q 682 111 657 96 l 738 372 q 672 386 703 375 q 618 413 642 397 l 629 465 l 1008 465 l 997 413 q 959 390 982 400 q 903 372 936 379 l 838 61 z "},"H":{"ha":1064,"x_min":-33,"x_max":1185,"o":"m 388 0 l -33 0 l -24 53 q 37 77 4 67 q 100 93 69 88 l 267 879 q 207 896 235 885 q 161 919 179 907 l 172 972 l 593 972 l 582 919 q 532 894 561 904 q 475 879 503 885 l 403 543 l 771 543 l 843 879 q 753 919 783 894 l 764 972 l 1185 972 l 1174 919 q 1115 894 1147 904 q 1051 879 1082 883 l 885 93 q 942 76 915 88 q 989 53 969 65 l 979 0 l 558 0 l 568 53 q 619 76 592 65 q 676 93 647 88 l 751 453 l 383 453 l 308 93 q 397 53 356 83 l 388 0 z "},"I":{"ha":513,"x_min":-19,"x_max":619,"o":"m 414 0 l -19 0 l -10 53 q 113 93 56 83 l 279 879 q 224 894 251 883 q 175 919 197 904 l 186 972 l 619 972 l 608 919 q 548 894 581 904 q 488 879 515 883 l 321 93 q 375 78 347 88 q 424 53 403 68 l 414 0 z "},"J":{"ha":501,"x_min":-60,"x_max":608,"o":"m 179 972 l 608 972 l 597 919 q 541 894 574 904 q 481 879 508 883 l 331 168 q 258 -19 307 54 q 152 -135 208 -92 q 42 -197 96 -178 q -43 -222 -11 -217 l -60 -186 q -9 -142 -33 -168 q 38 -76 15 -115 q 82 21 61 -36 q 121 160 103 78 l 272 879 q 215 895 243 885 q 168 919 188 906 l 179 972 z "},"K":{"ha":979,"x_min":-33,"x_max":1071,"o":"m 693 972 l 1071 972 l 1060 919 q 1002 894 1035 904 q 942 879 969 883 l 606 542 q 660 440 628 496 q 727 325 692 385 q 801 204 763 265 q 876 88 839 143 l 935 47 l 925 0 l 692 0 l 643 39 q 592 131 618 81 q 540 237 565 182 q 492 347 515 292 q 451 456 469 403 l 385 456 l 308 93 q 359 75 336 86 q 397 53 382 64 l 388 0 l -33 0 l -24 53 q 38 78 7 68 q 100 93 69 88 l 267 879 q 207 894 235 883 q 161 919 179 906 l 172 972 l 593 972 l 582 919 q 534 897 563 908 q 475 879 506 886 l 400 526 l 482 546 l 775 879 q 723 897 747 886 q 682 919 699 907 l 693 972 z "},"L":{"ha":801,"x_min":-33,"x_max":779,"o":"m 172 972 l 628 972 l 617 919 q 548 894 586 904 q 475 879 510 883 l 308 90 l 576 90 l 721 339 l 779 339 q 775 264 779 307 q 764 174 771 221 q 748 81 757 126 q 729 0 739 35 l -33 0 l -24 53 q 43 79 13 69 q 100 93 74 89 l 267 879 q 208 894 236 885 q 161 919 181 904 l 172 972 z "},"M":{"ha":1286,"x_min":-33,"x_max":1407,"o":"m 1200 0 l 785 0 l 796 53 q 856 76 826 67 q 917 93 885 86 l 1039 674 l 1081 836 l 1069 836 l 993 688 l 578 0 l 515 0 l 392 682 l 375 844 l 363 844 l 326 668 l 207 99 q 262 81 232 93 q 315 53 292 68 l 304 0 l -33 0 l -24 53 q 36 80 0 65 q 104 100 72 94 l 268 879 q 212 894 240 885 q 163 919 183 904 l 174 972 l 550 972 l 638 407 l 649 274 l 650 274 l 715 410 l 1057 972 l 1407 972 l 1396 919 q 1341 894 1371 904 q 1282 879 1311 885 l 1115 92 q 1168 75 1143 86 q 1211 53 1193 64 l 1200 0 z "},"N":{"ha":1049,"x_min":-33,"x_max":1169,"o":"m 826 972 l 1169 972 l 1158 919 q 1093 881 1126 896 q 1028 858 1060 867 l 842 -17 l 729 -17 l 385 692 l 351 799 l 347 799 l 335 688 l 211 108 q 267 85 236 101 q 318 53 299 69 l 308 0 l -33 0 l -24 53 q 106 108 39 92 l 267 867 q 216 892 243 876 q 174 921 189 907 l 183 972 l 478 972 l 757 394 l 799 275 l 804 275 l 825 394 l 922 858 q 863 885 892 869 q 815 919 835 901 l 826 972 z "},"O":{"ha":1043,"x_min":82,"x_max":1050,"o":"m 82 376 q 122 616 82 504 q 235 810 161 728 q 417 941 310 893 q 661 989 525 989 q 826 962 754 989 q 949 884 899 935 q 1024 761 999 833 q 1050 599 1050 689 q 1015 374 1050 485 q 910 177 981 264 q 733 37 839 90 q 483 -17 626 -17 q 313 13 388 -17 q 186 96 238 43 q 108 221 135 149 q 82 376 82 293 m 318 350 q 370 142 318 211 q 511 74 422 74 q 647 125 590 74 q 742 256 704 176 q 797 435 779 336 q 814 631 814 535 q 772 826 814 754 q 632 899 729 899 q 534 874 578 899 q 455 808 490 850 q 394 712 419 767 q 351 596 368 657 q 326 472 335 535 q 318 350 318 408 z "},"P":{"ha":881,"x_min":-33,"x_max":942,"o":"m 308 93 q 378 77 344 88 q 439 53 413 67 l 429 0 l -33 0 l -24 53 q 100 93 38 82 l 267 879 q 210 895 236 885 q 161 919 183 906 l 172 972 l 347 972 q 476 978 403 972 q 608 983 549 983 q 742 971 681 983 q 848 931 804 958 q 917 860 892 904 q 942 751 942 815 q 911 599 942 669 q 822 478 881 529 q 679 397 764 426 q 488 367 594 367 q 465 367 481 367 q 430 367 449 367 q 394 369 411 368 q 367 371 376 369 l 308 93 m 557 893 q 510 890 529 893 q 476 885 492 888 l 386 463 q 424 458 399 460 q 464 457 449 457 q 569 478 524 457 q 647 540 615 500 q 694 633 678 579 q 711 751 711 686 q 703 810 711 783 q 678 855 696 836 q 631 883 661 874 q 557 893 601 893 z "},"Q":{"ha":1057,"x_min":82,"x_max":1050,"o":"m 1049 -156 q 985 -206 1018 -182 q 915 -250 951 -231 q 842 -281 879 -269 q 768 -292 806 -292 q 644 -269 704 -292 q 522 -216 585 -246 q 387 -158 458 -186 q 228 -119 315 -131 l 275 -58 q 408 -52 344 -46 q 531 -73 471 -58 q 649 -106 590 -87 q 770 -135 708 -124 q 899 -145 832 -146 q 1042 -121 965 -144 l 1049 -156 m 82 376 q 122 616 82 504 q 235 810 161 728 q 417 941 310 893 q 661 989 525 989 q 826 962 754 989 q 949 884 899 935 q 1024 761 999 833 q 1050 599 1050 689 q 1015 374 1050 485 q 910 177 981 264 q 733 37 839 90 q 483 -17 626 -17 q 313 13 388 -17 q 186 96 238 43 q 108 221 135 149 q 82 376 82 293 m 318 350 q 370 142 318 211 q 511 74 422 74 q 647 125 590 74 q 742 256 704 176 q 797 435 779 336 q 814 631 814 535 q 772 826 814 754 q 632 899 729 899 q 534 874 578 899 q 455 808 490 850 q 394 712 419 767 q 351 596 368 657 q 326 472 335 535 q 318 350 318 408 z "},"R":{"ha":961,"x_min":-33,"x_max":915,"o":"m 308 93 q 361 74 338 85 q 404 53 385 64 l 394 0 l -33 0 l -24 53 q 41 78 11 69 q 100 93 71 88 l 267 879 q 161 919 199 894 l 172 972 l 319 972 q 383 974 347 972 q 457 977 418 975 q 536 981 496 979 q 613 983 576 983 q 841 924 767 983 q 915 754 915 864 q 899 655 915 703 q 849 566 882 607 q 769 494 817 525 q 657 444 721 463 q 747 267 693 357 q 851 92 800 176 l 910 47 l 900 0 l 679 0 l 628 46 q 541 223 581 122 q 483 421 501 324 l 378 421 l 308 93 m 549 893 q 508 890 526 893 q 475 885 490 888 l 393 497 l 474 497 q 573 519 531 497 q 643 577 615 540 q 685 661 671 614 q 699 761 699 708 q 663 863 700 832 q 549 893 626 893 z "},"S":{"ha":772,"x_min":21,"x_max":835,"o":"m 194 115 q 244 88 208 101 q 321 74 281 74 q 401 81 364 74 q 466 106 439 89 q 508 149 493 122 q 524 215 524 176 q 497 301 524 265 q 432 365 471 336 q 347 423 393 394 q 261 488 300 451 q 196 572 222 524 q 169 692 169 621 q 199 821 169 765 q 279 914 228 876 q 401 970 331 951 q 557 989 472 989 q 712 977 642 989 q 835 940 782 965 q 817 876 828 913 q 792 805 806 840 q 766 738 779 769 q 743 686 753 707 l 686 686 l 663 876 q 610 893 643 888 q 543 899 578 899 q 476 891 507 899 q 422 867 444 883 q 385 826 399 851 q 371 767 371 801 q 398 682 371 718 q 465 616 425 646 q 551 556 504 586 q 638 490 599 526 q 705 404 678 453 q 732 288 732 356 q 623 62 732 140 q 311 -17 514 -17 q 222 -11 267 -17 q 136 4 176 -6 q 65 25 96 14 q 21 49 35 36 q 42 119 29 82 q 68 192 54 156 q 97 262 82 229 q 124 319 111 294 l 181 319 l 194 115 z "},"T":{"ha":919,"x_min":126,"x_max":1050,"o":"m 640 0 l 163 0 l 174 53 q 242 76 204 65 q 317 93 279 88 l 485 882 l 324 882 l 183 644 l 126 644 q 130 715 126 672 q 138 804 133 758 q 150 895 143 850 q 165 972 157 940 l 1050 972 q 1031 894 1043 939 q 1006 804 1019 850 q 977 716 992 758 q 950 644 963 674 l 892 644 l 854 882 l 693 882 l 525 93 q 593 76 560 86 q 651 53 626 67 l 640 0 z "},"U":{"ha":993,"x_min":106,"x_max":1132,"o":"m 156 972 l 583 972 l 572 919 q 458 879 522 890 l 349 361 q 369 164 321 225 q 522 103 418 103 q 685 159 619 103 q 779 351 750 215 l 889 872 q 826 892 857 879 q 776 919 794 904 l 788 972 l 1132 972 l 1121 919 q 1062 890 1096 901 q 996 872 1028 879 l 885 350 q 748 79 847 171 q 464 -12 649 -12 q 185 92 265 -12 q 144 376 106 196 l 250 879 q 192 894 222 885 q 144 919 163 904 l 156 972 z "},"V":{"ha":1013,"x_min":133,"x_max":1161,"o":"m 906 879 q 845 896 874 886 q 797 919 817 906 l 808 972 l 1161 972 l 1150 919 q 1102 897 1131 908 q 1042 879 1074 886 l 536 0 l 397 -17 l 229 879 q 174 897 200 886 q 133 919 149 907 l 144 972 l 603 972 l 592 919 q 535 897 567 907 q 469 879 503 886 l 549 332 l 553 201 l 556 201 l 614 335 l 906 879 z "},"W":{"ha":1429,"x_min":133,"x_max":1578,"o":"m 1326 879 q 1269 894 1299 883 q 1217 919 1240 904 l 1228 972 l 1578 972 l 1567 919 q 1513 894 1542 904 q 1457 879 1483 885 l 1025 0 l 876 -17 l 804 656 l 456 0 l 307 -17 l 226 879 q 133 919 169 892 l 144 972 l 590 972 l 579 919 q 521 896 553 906 q 457 879 489 886 l 481 388 l 474 207 l 476 207 l 563 394 l 871 972 l 954 972 l 1026 401 l 1038 221 l 1040 221 l 1113 404 l 1326 879 z "},"X":{"ha":1004,"x_min":-50,"x_max":1093,"o":"m 749 972 l 1093 972 l 1082 919 q 1034 896 1060 906 q 979 879 1008 886 l 653 515 l 847 93 q 901 76 878 86 q 944 53 925 67 l 935 0 l 486 0 l 496 53 q 547 76 521 65 q 604 93 574 86 l 475 397 l 222 92 q 273 76 250 85 q 317 53 296 68 l 306 0 l -50 0 l -39 53 q 10 77 -15 68 q 64 93 36 86 l 429 490 l 254 879 q 208 896 229 886 q 168 919 188 906 l 179 972 l 618 972 l 607 919 q 561 898 588 908 q 499 879 535 888 l 606 601 l 835 879 q 783 897 808 886 q 738 919 757 907 l 749 972 z "},"Y":{"ha":965,"x_min":133,"x_max":1115,"o":"m 769 972 l 1115 972 l 1104 919 q 1053 895 1081 906 q 997 879 1025 885 l 626 407 l 560 93 q 611 78 586 89 q 657 53 636 67 l 646 0 l 218 0 l 229 53 q 288 76 256 65 q 351 93 319 88 l 418 406 l 238 879 q 180 895 207 885 q 133 919 153 906 l 144 972 l 596 972 l 585 919 q 538 897 565 908 q 474 879 510 886 l 594 506 l 860 879 q 804 897 831 886 q 758 919 778 907 l 769 972 z "},"Z":{"ha":876,"x_min":7,"x_max":936,"o":"m 749 293 l 806 293 q 803 226 806 264 q 796 150 800 189 q 785 72 792 111 q 772 0 779 33 l 7 0 l 7 90 l 689 882 l 369 882 l 246 683 l 188 683 q 190 753 188 714 q 197 831 192 792 q 207 908 201 871 q 219 972 213 944 l 936 972 l 936 882 l 253 90 l 619 90 l 749 293 z "},"[":{"ha":450,"x_min":-25,"x_max":574,"o":"m 249 972 l 574 972 l 557 896 l 413 896 l 171 -243 l 315 -243 l 300 -319 l -25 -319 l 249 972 z "},"\\":{"ha":531,"x_min":-78,"x_max":578,"o":"m 578 -144 l 499 -186 l -78 953 l 3 993 l 578 -144 z "},"]":{"ha":450,"x_min":-99,"x_max":499,"o":"m 225 -319 l -99 -319 l -83 -243 l 60 -243 l 301 896 l 157 896 l 174 972 l 499 972 l 225 -319 z "},"^":{"ha":706,"x_min":135,"x_max":693,"o":"m 393 988 l 457 988 l 693 603 l 526 603 l 417 790 l 392 864 l 356 789 l 232 603 l 135 603 l 393 988 z "},"_":{"ha":569,"x_min":-60,"x_max":510,"o":"m -60 -161 l 510 -161 l 510 -272 l -60 -272 l -60 -161 z "},"`":{"ha":468,"x_min":203,"x_max":496,"o":"m 496 818 l 433 788 l 203 989 l 203 1029 q 239 1045 211 1038 q 298 1057 267 1053 q 357 1062 329 1061 q 394 1060 385 1063 l 496 818 z "},"a":{"ha":782,"x_min":39,"x_max":754,"o":"m 299 94 q 353 118 325 94 q 408 177 382 142 q 455 255 433 213 q 492 333 476 297 l 543 608 q 512 624 526 619 q 474 629 497 629 q 374 592 418 629 q 299 497 329 556 q 252 364 268 438 q 236 217 236 290 q 251 124 236 153 q 299 94 267 94 m 471 221 q 426 134 453 176 q 364 58 399 92 q 288 4 329 25 q 197 -17 246 -17 q 82 36 125 -17 q 39 193 39 89 q 69 395 39 301 q 153 559 99 489 q 286 669 208 629 q 460 708 364 708 q 522 700 496 708 q 576 679 547 692 q 654 700 613 693 q 754 707 696 707 l 638 96 l 735 96 l 735 49 q 698 26 721 38 q 648 7 675 15 q 592 -7 621 -1 q 539 -12 564 -12 q 469 8 490 -12 q 449 51 449 29 q 456 117 449 76 q 476 221 463 158 l 471 221 z "},"b":{"ha":785,"x_min":33,"x_max":746,"o":"m 201 929 l 110 947 l 110 992 q 175 1010 136 1001 q 253 1026 214 1019 q 330 1038 293 1033 q 389 1044 367 1043 l 418 1029 l 311 503 l 318 503 q 368 582 340 544 q 428 649 396 619 q 497 694 461 678 q 575 711 533 711 q 642 698 611 711 q 697 658 674 685 q 733 588 719 631 q 746 488 746 546 q 718 294 746 385 q 635 133 690 203 q 499 24 581 64 q 313 -17 418 -17 q 226 -11 268 -17 q 147 4 183 -6 q 81 28 110 14 q 33 57 51 42 l 201 929 m 474 600 q 417 576 444 600 q 367 519 390 553 q 326 450 344 486 q 297 389 308 414 l 238 90 q 276 69 253 76 q 324 63 300 63 q 412 97 371 63 q 483 189 453 132 q 531 320 514 246 q 549 474 549 394 q 531 566 549 532 q 474 600 513 600 z "},"c":{"ha":618,"x_min":38,"x_max":626,"o":"m 572 151 q 525 92 554 122 q 458 38 496 61 q 374 -1 419 14 q 276 -17 328 -17 q 102 49 167 -17 q 38 231 38 114 q 67 415 38 328 q 151 569 97 503 q 283 673 206 635 q 454 711 360 711 q 563 698 517 711 q 625 667 610 685 q 620 628 626 651 q 601 583 614 606 q 572 540 589 560 q 536 511 554 519 l 451 632 q 376 606 414 632 q 307 533 338 581 q 257 417 276 485 q 238 265 238 350 q 272 141 238 181 q 365 101 307 101 q 419 110 393 101 q 467 132 444 119 q 508 159 489 144 q 540 186 526 174 l 572 151 z "},"d":{"ha":792,"x_min":40,"x_max":818,"o":"m 299 94 q 356 119 328 94 q 410 179 385 143 q 458 257 436 215 q 494 333 479 299 l 544 607 q 510 623 526 618 q 472 628 494 628 q 376 592 419 628 q 301 499 332 557 q 254 367 271 442 q 238 215 238 293 q 299 94 238 94 m 472 221 q 423 129 451 172 q 360 54 394 86 q 286 3 326 22 q 201 -17 246 -17 q 85 38 131 -17 q 40 201 40 92 q 67 391 40 300 q 147 552 94 482 q 274 665 199 622 q 447 707 350 707 q 515 701 493 707 q 560 685 536 696 l 607 929 l 511 947 l 511 994 q 568 1011 532 1003 q 645 1026 604 1019 q 726 1038 686 1033 q 790 1044 765 1043 l 818 1029 l 639 96 l 739 96 l 739 49 q 702 26 725 38 q 652 7 679 15 q 596 -7 625 -1 q 542 -12 567 -12 q 472 10 493 -12 q 451 56 451 32 q 458 124 451 79 q 478 221 465 168 l 472 221 z "},"e":{"ha":656,"x_min":38,"x_max":642,"o":"m 596 151 q 551 94 581 124 q 483 40 522 64 q 397 -1 444 15 q 299 -17 350 -17 q 106 51 175 -17 q 38 242 38 118 q 68 422 38 338 q 153 572 99 507 q 284 674 208 636 q 450 711 360 711 q 588 673 533 711 q 642 568 642 635 q 548 413 642 474 q 244 336 454 351 q 238 297 240 317 q 236 258 236 276 q 276 137 236 179 q 379 94 317 94 q 432 103 406 94 q 483 125 458 111 q 527 155 507 139 q 563 186 547 171 l 596 151 m 418 632 q 327 581 371 632 q 254 407 283 529 q 420 453 357 410 q 483 565 483 496 q 469 613 483 593 q 418 632 454 632 z "},"f":{"ha":439,"x_min":-101,"x_max":683,"o":"m 157 607 l 58 607 l 58 661 q 117 688 86 676 q 176 707 149 700 l 186 756 q 235 898 204 842 q 308 987 267 954 q 403 1032 350 1019 q 517 1044 456 1044 q 607 1037 561 1044 q 681 1014 653 1029 q 678 972 683 994 q 663 928 674 949 q 639 890 653 907 q 608 865 625 874 l 508 971 q 470 958 489 967 q 435 928 451 949 q 402 868 418 907 q 374 764 386 829 l 361 694 l 514 694 q 514 652 517 679 q 496 607 511 625 l 343 607 l 257 60 q 200 -104 243 -39 q 105 -209 157 -169 q 0 -268 53 -249 q -86 -294 -53 -287 l -101 -247 q -60 -220 -85 -239 q -10 -168 -35 -201 q 37 -85 15 -135 q 69 33 58 -36 l 157 607 z "},"g":{"ha":722,"x_min":-82,"x_max":815,"o":"m 408 711 q 538 693 488 711 q 613 656 589 675 q 650 681 626 668 q 701 706 674 694 q 755 728 728 718 q 804 744 782 738 q 813 711 811 732 q 813 669 815 690 q 804 628 811 647 q 786 596 797 608 l 649 611 q 660 582 656 600 q 665 542 665 564 q 642 447 665 492 q 573 368 618 401 q 465 315 528 335 q 322 294 401 294 q 284 295 299 294 q 251 300 269 296 q 235 288 244 294 q 217 275 226 282 q 202 259 208 268 q 196 239 196 250 q 231 207 196 218 q 317 188 265 196 q 429 168 368 179 q 542 136 490 157 q 628 80 593 115 q 663 -14 663 44 q 622 -129 663 -78 q 515 -217 581 -181 q 366 -274 449 -254 q 199 -294 283 -294 q 76 -281 129 -294 q -12 -245 24 -268 q -65 -193 -47 -222 q -82 -132 -82 -164 q -19 -10 -82 -60 q 139 71 43 39 q 81 108 103 86 q 60 163 60 129 q 72 206 60 183 q 104 249 85 228 q 147 287 124 269 q 194 315 171 304 q 151 332 174 319 q 109 363 128 344 q 78 408 90 382 q 65 463 65 433 q 89 563 65 517 q 157 641 113 608 q 265 692 201 674 q 408 711 328 711 m 264 -215 q 337 -206 301 -215 q 400 -180 372 -197 q 445 -136 428 -162 q 463 -74 463 -110 q 435 -20 463 -40 q 367 13 408 0 q 276 35 325 26 q 182 54 226 43 q 124 -15 143 25 q 104 -96 104 -56 q 147 -183 104 -151 q 264 -215 190 -215 m 392 635 q 333 621 358 635 q 292 583 308 607 q 267 528 275 560 q 258 460 258 496 q 283 391 258 411 q 335 371 307 371 q 393 385 368 371 q 435 422 418 399 q 460 475 451 444 q 468 540 468 506 q 449 608 468 582 q 392 635 429 635 z "},"h":{"ha":807,"x_min":29,"x_max":743,"o":"m 125 947 l 125 992 q 178 1009 146 1000 q 249 1026 211 1018 q 328 1039 288 1033 q 404 1044 368 1044 l 433 1032 l 317 492 l 324 492 q 383 576 350 536 q 451 647 415 617 q 528 694 488 676 q 610 711 568 711 q 708 674 674 711 q 743 583 743 638 q 736 503 743 546 q 719 419 729 460 l 640 96 l 743 96 l 743 49 q 662 7 715 26 q 540 -12 608 -12 q 474 6 494 -12 q 453 51 453 25 q 459 103 453 76 q 472 164 465 129 l 524 396 q 541 474 533 439 q 549 542 549 510 q 538 583 549 567 q 507 600 528 600 q 443 577 475 600 q 383 522 411 554 q 334 456 356 490 q 303 397 313 421 l 221 0 l 29 0 l 217 929 l 125 947 z "},"i":{"ha":422,"x_min":58,"x_max":425,"o":"m 82 614 l 82 661 q 138 678 103 669 q 211 694 172 688 q 288 706 250 701 q 356 711 326 711 l 381 694 l 256 96 l 353 96 l 353 49 q 310 25 335 36 q 259 6 286 14 q 204 -8 232 -3 q 151 -12 176 -12 q 78 8 99 -12 q 58 51 58 28 q 63 106 58 79 q 74 164 67 132 l 168 594 l 82 614 m 197 926 q 229 1000 197 974 q 310 1026 261 1026 q 394 1000 363 1026 q 425 926 425 974 q 394 856 425 882 q 310 829 363 829 q 229 856 261 829 q 197 926 197 882 z "},"j":{"ha":415,"x_min":-112,"x_max":425,"o":"m 165 596 l 83 614 l 83 661 q 136 680 104 671 q 205 696 168 689 q 279 707 242 703 q 350 711 317 711 l 378 694 l 250 60 q 188 -104 229 -39 q 97 -210 146 -169 q -1 -269 49 -250 q -90 -294 -51 -289 l -112 -251 q -74 -225 -96 -243 q -29 -174 -51 -207 q 15 -90 -7 -140 q 51 33 36 -39 l 165 596 m 197 926 q 229 1000 197 974 q 310 1026 261 1026 q 394 1000 363 1026 q 425 926 425 974 q 394 856 425 882 q 310 829 363 829 q 229 856 261 829 q 197 926 197 882 z "},"k":{"ha":749,"x_min":29,"x_max":757,"o":"m 438 63 q 376 194 399 129 q 332 318 353 260 l 286 332 l 224 0 l 29 0 l 214 929 l 121 947 l 121 994 q 172 1012 140 1003 q 242 1028 204 1021 q 320 1040 279 1035 q 400 1044 361 1044 l 429 1029 l 300 393 l 344 393 q 393 436 368 411 q 440 486 418 461 q 480 535 463 511 q 507 576 497 560 q 509 603 508 586 q 509 637 510 619 q 508 670 508 654 q 506 694 507 686 q 565 708 529 703 q 639 713 601 713 q 709 708 676 713 q 757 694 742 703 q 703 604 739 649 q 627 521 668 560 q 547 451 586 482 q 482 401 507 419 q 512 335 492 375 q 557 251 532 294 q 610 166 582 207 q 661 96 638 125 l 736 96 l 736 49 q 701 26 722 38 q 654 7 679 15 q 603 -7 629 -1 q 551 -12 576 -12 q 490 3 518 -12 q 438 63 461 18 z "},"l":{"ha":415,"x_min":46,"x_max":426,"o":"m 213 929 l 118 947 l 118 994 q 171 1011 138 1003 q 243 1027 204 1019 q 323 1040 282 1035 q 399 1044 364 1044 l 426 1029 l 244 96 l 343 96 l 343 49 q 306 26 329 38 q 253 7 282 15 q 194 -7 225 -1 q 136 -12 164 -12 q 67 8 89 -12 q 46 51 46 28 q 50 106 46 79 q 61 164 54 132 l 213 929 z "},"m":{"ha":1179,"x_min":39,"x_max":1115,"o":"m 896 417 q 911 485 903 449 q 919 543 919 522 q 910 585 919 569 q 878 600 901 600 q 829 583 854 600 q 781 537 804 565 q 735 472 757 508 q 697 399 714 436 l 607 0 l 421 0 l 506 390 q 522 474 515 433 q 529 549 529 514 q 490 600 529 600 q 446 582 471 600 q 396 535 421 564 q 349 471 371 507 q 314 397 326 435 l 233 0 l 39 0 l 163 596 l 83 614 l 83 661 q 138 682 106 672 q 207 698 171 692 q 281 708 243 704 q 350 711 318 711 l 379 694 l 325 492 l 331 492 q 381 569 351 529 q 449 640 411 608 q 529 691 486 671 q 617 711 572 711 q 651 706 633 711 q 685 685 669 700 q 711 646 701 671 q 721 582 721 621 q 717 538 721 563 q 708 492 714 513 q 764 575 732 535 q 833 645 796 615 q 910 693 869 675 q 996 711 951 711 q 1082 678 1049 711 q 1115 586 1115 644 q 1107 501 1115 542 q 1089 417 1099 461 l 1010 96 l 1107 96 l 1107 49 q 1069 26 1093 38 q 1017 7 1044 15 q 960 -7 989 -1 q 906 -12 931 -12 q 836 8 856 -12 q 817 53 817 28 q 836 164 817 93 l 896 417 z "},"n":{"ha":817,"x_min":39,"x_max":753,"o":"m 533 396 q 551 472 543 439 q 558 542 558 506 q 548 583 558 565 q 511 600 538 600 q 456 580 485 600 q 401 530 428 560 q 351 464 374 500 q 314 397 328 428 l 231 0 l 39 0 l 158 596 l 76 614 l 79 661 q 129 680 99 671 q 196 696 160 689 q 270 707 232 703 q 343 711 308 711 l 371 694 l 328 492 l 335 492 q 393 578 360 538 q 464 647 426 618 q 543 694 501 676 q 628 711 585 711 q 719 674 686 711 q 753 574 753 636 q 746 501 753 542 q 729 419 739 460 l 653 96 l 753 96 l 753 49 q 716 26 739 38 q 666 7 693 15 q 610 -7 639 -1 q 554 -12 581 -12 q 485 6 507 -12 q 464 47 464 24 q 471 110 464 76 q 485 174 478 143 l 533 396 z "},"o":{"ha":763,"x_min":40,"x_max":722,"o":"m 40 267 q 65 420 40 342 q 142 563 90 499 q 272 669 193 628 q 456 711 350 711 q 651 643 581 711 q 722 440 722 575 q 694 266 722 349 q 614 120 667 183 q 485 20 561 57 q 313 -17 410 -17 q 204 1 254 -17 q 117 53 154 18 q 60 142 81 89 q 40 267 40 194 m 432 632 q 340 590 376 632 q 280 485 303 549 q 247 349 257 422 q 238 213 238 275 q 265 102 238 142 q 339 63 292 63 q 413 97 379 63 q 472 188 447 131 q 511 320 497 246 q 525 475 525 394 q 501 592 525 551 q 432 632 476 632 z "},"p":{"ha":794,"x_min":-24,"x_max":761,"o":"m 188 -185 q 237 -201 211 -189 q 281 -225 263 -212 l 281 -278 l -6 -278 l -24 -260 l 160 594 l 79 614 l 79 661 q 136 680 101 671 q 208 696 171 689 q 282 707 246 703 q 346 711 318 711 l 374 694 l 328 503 l 333 503 q 384 584 356 546 q 445 651 413 622 q 516 695 478 679 q 597 711 554 711 q 715 656 668 711 q 761 500 761 600 q 729 292 761 388 q 642 128 697 197 q 512 22 588 60 q 349 -17 436 -17 q 283 -10 308 -17 q 229 11 257 -4 l 188 -185 m 490 600 q 434 578 461 600 q 383 525 407 557 q 340 456 360 493 q 308 388 321 418 l 247 86 q 283 68 265 74 q 333 63 300 63 q 422 100 381 63 q 495 197 464 138 q 544 332 526 257 q 561 481 561 407 q 543 569 561 539 q 490 600 525 600 z "},"q":{"ha":758,"x_min":36,"x_max":747,"o":"m 567 -183 q 614 -199 589 -187 q 658 -225 639 -210 l 658 -278 l 372 -278 l 360 -267 l 467 211 l 461 211 q 417 131 443 171 q 358 58 392 90 q 284 4 325 25 q 194 -17 243 -17 q 79 40 122 -17 q 36 206 36 97 q 63 397 36 306 q 147 557 90 488 q 288 667 203 626 q 488 708 372 708 q 570 703 529 708 q 646 692 611 699 q 707 676 681 685 q 747 661 733 668 l 567 -183 m 303 94 q 356 117 329 94 q 406 175 382 140 q 450 251 429 210 q 486 328 471 292 l 542 614 q 468 629 517 629 q 368 592 411 629 q 294 497 325 556 q 249 364 264 438 q 233 217 233 290 q 303 94 233 94 z "},"r":{"ha":604,"x_min":39,"x_max":647,"o":"m 436 563 q 377 513 410 551 q 322 414 344 474 l 233 0 l 39 0 l 163 596 l 83 614 l 83 661 q 138 681 107 672 q 205 697 169 690 q 278 706 240 703 q 350 711 315 710 l 378 694 l 342 522 l 347 522 q 443 657 389 603 q 569 711 497 711 q 608 708 589 711 q 644 694 628 704 q 640 631 647 665 q 619 567 632 597 q 590 513 607 536 q 558 481 574 489 l 436 563 z "},"s":{"ha":600,"x_min":-3,"x_max":579,"o":"m 318 153 q 301 208 318 183 q 260 256 285 232 q 205 302 235 279 q 150 354 175 325 q 108 419 125 383 q 92 501 92 454 q 167 659 92 607 q 374 711 243 711 q 423 709 396 711 q 478 701 450 707 q 531 688 506 696 q 578 668 557 681 q 576 628 579 653 q 563 580 572 604 q 540 535 554 556 q 504 508 525 515 l 393 632 q 319 614 349 632 q 289 550 289 596 q 306 494 289 519 q 349 447 324 469 q 404 400 374 424 q 460 348 435 376 q 502 283 485 319 q 519 200 519 247 q 496 107 519 147 q 431 39 472 67 q 333 -3 390 11 q 210 -17 276 -17 q 83 -1 139 -17 q -1 35 26 15 q 15 122 -3 79 q 65 189 32 165 l 200 63 q 282 85 246 63 q 318 153 318 107 z "},"t":{"ha":510,"x_min":63,"x_max":540,"o":"m 63 661 q 121 690 89 678 q 183 708 153 701 l 206 814 q 236 830 215 822 q 282 844 257 838 q 333 856 307 850 q 379 864 358 861 l 408 847 l 375 694 l 538 694 q 535 651 540 678 q 519 607 531 624 l 357 607 l 276 247 q 268 201 271 221 q 265 164 265 181 q 283 111 265 128 q 332 94 301 94 q 397 103 367 94 q 456 126 428 111 l 474 90 q 429 53 457 72 q 367 19 401 35 q 292 -7 332 3 q 210 -17 251 -17 q 101 17 138 -17 q 65 108 65 50 q 71 176 65 140 q 82 238 76 213 l 163 607 l 63 607 l 63 661 z "},"u":{"ha":813,"x_min":58,"x_max":771,"o":"m 758 96 l 758 49 q 722 26 744 38 q 672 7 699 15 q 615 -7 644 -1 q 556 -12 585 -12 q 487 8 506 -12 q 468 50 468 28 q 474 119 468 75 q 496 222 479 164 l 490 222 q 444 147 472 189 q 379 69 417 106 q 293 8 342 32 q 186 -17 244 -17 q 94 17 129 -17 q 58 114 58 51 q 67 201 58 144 q 90 326 76 258 q 119 465 103 393 q 147 596 135 536 l 65 614 l 65 661 q 121 678 88 669 q 190 693 154 686 q 264 705 226 700 q 332 711 301 710 l 363 694 q 317 497 340 590 q 275 299 294 403 q 260 225 268 265 q 253 144 253 185 q 266 107 253 119 q 299 94 279 94 q 367 122 333 94 q 430 187 401 149 q 480 265 458 225 q 511 332 501 306 l 583 694 l 771 694 l 661 96 l 758 96 z "},"v":{"ha":668,"x_min":11,"x_max":699,"o":"m 401 243 q 469 381 439 311 q 522 529 500 451 q 519 569 522 544 q 512 618 515 593 q 504 665 508 643 q 497 694 500 686 q 545 707 517 703 q 602 711 574 711 q 657 707 631 711 q 699 694 683 703 q 640 517 678 608 q 553 336 601 426 q 447 160 504 246 q 331 0 390 75 l 203 -17 l 100 596 l 11 607 l 11 654 q 51 674 28 664 q 103 692 75 683 q 162 706 132 700 q 221 711 192 711 q 274 691 258 711 q 293 640 289 671 l 346 240 l 354 147 l 357 147 l 401 243 z "},"w":{"ha":1058,"x_min":11,"x_max":1089,"o":"m 804 242 q 869 381 842 314 q 917 519 896 447 q 913 560 917 535 q 904 613 908 586 q 895 663 900 640 q 888 694 890 686 q 936 707 907 703 q 994 711 965 711 q 1048 707 1022 711 q 1089 694 1074 703 q 1033 518 1068 608 q 955 338 999 428 q 861 163 911 249 q 757 0 811 76 l 614 -17 l 551 338 l 547 444 l 543 444 l 497 336 q 410 166 457 254 q 315 0 363 78 l 167 -17 l 100 596 l 11 607 l 11 654 q 52 674 28 664 q 103 692 76 683 q 159 706 131 700 q 214 711 188 711 q 272 692 251 711 q 296 643 293 674 l 328 246 l 325 146 l 328 146 l 367 247 l 560 667 l 669 694 q 719 474 697 590 q 757 246 742 358 l 764 147 l 767 147 l 804 242 z "},"x":{"ha":703,"x_min":-37,"x_max":732,"o":"m 279 281 q 219 211 251 249 q 169 139 188 174 q 168 110 168 128 q 169 72 168 92 q 173 35 171 53 q 178 10 175 18 q 123 -4 154 0 q 61 -8 92 -8 q 4 -4 31 -8 q -37 10 -22 0 q 10 101 -25 51 q 90 199 46 151 q 178 290 133 247 q 256 357 224 332 l 171 588 l 75 599 l 75 646 q 122 668 94 657 q 178 688 149 679 q 237 701 207 696 q 290 707 267 707 q 345 688 326 707 q 374 639 364 669 l 436 419 q 492 486 463 447 q 536 557 521 525 q 537 585 538 567 q 534 623 536 603 q 528 660 532 643 q 524 686 525 678 q 636 704 575 704 q 690 699 664 704 q 732 686 717 694 q 685 594 719 644 q 610 497 651 544 q 526 410 568 450 q 457 350 483 371 l 549 107 l 644 96 l 644 49 q 606 28 631 39 q 551 9 581 18 q 492 -6 522 0 q 436 -12 461 -12 q 379 6 400 -12 q 349 54 358 24 l 279 281 z "},"y":{"ha":676,"x_min":-22,"x_max":706,"o":"m 100 596 l 11 607 l 11 654 q 39 669 18 660 q 88 688 60 678 q 149 704 117 697 q 211 711 181 711 q 269 693 249 711 q 297 643 290 675 l 404 222 l 411 139 l 414 139 l 443 221 q 497 365 471 288 q 539 508 524 442 q 534 551 539 524 q 524 606 529 578 q 513 659 518 635 q 504 692 507 683 q 553 704 524 700 q 611 708 582 708 q 665 704 640 708 q 706 692 690 700 q 595 349 669 526 q 424 0 521 171 q 263 -217 343 -143 q 79 -290 183 -290 q 26 -283 50 -290 q -18 -262 1 -275 q -15 -217 -22 -243 q 5 -165 -8 -190 q 36 -119 18 -140 q 74 -92 54 -99 l 178 -165 q 203 -145 188 -158 q 233 -112 218 -132 q 264 -64 249 -92 q 292 0 279 -36 l 100 596 z "},"z":{"ha":650,"x_min":-31,"x_max":676,"o":"m 169 254 l 169 256 l 435 532 q 317 537 381 531 q 188 554 254 543 l 124 454 l 76 463 l 96 658 q 175 713 104 713 q 244 708 203 713 q 338 696 286 703 q 451 683 390 689 q 576 672 511 676 l 613 711 q 653 692 632 710 q 676 651 674 675 l 229 185 q 367 147 300 169 q 492 92 433 124 l 585 183 l 631 164 l 569 -32 q 542 -67 563 -53 q 494 -81 522 -81 q 424 -62 465 -81 q 332 -22 383 -44 q 222 24 281 1 q 100 54 164 46 l 35 -12 q 13 -7 24 -12 q -8 7 1 -1 q -24 26 -18 15 q -29 50 -31 38 l 169 254 z "},"{":{"ha":494,"x_min":57,"x_max":614,"o":"m 136 142 q 143 196 143 174 q 121 267 143 242 q 57 293 99 293 l 71 360 q 120 371 97 360 q 162 402 143 382 q 194 449 181 422 q 214 506 207 475 l 282 825 q 338 932 296 892 q 446 972 379 972 l 614 972 l 599 896 l 550 896 q 491 876 513 896 q 460 813 469 857 l 394 507 q 363 429 385 461 q 315 377 342 397 q 260 347 289 357 q 206 333 231 336 l 203 325 q 244 313 224 322 q 283 288 265 304 q 311 247 300 271 q 322 189 322 222 q 318 146 322 168 l 253 -160 q 249 -192 249 -179 q 308 -243 249 -243 l 356 -243 l 340 -319 l 172 -319 q 92 -294 121 -319 q 64 -219 64 -269 q 69 -174 64 -196 l 136 142 z "},"|":{"ha":326,"x_min":158,"x_max":256,"o":"m 158 972 l 256 972 l 256 -181 l 158 -181 l 158 972 z "},"}":{"ha":494,"x_min":-93,"x_max":464,"o":"m 385 513 q 378 458 378 481 q 464 361 378 361 l 449 294 q 358 252 396 294 q 307 149 319 210 l 239 -172 q 183 -279 225 -239 q 75 -319 142 -319 l -93 -319 l -78 -243 l -29 -243 q 30 -224 8 -243 q 61 -160 51 -204 l 126 147 q 156 225 136 193 q 199 277 175 257 q 251 308 224 297 q 303 321 278 318 l 304 329 q 265 340 285 331 q 231 364 246 349 q 206 403 215 379 q 197 458 197 426 q 203 508 197 485 l 268 813 q 271 828 271 821 q 271 843 271 836 q 211 896 272 896 l 164 896 l 181 972 l 350 972 q 429 947 401 972 q 457 872 457 921 q 451 826 457 849 l 385 513 z "},"~":{"ha":778,"x_min":113,"x_max":715,"o":"m 113 433 q 204 556 149 514 q 311 599 260 599 q 379 584 346 599 q 444 551 413 569 q 509 519 476 533 q 576 504 542 504 q 628 515 601 504 q 683 551 656 525 l 715 510 q 638 410 683 443 q 544 378 593 378 q 474 392 508 378 q 407 425 440 407 q 340 458 374 443 q 274 472 307 472 q 212 456 243 472 q 149 396 181 439 l 113 433 z "}," ":{"ha":375,"x_min":0,"x_max":0,"o":""},"¡":{"ha":482,"x_min":25,"x_max":414,"o":"m 292 397 l 308 128 l 233 -258 q 188 -270 217 -267 q 126 -274 158 -274 q 66 -270 94 -274 q 25 -258 38 -267 l 108 128 l 231 397 l 292 397 m 178 600 q 210 681 178 650 q 294 711 242 711 q 381 681 347 711 q 414 600 414 650 q 381 520 414 550 q 294 490 347 490 q 210 520 242 490 q 178 600 178 550 z "},"¢":{"ha":778,"x_min":65,"x_max":778,"o":"m 660 151 q 566 53 624 94 q 433 -4 508 11 l 386 -236 l 279 -236 l 326 -15 q 137 58 208 -8 q 65 243 65 124 q 95 413 65 333 q 180 555 125 493 q 311 656 235 617 q 479 706 388 696 l 525 917 l 632 917 l 588 707 q 608 706 599 706 q 628 703 617 706 q 714 691 671 700 q 776 667 757 682 q 772 628 778 651 q 753 583 765 606 q 723 540 740 560 q 686 511 706 519 l 601 632 q 560 628 581 632 l 447 103 q 557 136 514 110 q 626 186 600 163 l 660 151 m 265 256 q 292 156 265 193 q 361 107 318 119 l 468 603 q 385 549 422 582 q 321 470 347 515 q 280 371 294 425 q 265 256 265 317 z "},"£":{"ha":778,"x_min":-12,"x_max":828,"o":"m 94 521 l 201 521 q 175 610 185 565 q 165 696 165 656 q 255 910 165 831 q 540 989 344 989 q 703 974 628 989 q 828 936 778 960 q 809 881 821 914 q 783 812 797 847 q 755 743 769 776 q 728 686 740 710 l 681 686 l 665 876 q 611 893 640 888 q 546 899 582 899 q 438 875 481 899 q 383 799 394 851 q 378 733 376 765 q 385 676 381 700 q 393 635 389 653 q 401 601 397 618 q 408 566 404 585 q 417 521 413 547 l 590 521 l 571 436 l 422 436 q 405 368 418 393 q 369 310 392 343 q 339 250 361 282 q 281 193 317 218 l 226 161 l 226 156 l 297 164 l 543 164 l 644 319 l 692 319 q 685 243 689 288 q 675 153 681 199 q 663 66 669 107 q 651 0 657 25 l -12 0 l 3 75 q 66 102 38 88 q 117 133 94 117 q 159 170 140 150 q 196 214 178 190 q 230 282 217 243 q 243 346 243 321 q 240 397 243 376 q 231 436 238 417 l 75 436 l 94 521 z "},"¤":{"ha":778,"x_min":47,"x_max":729,"o":"m 47 247 l 150 350 l 206 369 q 181 419 188 393 q 174 481 174 444 q 206 590 174 546 l 150 611 l 47 714 l 156 822 l 258 719 l 279 664 q 327 688 301 679 q 388 696 353 696 q 500 665 461 694 l 521 719 l 622 819 l 729 713 l 628 611 l 575 592 q 594 542 588 568 q 603 479 601 515 q 597 421 604 449 q 575 369 589 393 l 628 350 l 729 247 l 621 139 l 519 240 l 500 294 q 450 274 479 282 q 389 265 421 265 q 326 274 353 267 q 276 294 300 282 l 258 242 l 156 139 l 47 247 m 388 365 q 472 399 438 367 q 506 481 506 431 q 472 563 506 531 q 388 596 438 596 q 303 564 338 597 q 271 481 269 531 q 303 399 269 431 q 388 365 338 367 z "},"¥":{"ha":778,"x_min":43,"x_max":990,"o":"m 656 972 l 990 972 l 979 919 q 924 894 956 906 q 865 879 893 883 l 569 475 l 732 475 l 713 385 l 515 385 l 497 306 l 696 306 l 676 215 l 479 215 l 453 93 q 504 78 479 89 q 550 53 529 67 l 539 0 l 111 0 l 122 53 q 181 76 149 65 q 244 93 213 88 l 271 215 l 72 215 l 92 306 l 289 306 l 307 385 l 108 385 l 128 475 l 286 475 l 147 879 q 90 896 117 885 q 43 919 63 907 l 54 972 l 508 972 l 497 919 q 386 879 458 899 l 486 488 l 747 879 q 690 897 717 886 q 644 919 664 907 l 656 972 z "},"¦":{"ha":326,"x_min":135,"x_max":232,"o":"m 135 264 l 232 264 l 232 -181 l 135 -181 l 135 264 m 232 528 l 135 528 l 135 972 l 232 972 l 232 528 z "},"§":{"ha":786,"x_min":114,"x_max":750,"o":"m 508 54 q 479 117 508 92 q 406 160 450 142 q 311 199 363 179 q 216 245 260 218 q 143 312 172 272 q 114 414 114 351 q 168 531 114 482 q 303 613 222 581 q 249 646 274 628 q 204 687 224 664 q 174 739 185 710 q 163 806 163 768 q 181 881 163 847 q 235 939 200 915 q 317 976 269 963 q 422 989 364 989 q 558 978 497 989 q 668 951 618 967 q 653 870 663 907 q 628 792 644 833 l 581 792 l 508 899 q 477 908 492 906 q 440 910 463 910 q 371 885 393 910 q 349 831 349 861 q 378 767 349 793 q 453 720 408 742 q 549 677 497 699 q 646 627 601 656 q 720 559 690 599 q 750 463 750 519 q 734 396 750 426 q 693 340 718 365 q 637 294 668 314 q 575 258 606 274 q 660 193 625 231 q 694 94 694 156 q 618 -58 694 -3 q 403 -114 542 -114 q 269 -100 336 -114 q 149 -61 201 -86 q 166 23 151 -11 q 203 97 181 57 l 250 97 l 332 -19 q 363 -33 347 -31 q 394 -35 378 -35 q 474 -11 439 -35 q 508 54 508 13 m 564 418 q 548 472 564 449 q 506 514 532 496 q 447 547 481 532 q 376 576 413 561 q 323 522 346 554 q 300 456 300 490 q 317 402 300 425 q 360 361 333 379 q 422 328 388 343 q 494 299 457 314 q 543 355 522 322 q 564 418 564 388 z "},"¨":{"ha":722,"x_min":243,"x_max":750,"o":"m 243 915 q 271 986 243 960 q 344 1013 299 1013 q 417 986 389 1013 q 446 915 446 960 q 417 847 446 874 q 344 821 389 821 q 271 847 299 821 q 243 915 243 874 m 547 915 q 575 986 547 960 q 647 1013 603 1013 q 722 986 693 1013 q 750 915 750 960 q 722 847 750 874 q 647 821 693 821 q 575 847 603 821 q 547 915 547 874 z "},"©":{"ha":1129,"x_min":90,"x_max":1074,"o":"m 90 403 q 131 609 90 518 q 241 763 172 700 q 398 858 310 825 q 582 892 486 892 q 766 858 678 892 q 923 763 854 825 q 1033 609 992 700 q 1074 403 1074 518 q 1033 197 1074 288 q 923 43 992 106 q 766 -53 854 -19 q 582 -86 678 -86 q 392 -53 482 -86 q 235 43 303 -19 q 129 197 168 106 q 90 403 90 288 m 183 403 q 215 235 183 310 q 301 107 247 160 q 428 26 356 54 q 582 -3 500 -3 q 740 26 667 -3 q 866 107 813 54 q 950 235 919 160 q 981 403 981 310 q 947 574 981 499 q 859 701 914 649 q 732 781 804 753 q 582 808 660 808 q 422 780 494 808 q 296 699 349 751 q 213 571 243 646 q 183 403 183 496 m 729 306 l 776 306 q 783 277 779 294 q 788 239 786 260 q 791 197 790 218 q 790 160 792 176 q 717 127 767 140 q 611 114 667 114 q 487 133 543 114 q 390 188 431 151 q 326 279 349 225 q 303 404 303 333 q 328 531 303 476 q 395 621 354 585 q 488 676 436 657 q 593 694 540 694 q 708 683 660 694 q 786 653 757 671 q 786 619 788 640 q 782 576 785 599 q 776 531 779 553 q 768 494 772 508 l 721 494 l 679 610 q 653 617 669 617 q 618 618 636 618 q 523 565 556 618 q 490 404 490 513 q 498 319 490 358 q 522 251 506 279 q 565 206 539 222 q 629 190 592 190 q 668 194 651 190 q 690 203 685 197 l 729 306 z "},"ª":{"ha":639,"x_min":36,"x_max":601,"o":"m 374 660 q 346 617 364 640 q 303 573 328 593 q 248 539 279 553 q 179 525 217 525 q 72 567 108 525 q 36 679 36 608 q 61 807 36 750 q 128 904 86 864 q 223 966 169 944 q 333 988 276 988 q 399 979 367 988 q 456 956 432 971 l 576 986 l 601 972 l 528 618 l 597 604 l 596 565 q 517 537 568 549 q 421 525 465 525 q 376 541 389 525 q 367 581 364 557 l 379 660 l 374 660 m 260 619 q 297 631 276 619 q 335 661 317 643 q 369 701 353 679 q 393 740 385 722 l 422 882 q 387 897 403 890 q 350 904 371 904 q 297 890 322 904 q 250 851 271 876 q 217 786 229 825 q 204 697 204 747 q 218 640 204 661 q 260 619 232 619 z "},"«":{"ha":694,"x_min":53,"x_max":714,"o":"m 353 360 l 665 668 l 714 618 l 506 356 l 614 107 l 544 57 l 353 360 m 53 360 l 451 669 l 494 619 l 233 354 l 394 106 l 329 54 l 53 360 z "},"¬":{"ha":760,"x_min":76,"x_max":679,"o":"m 76 557 l 679 557 l 679 257 l 568 257 l 568 432 l 76 432 l 76 557 z "},"­":{"ha":575,"x_min":88,"x_max":514,"o":"m 115 454 l 514 454 l 486 329 l 88 329 l 115 454 z "},"®":{"ha":972,"x_min":160,"x_max":943,"o":"m 160 626 q 192 790 160 718 q 278 913 224 863 q 403 989 332 963 q 551 1015 474 1015 q 702 989 631 1015 q 827 913 774 963 q 912 790 881 863 q 943 626 943 718 q 911 463 943 535 q 825 340 879 390 q 700 264 771 290 q 551 238 629 238 q 401 264 472 238 q 276 340 329 290 q 191 463 222 390 q 160 626 160 535 m 246 626 q 270 497 246 554 q 336 398 294 439 q 433 335 378 357 q 551 314 489 314 q 673 335 617 314 q 770 397 729 357 q 834 495 811 438 q 857 626 857 553 q 833 756 857 699 q 767 854 808 814 q 669 917 725 894 q 551 939 614 939 q 429 917 485 939 q 333 854 374 894 q 269 756 292 814 q 246 626 246 699 m 508 488 q 536 483 526 486 q 556 475 546 479 l 556 429 l 364 429 l 364 475 q 413 488 388 483 l 413 786 q 386 791 397 788 q 364 801 375 794 l 364 844 l 436 844 q 496 847 461 844 q 553 850 531 850 q 675 823 628 850 q 722 733 722 796 q 696 663 722 690 q 631 624 669 636 q 653 586 643 603 q 675 553 664 569 q 701 522 686 538 q 735 488 715 506 l 767 471 l 767 429 l 678 429 l 639 444 q 587 528 604 486 q 554 610 569 569 l 508 610 l 508 488 m 546 793 q 524 792 531 793 q 508 789 517 792 l 508 663 l 549 663 q 600 679 582 663 q 617 733 618 696 q 597 779 615 765 q 546 793 578 793 z "},"¯":{"ha":682,"x_min":269,"x_max":699,"o":"m 269 860 l 290 957 l 699 957 l 678 860 l 269 860 z "},"°":{"ha":567,"x_min":169,"x_max":569,"o":"m 169 793 q 185 872 169 836 q 228 934 201 908 q 292 974 256 960 q 369 989 329 989 q 447 976 410 989 q 510 940 483 964 q 553 878 538 915 q 569 793 569 842 q 553 711 569 747 q 510 649 538 675 q 447 610 483 624 q 369 597 410 597 q 292 610 329 597 q 228 649 256 624 q 185 711 201 675 q 169 793 169 747 m 265 793 q 297 710 265 740 q 369 681 328 681 q 444 708 414 681 q 474 793 474 736 q 444 876 474 847 q 369 906 414 906 q 294 876 324 906 q 265 793 265 846 z "},"±":{"ha":778,"x_min":76,"x_max":701,"o":"m 76 700 l 333 700 l 333 972 l 444 972 l 444 700 l 701 700 l 701 589 l 444 589 l 444 406 l 333 406 l 333 589 l 76 589 l 76 700 m 76 339 l 701 339 l 701 228 l 76 228 l 76 339 z "},"²":{"ha":611,"x_min":115,"x_max":675,"o":"m 283 863 l 246 863 q 238 908 242 879 q 230 966 233 936 q 224 1022 226 996 q 224 1063 222 1049 q 334 1112 278 1094 q 471 1129 390 1129 q 628 1090 582 1129 q 675 988 675 1050 q 646 891 675 938 q 566 801 617 844 q 448 719 515 758 q 304 647 381 681 l 304 639 l 347 649 l 513 649 l 593 742 l 636 742 q 633 688 636 718 q 627 628 631 657 q 619 574 624 599 q 611 536 615 550 l 115 536 l 132 607 q 272 692 204 647 q 392 782 340 736 q 476 873 444 828 q 508 960 508 918 q 490 1008 508 992 q 429 1025 471 1025 q 390 1021 410 1025 q 354 1008 371 1017 l 283 863 z "},"³":{"ha":611,"x_min":118,"x_max":707,"o":"m 357 607 q 415 618 390 607 q 453 647 439 629 q 475 685 468 664 q 482 725 482 706 q 463 778 482 758 q 385 797 444 797 l 332 797 l 343 846 l 469 965 l 549 1024 l 549 1026 l 461 1021 l 363 1021 l 283 906 l 240 906 q 237 953 238 924 q 238 1013 236 982 q 241 1073 239 1044 q 246 1117 243 1101 l 707 1117 l 694 1054 l 529 914 l 465 871 l 464 869 l 508 875 q 608 840 568 872 q 649 743 649 807 q 633 658 649 699 q 579 588 617 618 q 481 541 542 558 q 333 524 421 524 q 274 528 306 524 q 213 542 243 533 q 158 563 183 551 q 118 588 133 575 l 197 735 l 235 735 q 258 683 246 717 q 278 621 269 649 q 357 607 303 607 z "},"´":{"ha":739,"x_min":332,"x_max":667,"o":"m 496 1060 q 533 1062 507 1063 q 586 1057 558 1061 q 637 1045 614 1053 q 667 1029 660 1038 l 667 996 l 388 781 l 332 811 l 496 1060 z "},"µ":{"ha":864,"x_min":61,"x_max":889,"o":"m 226 18 l 250 -224 l 239 -278 q 142 -289 186 -289 q 61 -278 99 -289 l 246 596 l 164 607 l 172 661 q 230 678 196 669 q 300 693 264 686 q 369 705 336 700 q 425 711 403 710 l 471 703 q 449 605 460 651 q 428 511 439 558 q 406 415 417 464 q 382 308 394 365 q 363 144 358 194 q 413 94 368 94 q 512 150 456 94 q 614 310 568 206 l 679 635 l 889 703 l 769 97 l 865 92 l 857 39 q 776 6 825 22 q 682 -14 726 -11 q 656 -15 668 -15 q 633 -11 644 -14 l 565 15 l 599 214 l 593 214 q 473 46 544 108 q 317 -17 401 -17 q 269 -7 289 -17 q 233 18 249 3 l 226 18 z "},"¶":{"ha":760,"x_min":140,"x_max":733,"o":"m 628 131 q 614 -23 628 38 q 573 -120 600 -83 q 506 -176 546 -157 q 415 -206 467 -194 q 347 -266 388 -246 q 263 -294 306 -286 l 240 -249 q 298 -217 271 -236 q 344 -167 325 -199 q 376 -87 364 -136 q 388 33 388 -39 l 388 431 q 299 444 343 431 q 220 490 256 458 q 163 572 185 521 q 140 694 140 622 q 158 803 140 753 q 209 892 175 854 q 296 951 243 929 q 419 972 349 972 l 733 972 l 733 913 q 685 893 710 901 q 628 879 660 885 l 628 131 m 443 -154 q 519 -65 500 -136 q 539 131 539 7 l 539 886 l 478 886 l 478 33 q 470 -70 478 -22 q 443 -154 463 -118 z "},"·":{"ha":326,"x_min":69,"x_max":306,"o":"m 69 446 q 101 526 69 496 q 186 557 133 557 q 272 526 239 557 q 306 446 306 496 q 272 366 306 396 q 186 336 239 336 q 101 366 133 336 q 69 446 69 396 z "},"¸":{"ha":618,"x_min":97,"x_max":396,"o":"m 260 -94 q 365 -123 335 -99 q 396 -193 394 -147 q 368 -267 396 -236 q 297 -317 340 -297 q 199 -347 253 -337 q 97 -357 146 -357 l 97 -303 q 144 -292 121 -299 q 184 -274 167 -285 q 212 -250 201 -264 q 222 -218 222 -236 q 207 -178 221 -194 q 149 -158 193 -162 l 233 1 l 319 1 l 260 -94 z "},"¹":{"ha":611,"x_min":140,"x_max":586,"o":"m 576 536 l 140 536 l 150 578 q 228 611 192 597 q 301 632 265 625 l 365 931 l 386 993 q 347 986 368 989 q 305 983 326 983 q 263 983 283 982 q 226 985 243 983 l 239 1043 q 378 1076 306 1051 q 508 1129 451 1101 l 564 1129 l 458 632 q 586 578 529 615 l 576 536 z "},"º":{"ha":619,"x_min":36,"x_max":583,"o":"m 36 700 q 61 813 36 760 q 130 905 86 865 q 233 967 174 944 q 360 989 292 989 q 524 940 465 989 q 583 807 583 890 q 556 684 583 738 q 482 593 528 631 q 378 536 436 556 q 260 517 319 517 q 173 529 214 517 q 101 566 132 542 q 53 624 71 590 q 36 700 36 658 m 201 683 q 219 617 201 646 q 278 588 236 588 q 328 603 303 588 q 374 648 353 618 q 407 724 394 678 q 419 832 419 769 q 403 891 419 864 q 344 918 388 918 q 294 901 319 918 q 248 853 268 885 q 215 779 228 822 q 201 683 201 736 z "},"»":{"ha":694,"x_min":36,"x_max":697,"o":"m 397 364 l 85 56 l 36 106 l 244 368 l 136 617 l 206 667 l 397 364 m 697 364 l 299 54 l 256 104 l 517 369 l 356 618 l 421 669 l 697 364 z "},"¼":{"ha":1324,"x_min":85,"x_max":1296,"o":"m 521 392 l 85 392 l 94 433 q 173 467 136 453 q 246 488 210 481 l 310 786 l 331 849 q 292 842 313 844 q 249 838 271 839 q 208 838 228 838 q 171 840 188 839 l 183 899 q 323 932 250 907 q 453 985 396 957 l 508 985 l 403 488 q 531 433 474 471 l 521 392 m 1168 993 l 1235 935 l 311 -18 l 246 42 l 1168 993 m 1208 0 l 868 0 l 878 42 q 930 65 901 54 q 988 82 958 76 l 1004 157 l 686 157 l 696 208 l 1156 593 l 1253 593 l 1178 240 l 1296 240 l 1278 157 l 1160 157 l 1144 82 q 1183 67 1164 76 q 1218 42 1201 57 l 1208 0 m 1051 383 l 1078 443 l 1074 443 l 1015 383 l 876 263 l 819 231 l 896 240 l 1021 240 l 1051 383 z "},"½":{"ha":1425,"x_min":85,"x_max":1369,"o":"m 521 392 l 85 392 l 94 433 q 173 467 136 453 q 246 488 210 481 l 310 786 l 331 849 q 292 842 313 844 q 249 838 271 839 q 208 838 228 838 q 171 840 188 839 l 183 899 q 323 932 250 907 q 453 985 396 957 l 508 985 l 403 488 q 531 433 474 471 l 521 392 m 1160 993 l 1226 935 l 303 -18 l 238 42 l 1160 993 m 978 326 l 940 326 q 932 372 936 343 q 924 430 928 400 q 919 486 921 460 q 918 526 917 513 q 1028 576 972 558 q 1165 593 1085 593 q 1323 553 1276 593 q 1369 451 1369 514 q 1340 355 1369 401 q 1260 265 1311 308 q 1142 183 1210 222 q 999 111 1075 144 l 999 103 l 1042 113 l 1207 113 l 1288 206 l 1331 206 q 1328 151 1331 182 q 1322 92 1325 121 q 1314 38 1318 63 q 1306 0 1310 14 l 810 0 l 826 71 q 967 156 899 111 q 1087 246 1035 200 q 1171 337 1139 292 q 1203 424 1203 382 q 1184 472 1203 456 q 1124 489 1165 489 q 1085 485 1104 489 q 1049 472 1065 481 l 978 326 z "},"¾":{"ha":1354,"x_min":83,"x_max":1329,"o":"m 322 463 q 380 474 356 463 q 419 502 404 485 q 440 540 433 519 q 447 581 447 561 q 428 633 447 614 q 350 653 410 653 l 297 653 l 308 701 l 435 821 l 514 879 l 514 882 l 426 876 l 328 876 l 249 761 l 206 761 q 202 808 203 779 q 203 869 201 838 q 206 928 204 900 q 211 972 208 957 l 672 972 l 660 910 l 494 769 l 431 726 l 429 725 l 474 731 q 574 695 533 728 q 614 599 614 663 q 598 514 614 554 q 544 444 582 474 q 447 397 507 414 q 299 379 386 379 q 240 384 271 379 q 178 398 208 389 q 124 419 149 407 q 83 443 99 431 l 163 590 l 200 590 q 223 538 211 572 q 243 476 235 504 q 322 463 268 463 m 1193 993 l 1260 935 l 336 -18 l 271 42 l 1193 993 m 1242 0 l 901 0 l 911 42 q 963 65 935 54 q 1021 82 992 76 l 1038 157 l 719 157 l 729 208 l 1189 593 l 1286 593 l 1211 240 l 1329 240 l 1311 157 l 1193 157 l 1178 82 q 1216 67 1197 76 q 1251 42 1235 57 l 1242 0 m 1085 383 l 1111 443 l 1107 443 l 1049 383 l 910 263 l 853 231 l 929 240 l 1054 240 l 1085 383 z "},"¿":{"ha":675,"x_min":-33,"x_max":538,"o":"m 442 4 l 489 4 q 506 -69 496 -24 q 519 -160 517 -114 q 520 -190 521 -175 q 518 -218 519 -204 q 390 -269 460 -250 q 231 -289 321 -289 q 37 -239 107 -289 q -33 -97 -33 -189 q -5 19 -33 -29 q 67 105 24 68 q 163 173 111 142 q 262 239 215 204 q 344 316 308 274 q 389 418 379 358 l 435 418 q 425 300 442 351 q 379 207 408 249 q 313 131 350 165 q 244 61 276 96 q 191 -10 213 26 q 169 -92 169 -47 q 199 -173 169 -147 q 278 -199 229 -199 q 371 -179 344 -199 l 442 4 m 301 600 q 333 681 301 650 q 418 711 365 711 q 504 681 471 711 q 538 600 538 650 q 504 520 538 550 q 418 490 471 490 q 333 520 365 490 q 301 600 301 550 z "},"À":{"ha":1006,"x_min":-61,"x_max":961,"o":"m 285 0 l -61 0 l -51 53 q 1 77 -26 67 q 57 93 29 88 l 607 989 l 708 989 l 865 93 q 917 76 892 88 q 961 53 943 65 l 950 0 l 522 0 l 532 53 q 594 77 561 67 q 656 93 626 88 l 622 314 l 315 314 l 183 93 q 242 78 213 89 q 294 53 271 68 l 285 0 m 363 404 l 611 404 l 572 669 l 572 789 l 569 789 l 517 667 l 363 404 m 728 1061 l 681 1035 l 353 1168 l 353 1196 q 383 1219 357 1208 q 441 1237 408 1229 q 505 1248 474 1244 q 551 1247 536 1251 l 728 1061 z "},"Á":{"ha":1006,"x_min":-61,"x_max":983,"o":"m 285 0 l -61 0 l -51 53 q 1 77 -26 67 q 57 93 29 88 l 607 989 l 708 989 l 865 93 q 917 76 892 88 q 961 53 943 65 l 950 0 l 522 0 l 532 53 q 594 77 561 67 q 656 93 626 88 l 622 314 l 315 314 l 183 93 q 242 78 213 89 q 294 53 271 68 l 285 0 m 363 404 l 611 404 l 572 669 l 572 789 l 569 789 l 517 667 l 363 404 m 799 1247 q 849 1244 821 1249 q 905 1233 878 1240 q 953 1215 932 1225 q 983 1196 975 1206 l 983 1168 l 640 1035 l 601 1068 l 799 1247 z "},"Â":{"ha":1006,"x_min":-61,"x_max":961,"o":"m 285 0 l -61 0 l -51 53 q 1 77 -26 67 q 57 93 29 88 l 607 989 l 708 989 l 865 93 q 917 76 892 88 q 961 53 943 65 l 950 0 l 522 0 l 532 53 q 594 77 561 67 q 656 93 626 88 l 622 314 l 315 314 l 183 93 q 242 78 213 89 q 294 53 271 68 l 285 0 m 363 404 l 611 404 l 572 669 l 572 789 l 569 789 l 517 667 l 363 404 m 469 1032 l 431 1071 l 669 1233 q 715 1240 686 1243 q 756 1233 742 1240 l 867 1075 l 828 1033 l 683 1111 l 469 1032 z "},"Ã":{"ha":1006,"x_min":-61,"x_max":961,"o":"m 285 0 l -61 0 l -51 53 q 1 77 -26 67 q 57 93 29 88 l 607 989 l 708 989 l 865 93 q 917 76 892 88 q 961 53 943 65 l 950 0 l 522 0 l 532 53 q 594 77 561 67 q 656 93 626 88 l 622 314 l 315 314 l 183 93 q 242 78 213 89 q 294 53 271 68 l 285 0 m 363 404 l 611 404 l 572 669 l 572 789 l 569 789 l 517 667 l 363 404 m 929 1135 q 846 1067 885 1090 q 757 1044 807 1044 q 708 1052 731 1044 q 663 1068 685 1060 q 619 1084 640 1076 q 576 1092 599 1092 q 534 1084 557 1092 q 489 1057 511 1076 l 450 1122 q 638 1217 556 1217 q 685 1210 663 1217 q 729 1194 708 1203 q 771 1179 750 1186 q 814 1172 792 1172 q 854 1178 832 1172 q 899 1200 876 1185 l 929 1135 z "},"Ä":{"ha":1006,"x_min":-61,"x_max":961,"o":"m 285 0 l -61 0 l -51 53 q 1 77 -26 67 q 57 93 29 88 l 607 989 l 708 989 l 865 93 q 917 76 892 88 q 961 53 943 65 l 950 0 l 522 0 l 532 53 q 594 77 561 67 q 656 93 626 88 l 622 314 l 315 314 l 183 93 q 242 78 213 89 q 294 53 271 68 l 285 0 m 363 404 l 611 404 l 572 669 l 572 789 l 569 789 l 517 667 l 363 404 m 385 1101 q 417 1168 385 1146 q 497 1190 449 1190 q 578 1168 546 1190 q 610 1101 610 1146 q 578 1041 610 1063 q 497 1019 546 1019 q 417 1041 449 1019 q 385 1101 385 1063 m 725 1101 q 758 1168 725 1146 q 839 1190 790 1190 q 919 1168 888 1190 q 951 1101 951 1146 q 919 1041 951 1063 q 839 1019 888 1019 q 758 1041 790 1019 q 725 1101 725 1063 z "},"Å":{"ha":1006,"x_min":-61,"x_max":961,"o":"m 494 1079 q 510 1134 494 1108 q 553 1178 525 1160 q 620 1208 581 1197 q 708 1219 660 1219 q 815 1196 775 1219 q 856 1119 856 1172 q 813 1031 856 1067 q 708 985 771 994 l 865 93 q 917 76 892 88 q 961 53 943 65 l 950 0 l 522 0 l 532 53 q 594 77 561 67 q 656 93 626 88 l 622 314 l 315 314 l 183 93 q 242 78 213 89 q 294 53 271 68 l 285 0 l -61 0 l -51 53 q 1 77 -26 67 q 57 93 29 88 l 603 981 q 494 1079 494 993 m 363 404 l 611 404 l 572 669 l 572 789 l 569 789 l 517 667 l 363 404 m 610 1090 q 627 1058 610 1068 q 665 1047 644 1047 q 719 1063 699 1047 q 740 1100 740 1078 q 725 1139 740 1128 q 683 1150 710 1150 q 631 1134 651 1150 q 610 1090 610 1118 z "},"Æ":{"ha":1324,"x_min":-61,"x_max":1390,"o":"m 1390 972 q 1355 843 1376 910 q 1310 718 1333 776 l 1251 718 l 1222 882 l 963 882 l 890 542 l 1061 542 l 1144 649 l 1188 649 q 1178 576 1185 615 q 1164 496 1172 536 q 1145 416 1156 456 q 1124 342 1135 376 l 1079 342 l 1042 451 l 871 451 l 794 90 l 1065 90 l 1176 267 l 1235 267 q 1233 207 1235 240 q 1227 138 1231 174 q 1218 67 1224 103 q 1206 0 1213 31 l 461 0 l 471 53 q 526 75 496 64 q 588 93 556 86 l 640 339 l 388 339 l 196 93 q 293 53 249 81 l 283 0 l -61 0 l -51 53 q 1 77 -26 67 q 56 93 29 88 l 706 886 q 667 901 686 893 q 632 919 647 908 l 643 972 l 1390 972 m 457 429 l 661 429 l 750 825 l 747 825 l 672 700 l 457 429 z "},"Ç":{"ha":906,"x_min":82,"x_max":965,"o":"m 779 292 l 838 292 q 836 238 838 269 q 831 172 835 207 q 821 101 826 136 q 808 39 815 67 q 750 15 782 25 q 685 -2 718 4 q 619 -12 651 -8 q 561 -17 588 -15 l 513 -97 q 628 -128 593 -100 q 663 -204 663 -156 q 627 -293 663 -257 q 542 -352 592 -329 q 436 -385 492 -375 q 340 -396 381 -396 l 340 -332 q 390 -322 365 -329 q 434 -303 414 -315 q 466 -273 454 -290 q 478 -232 478 -256 q 463 -192 476 -207 q 400 -174 449 -176 l 475 -14 q 292 33 367 -4 q 171 124 218 69 q 103 243 124 178 q 82 374 82 308 q 122 624 82 511 q 240 819 163 738 q 428 944 317 900 q 682 989 540 989 q 847 976 774 989 q 965 940 919 963 q 951 883 961 918 q 929 810 942 849 q 903 735 917 772 q 876 674 889 699 l 818 674 l 786 883 q 744 894 774 890 q 686 899 715 899 q 538 860 606 899 q 422 750 471 821 q 345 578 372 679 q 318 354 318 478 q 340 223 318 276 q 398 136 363 169 q 476 88 433 103 q 558 74 518 74 q 628 81 599 74 q 671 97 657 89 l 779 292 z "},"È":{"ha":836,"x_min":-33,"x_max":903,"o":"m 903 972 q 868 843 889 910 q 822 718 847 776 l 764 718 l 735 882 l 475 882 l 403 542 l 574 542 l 657 649 l 700 649 q 676 497 693 581 q 636 342 658 414 l 592 342 l 554 451 l 383 451 l 308 90 l 578 90 l 689 267 l 747 267 q 745 208 747 242 q 740 139 743 175 q 731 67 736 103 q 718 0 725 31 l -33 0 l -24 53 q 35 76 4 65 q 100 93 67 88 l 267 879 q 211 895 239 885 q 161 919 183 906 l 172 972 l 903 972 m 674 1061 l 626 1035 l 299 1168 l 299 1196 q 328 1219 303 1208 q 387 1237 354 1229 q 451 1248 419 1244 q 497 1247 482 1251 l 674 1061 z "},"É":{"ha":836,"x_min":-33,"x_max":903,"o":"m 903 972 q 868 843 889 910 q 822 718 847 776 l 764 718 l 735 882 l 475 882 l 403 542 l 574 542 l 657 649 l 700 649 q 676 497 693 581 q 636 342 658 414 l 592 342 l 554 451 l 383 451 l 308 90 l 578 90 l 689 267 l 747 267 q 745 208 747 242 q 740 139 743 175 q 731 67 736 103 q 718 0 725 31 l -33 0 l -24 53 q 35 76 4 65 q 100 93 67 88 l 267 879 q 211 895 239 885 q 161 919 183 906 l 172 972 l 903 972 m 664 1247 q 715 1244 686 1249 q 770 1233 743 1240 q 819 1215 797 1225 q 849 1196 840 1206 l 849 1168 l 506 1035 l 467 1068 l 664 1247 z "},"Ê":{"ha":836,"x_min":-33,"x_max":903,"o":"m 903 972 q 868 843 889 910 q 822 718 847 776 l 764 718 l 735 882 l 475 882 l 403 542 l 574 542 l 657 649 l 700 649 q 676 497 693 581 q 636 342 658 414 l 592 342 l 554 451 l 383 451 l 308 90 l 578 90 l 689 267 l 747 267 q 745 208 747 242 q 740 139 743 175 q 731 67 736 103 q 718 0 725 31 l -33 0 l -24 53 q 35 76 4 65 q 100 93 67 88 l 267 879 q 211 895 239 885 q 161 919 183 906 l 172 972 l 903 972 m 400 1032 l 361 1071 l 600 1233 q 646 1240 617 1243 q 686 1233 672 1240 l 797 1075 l 758 1033 l 614 1111 l 400 1032 z "},"Ë":{"ha":836,"x_min":-33,"x_max":903,"o":"m 903 972 q 868 843 889 910 q 822 718 847 776 l 764 718 l 735 882 l 475 882 l 403 542 l 574 542 l 657 649 l 700 649 q 676 497 693 581 q 636 342 658 414 l 592 342 l 554 451 l 383 451 l 308 90 l 578 90 l 689 267 l 747 267 q 745 208 747 242 q 740 139 743 175 q 731 67 736 103 q 718 0 725 31 l -33 0 l -24 53 q 35 76 4 65 q 100 93 67 88 l 267 879 q 211 895 239 885 q 161 919 183 906 l 172 972 l 903 972 m 290 1101 q 322 1168 290 1146 q 403 1190 354 1190 q 483 1168 451 1190 q 515 1101 515 1146 q 483 1041 515 1063 q 403 1019 451 1019 q 322 1041 354 1019 q 290 1101 290 1063 m 631 1101 q 663 1168 631 1146 q 744 1190 696 1190 q 825 1168 793 1190 q 857 1101 857 1146 q 825 1041 857 1063 q 744 1019 793 1019 q 663 1041 696 1019 q 631 1101 631 1063 z "},"Ì":{"ha":513,"x_min":-19,"x_max":619,"o":"m 414 0 l -19 0 l -10 53 q 113 93 56 83 l 279 879 q 224 894 251 883 q 175 919 197 904 l 186 972 l 619 972 l 608 919 q 548 894 581 904 q 488 879 515 883 l 321 93 q 375 78 347 88 q 424 53 403 68 l 414 0 m 532 1061 l 485 1035 l 157 1168 l 157 1196 q 187 1219 161 1208 q 245 1237 213 1229 q 309 1248 278 1244 q 356 1247 340 1251 l 532 1061 z "},"Í":{"ha":513,"x_min":-19,"x_max":643,"o":"m 414 0 l -19 0 l -10 53 q 113 93 56 83 l 279 879 q 224 894 251 883 q 175 919 197 904 l 186 972 l 619 972 l 608 919 q 548 894 581 904 q 488 879 515 883 l 321 93 q 375 78 347 88 q 424 53 403 68 l 414 0 m 458 1247 q 509 1244 481 1249 q 565 1233 538 1240 q 613 1215 592 1225 q 643 1196 635 1206 l 643 1168 l 300 1035 l 261 1068 l 458 1247 z "},"Î":{"ha":513,"x_min":-19,"x_max":619,"o":"m 414 0 l -19 0 l -10 53 q 113 93 56 83 l 279 879 q 224 894 251 883 q 175 919 197 904 l 186 972 l 619 972 l 608 919 q 548 894 581 904 q 488 879 515 883 l 321 93 q 375 78 347 88 q 424 53 403 68 l 414 0 m 222 1032 l 183 1071 l 422 1233 q 468 1240 439 1243 q 508 1233 494 1240 l 619 1075 l 581 1033 l 436 1111 l 222 1032 z "},"Ï":{"ha":513,"x_min":-19,"x_max":699,"o":"m 414 0 l -19 0 l -10 53 q 113 93 56 83 l 279 879 q 224 894 251 883 q 175 919 197 904 l 186 972 l 619 972 l 608 919 q 548 894 581 904 q 488 879 515 883 l 321 93 q 375 78 347 88 q 424 53 403 68 l 414 0 m 132 1101 q 164 1168 132 1146 q 244 1190 196 1190 q 325 1168 293 1190 q 357 1101 357 1146 q 325 1041 357 1063 q 244 1019 293 1019 q 164 1041 196 1019 q 132 1101 132 1063 m 472 1101 q 505 1168 472 1146 q 586 1190 538 1190 q 667 1168 635 1190 q 699 1101 699 1146 q 667 1041 699 1063 q 586 1019 635 1019 q 505 1041 538 1019 q 472 1101 472 1063 z "},"Ð":{"ha":1019,"x_min":-33,"x_max":1026,"o":"m -33 0 l -24 53 q 35 77 3 67 q 100 93 67 88 l 176 457 l 56 457 l 74 540 l 194 540 l 267 879 q 208 897 235 886 q 161 919 181 907 l 172 972 l 333 972 q 392 974 357 972 q 466 977 428 975 q 540 981 504 979 q 600 983 575 983 q 798 958 717 983 q 930 888 879 933 q 1003 778 981 842 q 1026 639 1026 715 q 1013 481 1026 560 q 967 331 999 403 q 885 196 935 258 q 762 87 835 133 q 593 14 689 40 q 374 -12 497 -12 q 324 -10 356 -12 q 257 -6 293 -8 q 185 -2 221 -4 q 124 0 150 0 l -33 0 m 568 893 q 515 892 543 893 q 468 888 488 890 l 393 540 l 604 540 l 586 457 l 376 457 l 297 83 q 350 79 318 81 q 397 78 382 78 q 586 131 510 78 q 710 269 663 185 q 777 456 757 353 q 797 657 797 558 q 786 758 797 714 q 749 833 775 803 q 678 878 722 863 q 568 893 633 893 z "},"Ñ":{"ha":1049,"x_min":-33,"x_max":1169,"o":"m 826 972 l 1169 972 l 1158 919 q 1093 881 1126 896 q 1028 858 1060 867 l 842 -17 l 729 -17 l 385 692 l 351 799 l 347 799 l 335 688 l 211 108 q 267 85 236 101 q 318 53 299 69 l 308 0 l -33 0 l -24 53 q 106 108 39 92 l 267 867 q 216 892 243 876 q 174 921 189 907 l 183 972 l 478 972 l 757 394 l 799 275 l 804 275 l 825 394 l 922 858 q 863 885 892 869 q 815 919 835 901 l 826 972 m 914 1135 q 831 1067 869 1090 q 742 1044 792 1044 q 692 1052 715 1044 q 647 1068 669 1060 q 604 1084 625 1076 q 561 1092 583 1092 q 519 1084 542 1092 q 474 1057 496 1076 l 435 1122 q 622 1217 540 1217 q 670 1210 647 1217 q 714 1194 693 1203 q 756 1179 735 1186 q 799 1172 776 1172 q 839 1178 817 1172 q 883 1200 861 1185 l 914 1135 z "},"Ò":{"ha":1043,"x_min":82,"x_max":1050,"o":"m 82 376 q 122 616 82 504 q 235 810 161 728 q 417 941 310 893 q 661 989 525 989 q 826 962 754 989 q 949 884 899 935 q 1024 761 999 833 q 1050 599 1050 689 q 1015 374 1050 485 q 910 177 981 264 q 733 37 839 90 q 483 -17 626 -17 q 313 13 388 -17 q 186 96 238 43 q 108 221 135 149 q 82 376 82 293 m 318 350 q 370 142 318 211 q 511 74 422 74 q 647 125 590 74 q 742 256 704 176 q 797 435 779 336 q 814 631 814 535 q 772 826 814 754 q 632 899 729 899 q 534 874 578 899 q 455 808 490 850 q 394 712 419 767 q 351 596 368 657 q 326 472 335 535 q 318 350 318 408 m 796 1061 l 749 1035 l 421 1168 l 421 1196 q 451 1219 425 1208 q 509 1237 476 1229 q 573 1248 542 1244 q 619 1247 604 1251 l 796 1061 z "},"Ó":{"ha":1043,"x_min":82,"x_max":1050,"o":"m 82 376 q 122 616 82 504 q 235 810 161 728 q 417 941 310 893 q 661 989 525 989 q 826 962 754 989 q 949 884 899 935 q 1024 761 999 833 q 1050 599 1050 689 q 1015 374 1050 485 q 910 177 981 264 q 733 37 839 90 q 483 -17 626 -17 q 313 13 388 -17 q 186 96 238 43 q 108 221 135 149 q 82 376 82 293 m 318 350 q 370 142 318 211 q 511 74 422 74 q 647 125 590 74 q 742 256 704 176 q 797 435 779 336 q 814 631 814 535 q 772 826 814 754 q 632 899 729 899 q 534 874 578 899 q 455 808 490 850 q 394 712 419 767 q 351 596 368 657 q 326 472 335 535 q 318 350 318 408 m 736 1247 q 787 1244 758 1249 q 842 1233 815 1240 q 891 1215 869 1225 q 921 1196 913 1206 l 921 1168 l 578 1035 l 539 1068 l 736 1247 z "},"Ô":{"ha":1043,"x_min":82,"x_max":1050,"o":"m 82 376 q 122 616 82 504 q 235 810 161 728 q 417 941 310 893 q 661 989 525 989 q 826 962 754 989 q 949 884 899 935 q 1024 761 999 833 q 1050 599 1050 689 q 1015 374 1050 485 q 910 177 981 264 q 733 37 839 90 q 483 -17 626 -17 q 313 13 388 -17 q 186 96 238 43 q 108 221 135 149 q 82 376 82 293 m 318 350 q 370 142 318 211 q 511 74 422 74 q 647 125 590 74 q 742 256 704 176 q 797 435 779 336 q 814 631 814 535 q 772 826 814 754 q 632 899 729 899 q 534 874 578 899 q 455 808 490 850 q 394 712 419 767 q 351 596 368 657 q 326 472 335 535 q 318 350 318 408 m 489 1032 l 450 1071 l 689 1233 q 735 1240 706 1243 q 775 1233 761 1240 l 886 1075 l 847 1033 l 703 1111 l 489 1032 z "},"Õ":{"ha":1043,"x_min":82,"x_max":1050,"o":"m 82 376 q 122 616 82 504 q 235 810 161 728 q 417 941 310 893 q 661 989 525 989 q 826 962 754 989 q 949 884 899 935 q 1024 761 999 833 q 1050 599 1050 689 q 1015 374 1050 485 q 910 177 981 264 q 733 37 839 90 q 483 -17 626 -17 q 313 13 388 -17 q 186 96 238 43 q 108 221 135 149 q 82 376 82 293 m 318 350 q 370 142 318 211 q 511 74 422 74 q 647 125 590 74 q 742 256 704 176 q 797 435 779 336 q 814 631 814 535 q 772 826 814 754 q 632 899 729 899 q 534 874 578 899 q 455 808 490 850 q 394 712 419 767 q 351 596 368 657 q 326 472 335 535 q 318 350 318 408 m 921 1135 q 838 1067 876 1090 q 749 1044 799 1044 q 699 1052 722 1044 q 654 1068 676 1060 q 611 1084 632 1076 q 568 1092 590 1092 q 526 1084 549 1092 q 481 1057 503 1076 l 442 1122 q 629 1217 547 1217 q 677 1210 654 1217 q 721 1194 700 1203 q 763 1179 742 1186 q 806 1172 783 1172 q 846 1178 824 1172 q 890 1200 868 1185 l 921 1135 z "},"Ö":{"ha":1043,"x_min":82,"x_max":1050,"o":"m 82 376 q 122 616 82 504 q 235 810 161 728 q 417 941 310 893 q 661 989 525 989 q 826 962 754 989 q 949 884 899 935 q 1024 761 999 833 q 1050 599 1050 689 q 1015 374 1050 485 q 910 177 981 264 q 733 37 839 90 q 483 -17 626 -17 q 313 13 388 -17 q 186 96 238 43 q 108 221 135 149 q 82 376 82 293 m 318 350 q 370 142 318 211 q 511 74 422 74 q 647 125 590 74 q 742 256 704 176 q 797 435 779 336 q 814 631 814 535 q 772 826 814 754 q 632 899 729 899 q 534 874 578 899 q 455 808 490 850 q 394 712 419 767 q 351 596 368 657 q 326 472 335 535 q 318 350 318 408 m 393 1101 q 425 1168 393 1146 q 506 1190 457 1190 q 586 1168 554 1190 q 618 1101 618 1146 q 586 1041 618 1063 q 506 1019 554 1019 q 425 1041 457 1019 q 393 1101 393 1063 m 733 1101 q 766 1168 733 1146 q 847 1190 799 1190 q 928 1168 896 1190 q 960 1101 960 1146 q 928 1041 960 1063 q 847 1019 896 1019 q 766 1041 799 1019 q 733 1101 733 1063 z "},"×":{"ha":778,"x_min":126,"x_max":650,"o":"m 126 296 l 308 478 l 129 657 l 208 735 l 388 557 l 568 738 l 647 660 l 465 478 l 650 293 l 571 214 l 386 399 l 206 218 l 126 296 z "},"Ø":{"ha":1043,"x_min":82,"x_max":1050,"o":"m 82 376 q 122 616 82 504 q 235 810 161 728 q 417 941 310 893 q 661 989 525 989 q 783 975 728 989 q 883 935 839 961 l 936 997 l 1006 940 l 954 879 q 1026 757 1003 828 q 1050 599 1050 686 q 1015 374 1050 485 q 910 177 981 264 q 733 37 839 90 q 483 -17 626 -17 q 354 0 413 -17 q 250 46 296 17 l 189 -25 l 121 35 l 179 103 q 106 225 131 156 q 82 376 82 294 m 511 74 q 638 115 585 74 q 726 222 690 156 q 781 372 761 289 q 807 540 800 456 q 796 692 811 619 l 358 175 q 511 74 406 74 m 632 899 q 503 856 558 899 q 410 747 449 814 q 351 597 372 679 q 325 433 331 514 q 336 288 321 356 l 774 806 q 719 874 754 850 q 632 899 685 899 z "},"Ù":{"ha":993,"x_min":106,"x_max":1132,"o":"m 156 972 l 583 972 l 572 919 q 458 879 522 890 l 349 361 q 369 164 321 225 q 522 103 418 103 q 685 159 619 103 q 779 351 750 215 l 889 872 q 826 892 857 879 q 776 919 794 904 l 788 972 l 1132 972 l 1121 919 q 1062 890 1096 901 q 996 872 1028 879 l 885 350 q 748 79 847 171 q 464 -12 649 -12 q 185 92 265 -12 q 144 376 106 196 l 250 879 q 192 894 222 885 q 144 919 163 904 l 156 972 m 769 1061 l 722 1035 l 394 1168 l 394 1196 q 424 1219 399 1208 q 483 1237 450 1229 q 547 1248 515 1244 q 593 1247 578 1251 l 769 1061 z "},"Ú":{"ha":993,"x_min":106,"x_max":1132,"o":"m 156 972 l 583 972 l 572 919 q 458 879 522 890 l 349 361 q 369 164 321 225 q 522 103 418 103 q 685 159 619 103 q 779 351 750 215 l 889 872 q 826 892 857 879 q 776 919 794 904 l 788 972 l 1132 972 l 1121 919 q 1062 890 1096 901 q 996 872 1028 879 l 885 350 q 748 79 847 171 q 464 -12 649 -12 q 185 92 265 -12 q 144 376 106 196 l 250 879 q 192 894 222 885 q 144 919 163 904 l 156 972 m 840 1247 q 891 1244 863 1249 q 947 1233 919 1240 q 995 1215 974 1225 q 1025 1196 1017 1206 l 1025 1168 l 682 1035 l 643 1068 l 840 1247 z "},"Û":{"ha":993,"x_min":106,"x_max":1132,"o":"m 156 972 l 583 972 l 572 919 q 458 879 522 890 l 349 361 q 369 164 321 225 q 522 103 418 103 q 685 159 619 103 q 779 351 750 215 l 889 872 q 826 892 857 879 q 776 919 794 904 l 788 972 l 1132 972 l 1121 919 q 1062 890 1096 901 q 996 872 1028 879 l 885 350 q 748 79 847 171 q 464 -12 649 -12 q 185 92 265 -12 q 144 376 106 196 l 250 879 q 192 894 222 885 q 144 919 163 904 l 156 972 m 497 1032 l 458 1071 l 697 1233 q 743 1240 714 1243 q 783 1233 769 1240 l 894 1075 l 856 1033 l 711 1111 l 497 1032 z "},"Ü":{"ha":993,"x_min":106,"x_max":1132,"o":"m 156 972 l 583 972 l 572 919 q 458 879 522 890 l 349 361 q 369 164 321 225 q 522 103 418 103 q 685 159 619 103 q 779 351 750 215 l 889 872 q 826 892 857 879 q 776 919 794 904 l 788 972 l 1132 972 l 1121 919 q 1062 890 1096 901 q 996 872 1028 879 l 885 350 q 748 79 847 171 q 464 -12 649 -12 q 185 92 265 -12 q 144 376 106 196 l 250 879 q 192 894 222 885 q 144 919 163 904 l 156 972 m 414 1101 q 446 1168 414 1146 q 526 1190 478 1190 q 607 1168 575 1190 q 639 1101 639 1146 q 607 1041 639 1063 q 526 1019 575 1019 q 446 1041 478 1019 q 414 1101 414 1063 m 754 1101 q 787 1168 754 1146 q 868 1190 819 1190 q 949 1168 917 1190 q 981 1101 981 1146 q 949 1041 981 1063 q 868 1019 917 1019 q 787 1041 819 1019 q 754 1101 754 1063 z "},"Ý":{"ha":965,"x_min":133,"x_max":1115,"o":"m 769 972 l 1115 972 l 1104 919 q 1053 895 1081 906 q 997 879 1025 885 l 626 407 l 560 93 q 611 78 586 89 q 657 53 636 67 l 646 0 l 218 0 l 229 53 q 288 76 256 65 q 351 93 319 88 l 418 406 l 238 879 q 180 895 207 885 q 133 919 153 906 l 144 972 l 596 972 l 585 919 q 538 897 565 908 q 474 879 510 886 l 594 506 l 860 879 q 804 897 831 886 q 758 919 778 907 l 769 972 m 793 1247 q 844 1244 815 1249 q 899 1233 872 1240 q 948 1215 926 1225 q 978 1196 969 1206 l 978 1168 l 635 1035 l 596 1068 l 793 1247 z "},"Þ":{"ha":874,"x_min":-33,"x_max":906,"o":"m 307 88 q 378 72 343 83 q 438 46 414 60 l 429 0 l -33 0 l -25 46 q 99 86 36 75 l 268 886 q 213 901 240 890 q 163 926 185 913 l 172 972 l 607 972 l 597 926 q 537 901 569 911 q 476 886 504 890 l 464 824 q 526 828 493 826 q 585 831 558 831 q 821 775 736 831 q 906 603 906 719 q 872 451 906 518 q 777 336 838 383 q 633 264 717 289 q 450 239 549 239 q 428 239 443 239 q 395 240 413 239 q 363 241 378 240 q 340 243 347 242 l 307 88 m 521 740 q 476 738 493 740 q 444 732 460 736 l 358 335 q 396 330 371 331 q 436 329 421 329 q 535 349 492 329 q 610 403 579 368 q 658 487 642 439 q 675 592 675 535 q 641 702 675 664 q 521 740 607 740 z "},"ß":{"ha":918,"x_min":-101,"x_max":875,"o":"m 417 522 q 440 632 417 585 q 500 714 463 679 q 585 772 538 749 q 685 811 633 796 q 668 924 700 882 q 569 965 636 965 q 511 957 542 965 q 453 927 481 949 q 405 866 426 906 q 374 764 383 826 l 257 60 q 200 -104 243 -39 q 105 -209 157 -169 q 0 -268 53 -249 q -86 -294 -53 -287 l -101 -247 q -60 -220 -85 -239 q -10 -168 -35 -201 q 37 -85 15 -135 q 69 33 58 -36 l 157 607 l 58 607 l 58 661 q 117 688 86 676 q 176 707 149 700 l 186 756 q 248 898 203 842 q 351 987 293 954 q 474 1032 410 1019 q 596 1044 539 1044 q 799 996 731 1044 q 874 864 867 947 q 873 833 875 849 q 868 799 871 817 q 780 777 825 792 q 698 736 735 763 q 638 672 661 710 q 614 582 614 635 q 631 523 614 549 q 674 473 649 497 q 729 424 699 449 q 785 369 760 399 q 827 304 810 340 q 844 221 844 268 q 821 124 844 168 q 756 49 797 81 q 658 1 715 18 q 535 -17 601 -17 q 415 -3 464 -17 q 339 29 367 10 q 356 112 339 72 q 406 175 372 151 l 525 63 q 569 72 547 63 q 607 95 590 81 q 633 130 624 110 q 643 174 643 150 q 626 235 643 208 q 585 285 610 261 q 530 331 560 308 q 475 381 500 354 q 433 442 450 408 q 417 522 417 476 z "},"à":{"ha":782,"x_min":39,"x_max":754,"o":"m 299 94 q 353 118 325 94 q 408 177 382 142 q 455 255 433 213 q 492 333 476 297 l 543 608 q 512 624 526 619 q 474 629 497 629 q 374 592 418 629 q 299 497 329 556 q 252 364 268 438 q 236 217 236 290 q 251 124 236 153 q 299 94 267 94 m 471 221 q 426 134 453 176 q 364 58 399 92 q 288 4 329 25 q 197 -17 246 -17 q 82 36 125 -17 q 39 193 39 89 q 69 395 39 301 q 153 559 99 489 q 286 669 208 629 q 460 708 364 708 q 522 700 496 708 q 576 679 547 692 q 654 700 613 693 q 754 707 696 707 l 638 96 l 735 96 l 735 49 q 698 26 721 38 q 648 7 675 15 q 592 -7 621 -1 q 539 -12 564 -12 q 469 8 490 -12 q 449 51 449 29 q 456 117 449 76 q 476 221 463 158 l 471 221 m 547 818 l 485 788 l 254 989 l 254 1029 q 290 1045 263 1038 q 349 1057 318 1053 q 408 1062 381 1061 q 446 1060 436 1063 l 547 818 z "},"á":{"ha":782,"x_min":39,"x_max":754,"o":"m 299 94 q 353 118 325 94 q 408 177 382 142 q 455 255 433 213 q 492 333 476 297 l 543 608 q 512 624 526 619 q 474 629 497 629 q 374 592 418 629 q 299 497 329 556 q 252 364 268 438 q 236 217 236 290 q 251 124 236 153 q 299 94 267 94 m 471 221 q 426 134 453 176 q 364 58 399 92 q 288 4 329 25 q 197 -17 246 -17 q 82 36 125 -17 q 39 193 39 89 q 69 395 39 301 q 153 559 99 489 q 286 669 208 629 q 460 708 364 708 q 522 700 496 708 q 576 679 547 692 q 654 700 613 693 q 754 707 696 707 l 638 96 l 735 96 l 735 49 q 698 26 721 38 q 648 7 675 15 q 592 -7 621 -1 q 539 -12 564 -12 q 469 8 490 -12 q 449 51 449 29 q 456 117 449 76 q 476 221 463 158 l 471 221 m 564 1060 q 601 1062 575 1063 q 654 1057 626 1061 q 705 1045 682 1053 q 735 1029 728 1038 l 735 996 l 456 781 l 400 811 l 564 1060 z "},"â":{"ha":782,"x_min":39,"x_max":754,"o":"m 299 94 q 353 118 325 94 q 408 177 382 142 q 455 255 433 213 q 492 333 476 297 l 543 608 q 512 624 526 619 q 474 629 497 629 q 374 592 418 629 q 299 497 329 556 q 252 364 268 438 q 236 217 236 290 q 251 124 236 153 q 299 94 267 94 m 471 221 q 426 134 453 176 q 364 58 399 92 q 288 4 329 25 q 197 -17 246 -17 q 82 36 125 -17 q 39 193 39 89 q 69 395 39 301 q 153 559 99 489 q 286 669 208 629 q 460 708 364 708 q 522 700 496 708 q 576 679 547 692 q 654 700 613 693 q 754 707 696 707 l 638 96 l 735 96 l 735 49 q 698 26 721 38 q 648 7 675 15 q 592 -7 621 -1 q 539 -12 564 -12 q 469 8 490 -12 q 449 51 449 29 q 456 117 449 76 q 476 221 463 158 l 471 221 m 356 801 l 297 836 l 519 1094 q 534 1101 524 1099 q 556 1103 544 1103 q 592 1094 579 1103 l 681 838 l 624 801 l 519 938 l 356 801 z "},"ã":{"ha":782,"x_min":39,"x_max":754,"o":"m 299 94 q 353 118 325 94 q 408 177 382 142 q 455 255 433 213 q 492 333 476 297 l 543 608 q 512 624 526 619 q 474 629 497 629 q 374 592 418 629 q 299 497 329 556 q 252 364 268 438 q 236 217 236 290 q 251 124 236 153 q 299 94 267 94 m 471 221 q 426 134 453 176 q 364 58 399 92 q 288 4 329 25 q 197 -17 246 -17 q 82 36 125 -17 q 39 193 39 89 q 69 395 39 301 q 153 559 99 489 q 286 669 208 629 q 460 708 364 708 q 522 700 496 708 q 576 679 547 692 q 654 700 613 693 q 754 707 696 707 l 638 96 l 735 96 l 735 49 q 698 26 721 38 q 648 7 675 15 q 592 -7 621 -1 q 539 -12 564 -12 q 469 8 490 -12 q 449 51 449 29 q 456 117 449 76 q 476 221 463 158 l 471 221 m 721 926 q 635 858 679 879 q 558 836 590 836 q 511 844 533 836 q 468 860 489 851 q 427 876 447 868 q 386 883 407 883 q 349 877 368 883 q 308 856 331 871 l 269 914 q 367 988 321 967 q 446 1008 414 1008 q 492 1001 471 1008 q 533 986 514 994 q 573 971 553 978 q 614 964 593 964 q 650 967 632 964 q 690 985 668 971 l 721 926 z "},"ä":{"ha":782,"x_min":39,"x_max":754,"o":"m 299 94 q 353 118 325 94 q 408 177 382 142 q 455 255 433 213 q 492 333 476 297 l 543 608 q 512 624 526 619 q 474 629 497 629 q 374 592 418 629 q 299 497 329 556 q 252 364 268 438 q 236 217 236 290 q 251 124 236 153 q 299 94 267 94 m 471 221 q 426 134 453 176 q 364 58 399 92 q 288 4 329 25 q 197 -17 246 -17 q 82 36 125 -17 q 39 193 39 89 q 69 395 39 301 q 153 559 99 489 q 286 669 208 629 q 460 708 364 708 q 522 700 496 708 q 576 679 547 692 q 654 700 613 693 q 754 707 696 707 l 638 96 l 735 96 l 735 49 q 698 26 721 38 q 648 7 675 15 q 592 -7 621 -1 q 539 -12 564 -12 q 469 8 490 -12 q 449 51 449 29 q 456 117 449 76 q 476 221 463 158 l 471 221 m 243 915 q 271 986 243 960 q 344 1013 299 1013 q 417 986 389 1013 q 446 915 446 960 q 417 847 446 874 q 344 821 389 821 q 271 847 299 821 q 243 915 243 874 m 547 915 q 575 986 547 960 q 647 1013 603 1013 q 722 986 693 1013 q 750 915 750 960 q 722 847 750 874 q 647 821 693 821 q 575 847 603 821 q 547 915 547 874 z "},"å":{"ha":782,"x_min":39,"x_max":754,"o":"m 299 94 q 353 118 325 94 q 408 177 382 142 q 455 255 433 213 q 492 333 476 297 l 543 608 q 512 624 526 619 q 474 629 497 629 q 374 592 418 629 q 299 497 329 556 q 252 364 268 438 q 236 217 236 290 q 251 124 236 153 q 299 94 267 94 m 471 221 q 426 134 453 176 q 364 58 399 92 q 288 4 329 25 q 197 -17 246 -17 q 82 36 125 -17 q 39 193 39 89 q 69 395 39 301 q 153 559 99 489 q 286 669 208 629 q 460 708 364 708 q 522 700 496 708 q 576 679 547 692 q 654 700 613 693 q 754 707 696 707 l 638 96 l 735 96 l 735 49 q 698 26 721 38 q 648 7 675 15 q 592 -7 621 -1 q 539 -12 564 -12 q 469 8 490 -12 q 449 51 449 29 q 456 117 449 76 q 476 221 463 158 l 471 221 m 360 922 q 410 1036 360 989 q 550 1083 460 1083 q 645 1051 611 1083 q 679 971 679 1019 q 667 910 679 939 q 631 858 654 881 q 573 824 607 836 q 496 811 539 811 q 395 841 431 811 q 360 922 360 871 m 464 925 q 476 892 464 904 q 506 881 488 881 q 553 903 531 881 q 575 967 575 926 q 536 1014 575 1014 q 483 988 501 1014 q 464 925 464 961 z "},"æ":{"ha":1085,"x_min":26,"x_max":1060,"o":"m 314 94 q 361 106 339 94 q 402 134 383 117 q 435 174 421 151 q 457 218 449 196 q 457 274 456 244 q 461 326 458 303 q 289 301 349 340 q 229 188 229 261 q 253 117 229 140 q 314 94 278 94 m 471 136 q 372 27 438 71 q 225 -17 307 -17 q 79 33 132 -17 q 26 161 26 83 q 142 345 26 286 q 476 389 257 404 q 503 569 513 507 q 424 632 493 632 q 349 618 386 632 l 269 472 l 208 472 q 175 546 190 503 q 160 633 160 589 q 303 690 221 669 q 467 711 385 711 q 592 690 546 711 q 650 640 639 669 q 745 692 690 672 q 868 711 800 711 q 1006 673 951 711 q 1060 568 1060 635 q 967 413 1060 474 q 663 336 874 351 q 658 297 660 317 q 656 258 656 276 q 696 137 656 179 q 799 94 736 94 q 851 103 825 94 q 901 125 878 111 q 945 155 925 139 q 981 186 965 171 l 1014 151 q 969 94 999 124 q 901 40 940 64 q 815 -1 863 15 q 717 -17 768 -17 q 472 136 528 -17 l 471 136 m 836 632 q 747 581 790 632 q 672 407 703 529 q 840 453 776 410 q 903 565 903 496 q 888 613 903 593 q 836 632 872 632 z "},"ç":{"ha":618,"x_min":38,"x_max":626,"o":"m 572 151 q 531 99 556 125 q 475 49 507 72 q 405 10 443 26 q 324 -14 367 -7 l 274 -94 q 378 -123 349 -99 q 410 -193 408 -147 q 382 -267 410 -236 q 310 -317 354 -297 q 213 -347 267 -337 q 111 -357 160 -357 l 111 -303 q 158 -292 135 -299 q 198 -274 181 -285 q 226 -250 215 -264 q 236 -218 236 -236 q 221 -178 235 -194 q 163 -158 207 -162 l 239 -14 q 91 60 144 -3 q 38 231 38 124 q 67 415 38 328 q 151 569 97 503 q 283 673 206 635 q 454 711 360 711 q 563 698 517 711 q 625 667 610 685 q 620 628 626 651 q 601 583 614 606 q 572 540 589 560 q 536 511 554 519 l 451 632 q 376 606 414 632 q 307 533 338 581 q 257 417 276 485 q 238 265 238 350 q 272 141 238 181 q 365 101 307 101 q 419 110 393 101 q 467 132 444 119 q 508 159 489 144 q 540 186 526 174 l 572 151 z "},"è":{"ha":656,"x_min":38,"x_max":642,"o":"m 596 151 q 551 94 581 124 q 483 40 522 64 q 397 -1 444 15 q 299 -17 350 -17 q 106 51 175 -17 q 38 242 38 118 q 68 422 38 338 q 153 572 99 507 q 284 674 208 636 q 450 711 360 711 q 588 673 533 711 q 642 568 642 635 q 548 413 642 474 q 244 336 454 351 q 238 297 240 317 q 236 258 236 276 q 276 137 236 179 q 379 94 317 94 q 432 103 406 94 q 483 125 458 111 q 527 155 507 139 q 563 186 547 171 l 596 151 m 418 632 q 327 581 371 632 q 254 407 283 529 q 420 453 357 410 q 483 565 483 496 q 469 613 483 593 q 418 632 454 632 m 536 818 l 474 788 l 243 989 l 243 1029 q 279 1045 251 1038 q 338 1057 307 1053 q 397 1062 369 1061 q 435 1060 425 1063 l 536 818 z "},"é":{"ha":656,"x_min":38,"x_max":689,"o":"m 596 151 q 551 94 581 124 q 483 40 522 64 q 397 -1 444 15 q 299 -17 350 -17 q 106 51 175 -17 q 38 242 38 118 q 68 422 38 338 q 153 572 99 507 q 284 674 208 636 q 450 711 360 711 q 588 673 533 711 q 642 568 642 635 q 548 413 642 474 q 244 336 454 351 q 238 297 240 317 q 236 258 236 276 q 276 137 236 179 q 379 94 317 94 q 432 103 406 94 q 483 125 458 111 q 527 155 507 139 q 563 186 547 171 l 596 151 m 418 632 q 327 581 371 632 q 254 407 283 529 q 420 453 357 410 q 483 565 483 496 q 469 613 483 593 q 418 632 454 632 m 518 1060 q 555 1062 529 1063 q 608 1057 581 1061 q 659 1045 636 1053 q 689 1029 682 1038 l 689 996 l 410 781 l 354 811 l 518 1060 z "},"ê":{"ha":656,"x_min":38,"x_max":642,"o":"m 596 151 q 551 94 581 124 q 483 40 522 64 q 397 -1 444 15 q 299 -17 350 -17 q 106 51 175 -17 q 38 242 38 118 q 68 422 38 338 q 153 572 99 507 q 284 674 208 636 q 450 711 360 711 q 588 673 533 711 q 642 568 642 635 q 548 413 642 474 q 244 336 454 351 q 238 297 240 317 q 236 258 236 276 q 276 137 236 179 q 379 94 317 94 q 432 103 406 94 q 483 125 458 111 q 527 155 507 139 q 563 186 547 171 l 596 151 m 418 632 q 327 581 371 632 q 254 407 283 529 q 420 453 357 410 q 483 565 483 496 q 469 613 483 593 q 418 632 454 632 m 310 801 l 251 836 l 474 1094 q 488 1101 478 1099 q 510 1103 499 1103 q 546 1094 533 1103 l 635 838 l 578 801 l 474 938 l 310 801 z "},"ë":{"ha":656,"x_min":38,"x_max":700,"o":"m 596 151 q 551 94 581 124 q 483 40 522 64 q 397 -1 444 15 q 299 -17 350 -17 q 106 51 175 -17 q 38 242 38 118 q 68 422 38 338 q 153 572 99 507 q 284 674 208 636 q 450 711 360 711 q 588 673 533 711 q 642 568 642 635 q 548 413 642 474 q 244 336 454 351 q 238 297 240 317 q 236 258 236 276 q 276 137 236 179 q 379 94 317 94 q 432 103 406 94 q 483 125 458 111 q 527 155 507 139 q 563 186 547 171 l 596 151 m 418 632 q 327 581 371 632 q 254 407 283 529 q 420 453 357 410 q 483 565 483 496 q 469 613 483 593 q 418 632 454 632 m 193 915 q 221 986 193 960 q 294 1013 249 1013 q 367 986 339 1013 q 396 915 396 960 q 367 847 396 874 q 294 821 339 821 q 221 847 249 821 q 193 915 193 874 m 497 915 q 525 986 497 960 q 597 1013 553 1013 q 672 986 643 1013 q 700 915 700 960 q 672 847 700 874 q 597 821 643 821 q 525 847 553 821 q 497 915 497 874 z "},"ì":{"ha":422,"x_min":58,"x_max":381,"o":"m 82 614 l 82 661 q 138 678 103 669 q 211 694 172 688 q 288 706 250 701 q 356 711 326 711 l 381 694 l 256 96 l 353 96 l 353 49 q 310 25 335 36 q 259 6 286 14 q 204 -8 232 -3 q 151 -12 176 -12 q 78 8 99 -12 q 58 51 58 28 q 63 106 58 79 q 74 164 67 132 l 168 594 l 82 614 m 365 818 l 303 788 l 72 989 l 72 1029 q 108 1045 81 1038 q 167 1057 136 1053 q 226 1062 199 1061 q 264 1060 254 1063 l 365 818 z "},"í":{"ha":422,"x_min":58,"x_max":539,"o":"m 82 614 l 82 661 q 138 678 103 669 q 211 694 172 688 q 288 706 250 701 q 356 711 326 711 l 381 694 l 256 96 l 353 96 l 353 49 q 310 25 335 36 q 259 6 286 14 q 204 -8 232 -3 q 151 -12 176 -12 q 78 8 99 -12 q 58 51 58 28 q 63 106 58 79 q 74 164 67 132 l 168 594 l 82 614 m 368 1060 q 405 1062 379 1063 q 458 1057 431 1061 q 509 1045 486 1053 q 539 1029 532 1038 l 539 996 l 260 781 l 204 811 l 368 1060 z "},"î":{"ha":422,"x_min":58,"x_max":496,"o":"m 82 614 l 82 661 q 138 678 103 669 q 211 694 172 688 q 288 706 250 701 q 356 711 326 711 l 381 694 l 256 96 l 353 96 l 353 49 q 310 25 335 36 q 259 6 286 14 q 204 -8 232 -3 q 151 -12 176 -12 q 78 8 99 -12 q 58 51 58 28 q 63 106 58 79 q 74 164 67 132 l 168 594 l 82 614 m 171 801 l 113 836 l 335 1094 q 349 1101 339 1099 q 371 1103 360 1103 q 407 1094 394 1103 l 496 838 l 439 801 l 335 938 l 171 801 z "},"ï":{"ha":422,"x_min":49,"x_max":556,"o":"m 82 614 l 82 661 q 138 678 103 669 q 211 694 172 688 q 288 706 250 701 q 356 711 326 711 l 381 694 l 256 96 l 353 96 l 353 49 q 310 25 335 36 q 259 6 286 14 q 204 -8 232 -3 q 151 -12 176 -12 q 78 8 99 -12 q 58 51 58 28 q 63 106 58 79 q 74 164 67 132 l 168 594 l 82 614 m 49 915 q 76 986 49 960 q 150 1013 104 1013 q 223 986 194 1013 q 251 915 251 960 q 223 847 251 874 q 150 821 194 821 q 76 847 104 821 q 49 915 49 874 m 353 915 q 381 986 353 960 q 453 1013 408 1013 q 527 986 499 1013 q 556 915 556 960 q 527 847 556 874 q 453 821 499 821 q 381 847 408 821 q 353 915 353 874 z "},"ð":{"ha":736,"x_min":29,"x_max":776,"o":"m 333 853 l 464 908 q 403 967 438 943 q 331 1003 369 990 l 331 1042 l 507 1042 q 558 1015 531 1033 q 613 967 585 996 l 744 1022 l 776 949 l 661 899 q 706 788 689 851 q 722 642 722 725 q 690 383 722 503 q 597 174 657 263 q 453 34 538 85 q 265 -17 368 -17 q 170 1 214 -17 q 95 50 126 18 q 47 129 64 82 q 29 238 29 176 q 62 423 29 338 q 150 570 94 508 q 279 667 206 632 q 433 703 353 703 q 489 697 461 703 q 532 681 517 692 q 524 764 532 725 q 503 835 517 803 l 367 778 l 333 853 m 438 624 q 340 585 381 624 q 275 485 300 546 q 238 353 250 425 q 226 214 226 281 q 231 156 226 183 q 244 107 235 128 q 269 74 253 86 q 311 63 286 63 q 390 105 353 63 q 457 220 428 147 q 504 390 486 293 q 525 599 522 488 q 482 618 504 613 q 438 624 460 624 z "},"ñ":{"ha":817,"x_min":39,"x_max":753,"o":"m 533 396 q 551 472 543 439 q 558 542 558 506 q 548 583 558 565 q 511 600 538 600 q 456 580 485 600 q 401 530 428 560 q 351 464 374 500 q 314 397 328 428 l 231 0 l 39 0 l 158 596 l 76 614 l 79 661 q 129 680 99 671 q 196 696 160 689 q 270 707 232 703 q 343 711 308 711 l 371 694 l 328 492 l 335 492 q 393 578 360 538 q 464 647 426 618 q 543 694 501 676 q 628 711 585 711 q 719 674 686 711 q 753 574 753 636 q 746 501 753 542 q 729 419 739 460 l 653 96 l 753 96 l 753 49 q 716 26 739 38 q 666 7 693 15 q 610 -7 639 -1 q 554 -12 581 -12 q 485 6 507 -12 q 464 47 464 24 q 471 110 464 76 q 485 174 478 143 l 533 396 m 732 926 q 646 858 690 879 q 569 836 601 836 q 522 844 544 836 q 479 860 500 851 q 438 876 458 868 q 397 883 418 883 q 360 877 379 883 q 319 856 342 871 l 281 914 q 378 988 332 967 q 457 1008 425 1008 q 503 1001 482 1008 q 544 986 525 994 q 584 971 564 978 q 625 964 604 964 q 661 967 643 964 q 701 985 679 971 l 732 926 z "},"ò":{"ha":763,"x_min":40,"x_max":722,"o":"m 40 267 q 65 420 40 342 q 142 563 90 499 q 272 669 193 628 q 456 711 350 711 q 651 643 581 711 q 722 440 722 575 q 694 266 722 349 q 614 120 667 183 q 485 20 561 57 q 313 -17 410 -17 q 204 1 254 -17 q 117 53 154 18 q 60 142 81 89 q 40 267 40 194 m 432 632 q 340 590 376 632 q 280 485 303 549 q 247 349 257 422 q 238 213 238 275 q 265 102 238 142 q 339 63 292 63 q 413 97 379 63 q 472 188 447 131 q 511 320 497 246 q 525 475 525 394 q 501 592 525 551 q 432 632 476 632 m 542 818 l 479 788 l 249 989 l 249 1029 q 285 1045 257 1038 q 344 1057 313 1053 q 403 1062 375 1061 q 440 1060 431 1063 l 542 818 z "},"ó":{"ha":763,"x_min":40,"x_max":722,"o":"m 40 267 q 65 420 40 342 q 142 563 90 499 q 272 669 193 628 q 456 711 350 711 q 651 643 581 711 q 722 440 722 575 q 694 266 722 349 q 614 120 667 183 q 485 20 561 57 q 313 -17 410 -17 q 204 1 254 -17 q 117 53 154 18 q 60 142 81 89 q 40 267 40 194 m 432 632 q 340 590 376 632 q 280 485 303 549 q 247 349 257 422 q 238 213 238 275 q 265 102 238 142 q 339 63 292 63 q 413 97 379 63 q 472 188 447 131 q 511 320 497 246 q 525 475 525 394 q 501 592 525 551 q 432 632 476 632 m 538 1060 q 574 1062 549 1063 q 628 1057 600 1061 q 678 1045 656 1053 q 708 1029 701 1038 l 708 996 l 429 781 l 374 811 l 538 1060 z "},"ô":{"ha":763,"x_min":40,"x_max":722,"o":"m 40 267 q 65 420 40 342 q 142 563 90 499 q 272 669 193 628 q 456 711 350 711 q 651 643 581 711 q 722 440 722 575 q 694 266 722 349 q 614 120 667 183 q 485 20 561 57 q 313 -17 410 -17 q 204 1 254 -17 q 117 53 154 18 q 60 142 81 89 q 40 267 40 194 m 432 632 q 340 590 376 632 q 280 485 303 549 q 247 349 257 422 q 238 213 238 275 q 265 102 238 142 q 339 63 292 63 q 413 97 379 63 q 472 188 447 131 q 511 320 497 246 q 525 475 525 394 q 501 592 525 551 q 432 632 476 632 m 333 801 l 275 836 l 497 1094 q 512 1101 501 1099 q 533 1103 522 1103 q 569 1094 557 1103 l 658 838 l 601 801 l 497 938 l 333 801 z "},"õ":{"ha":763,"x_min":40,"x_max":722,"o":"m 40 267 q 65 420 40 342 q 142 563 90 499 q 272 669 193 628 q 456 711 350 711 q 651 643 581 711 q 722 440 722 575 q 694 266 722 349 q 614 120 667 183 q 485 20 561 57 q 313 -17 410 -17 q 204 1 254 -17 q 117 53 154 18 q 60 142 81 89 q 40 267 40 194 m 432 632 q 340 590 376 632 q 280 485 303 549 q 247 349 257 422 q 238 213 238 275 q 265 102 238 142 q 339 63 292 63 q 413 97 379 63 q 472 188 447 131 q 511 320 497 246 q 525 475 525 394 q 501 592 525 551 q 432 632 476 632 m 714 926 q 628 858 672 879 q 551 836 583 836 q 504 844 526 836 q 461 860 482 851 q 420 876 440 868 q 379 883 400 883 q 342 877 361 883 q 301 856 324 871 l 263 914 q 360 988 314 967 q 439 1008 407 1008 q 485 1001 464 1008 q 526 986 507 994 q 566 971 546 978 q 607 964 586 964 q 643 967 625 964 q 683 985 661 971 l 714 926 z "},"ö":{"ha":763,"x_min":40,"x_max":722,"o":"m 40 267 q 65 420 40 342 q 142 563 90 499 q 272 669 193 628 q 456 711 350 711 q 651 643 581 711 q 722 440 722 575 q 694 266 722 349 q 614 120 667 183 q 485 20 561 57 q 313 -17 410 -17 q 204 1 254 -17 q 117 53 154 18 q 60 142 81 89 q 40 267 40 194 m 432 632 q 340 590 376 632 q 280 485 303 549 q 247 349 257 422 q 238 213 238 275 q 265 102 238 142 q 339 63 292 63 q 413 97 379 63 q 472 188 447 131 q 511 320 497 246 q 525 475 525 394 q 501 592 525 551 q 432 632 476 632 m 210 915 q 238 986 210 960 q 311 1013 265 1013 q 384 986 356 1013 q 413 915 413 960 q 384 847 413 874 q 311 821 356 821 q 238 847 265 821 q 210 915 210 874 m 514 915 q 542 986 514 960 q 614 1013 569 1013 q 688 986 660 1013 q 717 915 717 960 q 688 847 717 874 q 614 821 660 821 q 542 847 569 821 q 514 915 514 874 z "},"÷":{"ha":778,"x_min":76,"x_max":701,"o":"m 76 536 l 701 536 l 701 425 l 76 425 l 76 536 m 271 744 q 303 825 271 794 q 388 856 335 856 q 474 825 440 856 q 507 744 507 794 q 474 665 507 694 q 388 635 440 635 q 303 665 335 635 q 271 744 271 694 m 271 215 q 303 296 271 265 q 388 326 335 326 q 474 296 440 326 q 507 215 507 265 q 474 135 507 165 q 388 106 440 106 q 303 135 335 106 q 271 215 271 165 z "},"ø":{"ha":763,"x_min":-18,"x_max":775,"o":"m 40 267 q 65 420 40 342 q 142 563 90 499 q 272 669 193 628 q 456 711 350 711 q 617 667 551 711 l 708 768 l 775 711 l 679 606 q 722 440 722 539 q 694 266 722 349 q 614 120 667 183 q 485 20 561 57 q 313 -17 410 -17 q 147 31 213 -17 l 46 -81 l -18 -22 l 86 92 q 40 267 40 161 m 339 63 q 403 89 374 63 q 456 159 433 115 q 492 260 478 203 q 513 381 507 318 q 517 408 515 394 q 519 438 518 422 l 250 140 q 339 63 271 63 m 432 632 q 350 601 383 632 q 295 524 317 571 q 263 419 274 476 q 247 310 251 363 q 244 283 244 296 q 242 257 243 271 l 513 556 q 432 632 492 632 z "},"ù":{"ha":813,"x_min":58,"x_max":771,"o":"m 758 96 l 758 49 q 722 26 744 38 q 672 7 699 15 q 615 -7 644 -1 q 556 -12 585 -12 q 487 8 506 -12 q 468 50 468 28 q 474 119 468 75 q 496 222 479 164 l 490 222 q 444 147 472 189 q 379 69 417 106 q 293 8 342 32 q 186 -17 244 -17 q 94 17 129 -17 q 58 114 58 51 q 67 201 58 144 q 90 326 76 258 q 119 465 103 393 q 147 596 135 536 l 65 614 l 65 661 q 121 678 88 669 q 190 693 154 686 q 264 705 226 700 q 332 711 301 710 l 363 694 q 317 497 340 590 q 275 299 294 403 q 260 225 268 265 q 253 144 253 185 q 266 107 253 119 q 299 94 279 94 q 367 122 333 94 q 430 187 401 149 q 480 265 458 225 q 511 332 501 306 l 583 694 l 771 694 l 661 96 l 758 96 m 553 818 l 490 788 l 260 989 l 260 1029 q 296 1045 268 1038 q 355 1057 324 1053 q 414 1062 386 1061 q 451 1060 442 1063 l 553 818 z "},"ú":{"ha":813,"x_min":58,"x_max":771,"o":"m 758 96 l 758 49 q 722 26 744 38 q 672 7 699 15 q 615 -7 644 -1 q 556 -12 585 -12 q 487 8 506 -12 q 468 50 468 28 q 474 119 468 75 q 496 222 479 164 l 490 222 q 444 147 472 189 q 379 69 417 106 q 293 8 342 32 q 186 -17 244 -17 q 94 17 129 -17 q 58 114 58 51 q 67 201 58 144 q 90 326 76 258 q 119 465 103 393 q 147 596 135 536 l 65 614 l 65 661 q 121 678 88 669 q 190 693 154 686 q 264 705 226 700 q 332 711 301 710 l 363 694 q 317 497 340 590 q 275 299 294 403 q 260 225 268 265 q 253 144 253 185 q 266 107 253 119 q 299 94 279 94 q 367 122 333 94 q 430 187 401 149 q 480 265 458 225 q 511 332 501 306 l 583 694 l 771 694 l 661 96 l 758 96 m 563 1060 q 599 1062 574 1063 q 653 1057 625 1061 q 703 1045 681 1053 q 733 1029 726 1038 l 733 996 l 454 781 l 399 811 l 563 1060 z "},"û":{"ha":813,"x_min":58,"x_max":771,"o":"m 758 96 l 758 49 q 722 26 744 38 q 672 7 699 15 q 615 -7 644 -1 q 556 -12 585 -12 q 487 8 506 -12 q 468 50 468 28 q 474 119 468 75 q 496 222 479 164 l 490 222 q 444 147 472 189 q 379 69 417 106 q 293 8 342 32 q 186 -17 244 -17 q 94 17 129 -17 q 58 114 58 51 q 67 201 58 144 q 90 326 76 258 q 119 465 103 393 q 147 596 135 536 l 65 614 l 65 661 q 121 678 88 669 q 190 693 154 686 q 264 705 226 700 q 332 711 301 710 l 363 694 q 317 497 340 590 q 275 299 294 403 q 260 225 268 265 q 253 144 253 185 q 266 107 253 119 q 299 94 279 94 q 367 122 333 94 q 430 187 401 149 q 480 265 458 225 q 511 332 501 306 l 583 694 l 771 694 l 661 96 l 758 96 m 354 801 l 296 836 l 518 1094 q 533 1101 522 1099 q 554 1103 543 1103 q 590 1094 578 1103 l 679 838 l 622 801 l 518 938 l 354 801 z "},"ü":{"ha":813,"x_min":58,"x_max":771,"o":"m 758 96 l 758 49 q 722 26 744 38 q 672 7 699 15 q 615 -7 644 -1 q 556 -12 585 -12 q 487 8 506 -12 q 468 50 468 28 q 474 119 468 75 q 496 222 479 164 l 490 222 q 444 147 472 189 q 379 69 417 106 q 293 8 342 32 q 186 -17 244 -17 q 94 17 129 -17 q 58 114 58 51 q 67 201 58 144 q 90 326 76 258 q 119 465 103 393 q 147 596 135 536 l 65 614 l 65 661 q 121 678 88 669 q 190 693 154 686 q 264 705 226 700 q 332 711 301 710 l 363 694 q 317 497 340 590 q 275 299 294 403 q 260 225 268 265 q 253 144 253 185 q 266 107 253 119 q 299 94 279 94 q 367 122 333 94 q 430 187 401 149 q 480 265 458 225 q 511 332 501 306 l 583 694 l 771 694 l 661 96 l 758 96 m 236 915 q 264 986 236 960 q 338 1013 292 1013 q 410 986 382 1013 q 439 915 439 960 q 410 847 439 874 q 338 821 382 821 q 264 847 292 821 q 236 915 236 874 m 540 915 q 568 986 540 960 q 640 1013 596 1013 q 715 986 686 1013 q 743 915 743 960 q 715 847 743 874 q 640 821 686 821 q 568 847 596 821 q 540 915 540 874 z "},"ý":{"ha":676,"x_min":-22,"x_max":706,"o":"m 100 596 l 11 607 l 11 654 q 39 669 18 660 q 88 688 60 678 q 149 704 117 697 q 211 711 181 711 q 269 693 249 711 q 297 643 290 675 l 404 222 l 411 139 l 414 139 l 443 221 q 497 365 471 288 q 539 508 524 442 q 534 551 539 524 q 524 606 529 578 q 513 659 518 635 q 504 692 507 683 q 553 704 524 700 q 611 708 582 708 q 665 704 640 708 q 706 692 690 700 q 595 349 669 526 q 424 0 521 171 q 263 -217 343 -143 q 79 -290 183 -290 q 26 -283 50 -290 q -18 -262 1 -275 q -15 -217 -22 -243 q 5 -165 -8 -190 q 36 -119 18 -140 q 74 -92 54 -99 l 178 -165 q 203 -145 188 -158 q 233 -112 218 -132 q 264 -64 249 -92 q 292 0 279 -36 l 100 596 m 522 1060 q 559 1062 533 1063 q 613 1057 585 1061 q 663 1045 640 1053 q 693 1029 686 1038 l 693 996 l 414 781 l 358 811 l 522 1060 z "},"þ":{"ha":794,"x_min":-24,"x_max":761,"o":"m 188 -185 q 237 -201 211 -189 q 281 -225 263 -212 l 281 -278 l -6 -278 l -24 -260 l 228 942 l 147 961 l 147 1008 q 204 1027 169 1018 q 276 1043 239 1036 q 350 1054 314 1050 q 414 1058 386 1058 l 442 1042 l 328 503 l 333 503 q 384 584 356 546 q 445 651 413 622 q 516 695 478 679 q 597 711 554 711 q 715 656 668 711 q 761 500 761 600 q 729 292 761 388 q 642 128 697 197 q 512 22 588 60 q 349 -17 436 -17 q 283 -10 308 -17 q 229 11 257 -4 l 188 -185 m 490 600 q 434 578 461 600 q 383 525 407 557 q 340 456 360 493 q 308 388 321 418 l 247 86 q 283 68 265 74 q 333 63 300 63 q 422 100 381 63 q 495 197 464 138 q 544 332 526 257 q 561 481 561 407 q 543 569 561 539 q 490 600 525 600 z "},"ÿ":{"ha":676,"x_min":-22,"x_max":706,"o":"m 100 596 l 11 607 l 11 654 q 39 669 18 660 q 88 688 60 678 q 149 704 117 697 q 211 711 181 711 q 269 693 249 711 q 297 643 290 675 l 404 222 l 411 139 l 414 139 l 443 221 q 497 365 471 288 q 539 508 524 442 q 534 551 539 524 q 524 606 529 578 q 513 659 518 635 q 504 692 507 683 q 553 704 524 700 q 611 708 582 708 q 665 704 640 708 q 706 692 690 700 q 595 349 669 526 q 424 0 521 171 q 263 -217 343 -143 q 79 -290 183 -290 q 26 -283 50 -290 q -18 -262 1 -275 q -15 -217 -22 -243 q 5 -165 -8 -190 q 36 -119 18 -140 q 74 -92 54 -99 l 178 -165 q 203 -145 188 -158 q 233 -112 218 -132 q 264 -64 249 -92 q 292 0 279 -36 l 100 596 m 178 915 q 206 986 178 960 q 279 1013 233 1013 q 352 986 324 1013 q 381 915 381 960 q 352 847 381 874 q 279 821 324 821 q 206 847 233 821 q 178 915 178 874 m 482 915 q 510 986 482 960 q 582 1013 538 1013 q 656 986 628 1013 q 685 915 685 960 q 656 847 685 874 q 582 821 628 821 q 510 847 538 821 q 482 915 482 874 z "},"Ā":{"ha":1006,"x_min":-61,"x_max":961,"o":"m 285 0 l -61 0 l -51 53 q 1 77 -26 67 q 57 93 29 88 l 607 989 l 708 989 l 865 93 q 917 76 892 88 q 961 53 943 65 l 950 0 l 522 0 l 532 53 q 594 77 561 67 q 656 93 626 88 l 622 314 l 315 314 l 183 93 q 242 78 213 89 q 294 53 271 68 l 285 0 m 363 404 l 611 404 l 572 669 l 572 789 l 569 789 l 517 667 l 363 404 m 438 1082 l 458 1179 l 908 1179 l 888 1082 l 438 1082 z "},"ā":{"ha":782,"x_min":39,"x_max":754,"o":"m 299 94 q 353 118 325 94 q 408 177 382 142 q 455 255 433 213 q 492 333 476 297 l 543 608 q 512 624 526 619 q 474 629 497 629 q 374 592 418 629 q 299 497 329 556 q 252 364 268 438 q 236 217 236 290 q 251 124 236 153 q 299 94 267 94 m 471 221 q 426 134 453 176 q 364 58 399 92 q 288 4 329 25 q 197 -17 246 -17 q 82 36 125 -17 q 39 193 39 89 q 69 395 39 301 q 153 559 99 489 q 286 669 208 629 q 460 708 364 708 q 522 700 496 708 q 576 679 547 692 q 654 700 613 693 q 754 707 696 707 l 638 96 l 735 96 l 735 49 q 698 26 721 38 q 648 7 675 15 q 592 -7 621 -1 q 539 -12 564 -12 q 469 8 490 -12 q 449 51 449 29 q 456 117 449 76 q 476 221 463 158 l 471 221 m 297 860 l 318 957 l 726 957 l 706 860 l 297 860 z "},"Ă":{"ha":1006,"x_min":-61,"x_max":961,"o":"m 285 0 l -61 0 l -51 53 q 1 77 -26 67 q 57 93 29 88 l 607 989 l 708 989 l 865 93 q 917 76 892 88 q 961 53 943 65 l 950 0 l 522 0 l 532 53 q 594 77 561 67 q 656 93 626 88 l 622 314 l 315 314 l 183 93 q 242 78 213 89 q 294 53 271 68 l 285 0 m 363 404 l 611 404 l 572 669 l 572 789 l 569 789 l 517 667 l 363 404 m 865 1246 q 894 1238 875 1247 q 922 1214 913 1228 q 881 1158 908 1186 q 816 1106 853 1129 q 736 1069 779 1083 q 650 1054 693 1054 q 508 1102 557 1054 q 453 1217 460 1150 q 483 1243 463 1233 q 524 1250 503 1253 q 574 1202 539 1219 q 657 1183 608 1185 q 713 1187 683 1183 q 769 1199 742 1190 q 822 1219 797 1207 q 865 1246 847 1231 z "},"ă":{"ha":782,"x_min":39,"x_max":754,"o":"m 299 94 q 353 118 325 94 q 408 177 382 142 q 455 255 433 213 q 492 333 476 297 l 543 608 q 512 624 526 619 q 474 629 497 629 q 374 592 418 629 q 299 497 329 556 q 252 364 268 438 q 236 217 236 290 q 251 124 236 153 q 299 94 267 94 m 471 221 q 426 134 453 176 q 364 58 399 92 q 288 4 329 25 q 197 -17 246 -17 q 82 36 125 -17 q 39 193 39 89 q 69 395 39 301 q 153 559 99 489 q 286 669 208 629 q 460 708 364 708 q 522 700 496 708 q 576 679 547 692 q 654 700 613 693 q 754 707 696 707 l 638 96 l 735 96 l 735 49 q 698 26 721 38 q 648 7 675 15 q 592 -7 621 -1 q 539 -12 564 -12 q 469 8 490 -12 q 449 51 449 29 q 456 117 449 76 q 476 221 463 158 l 471 221 m 738 1006 q 697 930 722 965 q 638 868 671 894 q 568 826 606 842 q 492 811 531 811 q 361 866 410 811 q 310 1008 313 921 l 361 1039 q 417 979 383 1003 q 496 954 451 956 q 548 958 521 954 q 601 972 575 963 q 650 997 626 982 q 692 1033 674 1013 l 738 1006 z "},"Ą":{"ha":1006,"x_min":-61,"x_max":961,"o":"m 285 0 l -61 0 l -51 53 q 1 77 -26 67 q 57 93 29 88 l 607 989 l 708 989 l 865 93 q 917 76 892 88 q 961 53 943 65 l 956 25 l 950 0 l 904 0 q 807 -90 844 -37 q 769 -187 769 -143 q 791 -243 769 -224 q 844 -262 813 -262 q 876 -261 861 -262 q 908 -256 892 -260 l 908 -315 q 851 -342 889 -331 q 768 -354 813 -354 q 638 -315 683 -354 q 593 -218 593 -275 q 650 -90 593 -143 q 801 0 707 -37 l 522 0 l 532 53 q 594 77 561 67 q 656 93 626 88 l 622 314 l 315 314 l 183 93 q 242 78 213 89 q 294 53 271 68 l 285 0 m 363 404 l 611 404 l 572 669 l 572 789 l 569 789 l 517 667 l 363 404 z "},"ą":{"ha":782,"x_min":39,"x_max":754,"o":"m 471 221 q 426 134 453 176 q 364 58 399 92 q 288 4 329 25 q 197 -17 246 -17 q 82 36 125 -17 q 39 193 39 89 q 69 395 39 301 q 153 559 99 489 q 286 669 208 629 q 460 708 364 708 q 522 700 496 708 q 576 679 547 692 q 654 700 613 693 q 754 707 696 707 l 638 96 l 735 96 l 735 49 q 675 17 711 29 q 628 -17 651 1 q 585 -60 604 -36 q 555 -110 567 -83 q 543 -165 543 -136 q 561 -216 543 -197 q 613 -235 579 -235 q 640 -232 626 -235 q 672 -222 653 -229 l 672 -279 q 646 -294 661 -287 q 613 -304 631 -300 q 578 -311 594 -308 q 549 -314 561 -314 q 412 -276 453 -314 q 371 -186 371 -239 q 410 -85 371 -128 q 519 -11 450 -43 q 465 13 482 -7 q 449 51 449 32 q 456 117 449 76 q 476 221 463 158 l 471 221 m 299 94 q 353 118 325 94 q 408 177 382 142 q 455 255 433 213 q 492 333 476 297 l 543 608 q 512 624 526 619 q 474 629 497 629 q 374 592 418 629 q 299 497 329 556 q 252 364 268 438 q 236 217 236 290 q 251 124 236 153 q 299 94 267 94 z "},"Ć":{"ha":906,"x_min":82,"x_max":965,"o":"m 779 292 l 838 292 q 836 238 838 269 q 831 172 835 207 q 821 101 826 136 q 808 39 815 67 q 744 13 779 24 q 672 -4 708 3 q 603 -14 636 -11 q 544 -17 569 -17 q 329 18 417 -17 q 186 108 242 53 q 106 233 131 164 q 82 374 82 303 q 122 624 82 511 q 240 819 163 738 q 428 944 317 900 q 682 989 540 989 q 847 976 774 989 q 965 940 919 963 q 951 883 961 918 q 929 810 942 849 q 903 735 917 772 q 876 674 889 699 l 818 674 l 786 883 q 744 894 774 890 q 686 899 715 899 q 538 860 606 899 q 422 750 471 821 q 345 578 372 679 q 318 354 318 478 q 340 223 318 276 q 398 136 363 169 q 476 88 433 103 q 558 74 518 74 q 628 81 599 74 q 671 97 657 89 l 779 292 m 751 1247 q 802 1244 774 1249 q 858 1233 831 1240 q 906 1215 885 1225 q 936 1196 928 1206 l 936 1168 l 593 1035 l 554 1068 l 751 1247 z "},"ć":{"ha":618,"x_min":38,"x_max":679,"o":"m 572 151 q 525 92 554 122 q 458 38 496 61 q 374 -1 419 14 q 276 -17 328 -17 q 102 49 167 -17 q 38 231 38 114 q 67 415 38 328 q 151 569 97 503 q 283 673 206 635 q 454 711 360 711 q 563 698 517 711 q 625 667 610 685 q 620 628 626 651 q 601 583 614 606 q 572 540 589 560 q 536 511 554 519 l 451 632 q 376 606 414 632 q 307 533 338 581 q 257 417 276 485 q 238 265 238 350 q 272 141 238 181 q 365 101 307 101 q 419 110 393 101 q 467 132 444 119 q 508 159 489 144 q 540 186 526 174 l 572 151 m 508 1060 q 545 1062 519 1063 q 599 1057 571 1061 q 649 1045 626 1053 q 679 1029 672 1038 l 679 996 l 400 781 l 344 811 l 508 1060 z "},"Ĉ":{"ha":906,"x_min":82,"x_max":965,"o":"m 779 292 l 838 292 q 836 238 838 269 q 831 172 835 207 q 821 101 826 136 q 808 39 815 67 q 744 13 779 24 q 672 -4 708 3 q 603 -14 636 -11 q 544 -17 569 -17 q 329 18 417 -17 q 186 108 242 53 q 106 233 131 164 q 82 374 82 303 q 122 624 82 511 q 240 819 163 738 q 428 944 317 900 q 682 989 540 989 q 847 976 774 989 q 965 940 919 963 q 951 883 961 918 q 929 810 942 849 q 903 735 917 772 q 876 674 889 699 l 818 674 l 786 883 q 744 894 774 890 q 686 899 715 899 q 538 860 606 899 q 422 750 471 821 q 345 578 372 679 q 318 354 318 478 q 340 223 318 276 q 398 136 363 169 q 476 88 433 103 q 558 74 518 74 q 628 81 599 74 q 671 97 657 89 l 779 292 m 492 1032 l 453 1071 l 692 1233 q 738 1240 708 1243 q 778 1233 764 1240 l 889 1075 l 850 1033 l 706 1111 l 492 1032 z "},"ĉ":{"ha":618,"x_min":38,"x_max":638,"o":"m 572 151 q 525 92 554 122 q 458 38 496 61 q 374 -1 419 14 q 276 -17 328 -17 q 102 49 167 -17 q 38 231 38 114 q 67 415 38 328 q 151 569 97 503 q 283 673 206 635 q 454 711 360 711 q 563 698 517 711 q 625 667 610 685 q 620 628 626 651 q 601 583 614 606 q 572 540 589 560 q 536 511 554 519 l 451 632 q 376 606 414 632 q 307 533 338 581 q 257 417 276 485 q 238 265 238 350 q 272 141 238 181 q 365 101 307 101 q 419 110 393 101 q 467 132 444 119 q 508 159 489 144 q 540 186 526 174 l 572 151 m 313 801 l 254 836 l 476 1094 q 491 1101 481 1099 q 513 1103 501 1103 q 549 1094 536 1103 l 638 838 l 581 801 l 476 938 l 313 801 z "},"Č":{"ha":906,"x_min":82,"x_max":965,"o":"m 779 292 l 838 292 q 836 238 838 269 q 831 172 835 207 q 821 101 826 136 q 808 39 815 67 q 744 13 779 24 q 672 -4 708 3 q 603 -14 636 -11 q 544 -17 569 -17 q 329 18 417 -17 q 186 108 242 53 q 106 233 131 164 q 82 374 82 303 q 122 624 82 511 q 240 819 163 738 q 428 944 317 900 q 682 989 540 989 q 847 976 774 989 q 965 940 919 963 q 951 883 961 918 q 929 810 942 849 q 903 735 917 772 q 876 674 889 699 l 818 674 l 786 883 q 744 894 774 890 q 686 899 715 899 q 538 860 606 899 q 422 750 471 821 q 345 578 372 679 q 318 354 318 478 q 340 223 318 276 q 398 136 363 169 q 476 88 433 103 q 558 74 518 74 q 628 81 599 74 q 671 97 657 89 l 779 292 m 906 1253 q 933 1238 917 1253 q 953 1210 949 1224 l 721 1054 q 702 1047 714 1050 q 676 1046 690 1044 q 653 1048 665 1046 q 635 1054 642 1050 l 517 1206 q 535 1237 521 1221 q 564 1253 550 1253 l 701 1176 l 906 1253 z "},"č":{"ha":618,"x_min":38,"x_max":714,"o":"m 572 151 q 525 92 554 122 q 458 38 496 61 q 374 -1 419 14 q 276 -17 328 -17 q 102 49 167 -17 q 38 231 38 114 q 67 415 38 328 q 151 569 97 503 q 283 673 206 635 q 454 711 360 711 q 563 698 517 711 q 625 667 610 685 q 620 628 626 651 q 601 583 614 606 q 572 540 589 560 q 536 511 554 519 l 451 632 q 376 606 414 632 q 307 533 338 581 q 257 417 276 485 q 238 265 238 350 q 272 141 238 181 q 365 101 307 101 q 419 110 393 101 q 467 132 444 119 q 508 159 489 144 q 540 186 526 174 l 572 151 m 656 1100 q 690 1087 669 1100 q 714 1065 711 1074 l 474 814 q 458 808 468 810 q 436 807 447 807 q 401 814 415 807 l 289 1064 q 299 1074 290 1068 q 317 1086 307 1081 q 338 1096 328 1092 q 356 1100 349 1100 l 467 971 l 656 1100 z "},"Ď":{"ha":1019,"x_min":-33,"x_max":1026,"o":"m -33 0 l -24 53 q 35 77 3 67 q 100 93 67 88 l 267 879 q 208 897 235 886 q 161 919 181 907 l 172 972 l 333 972 q 392 974 357 972 q 466 977 428 975 q 540 981 504 979 q 600 983 575 983 q 798 958 717 983 q 930 888 879 933 q 1003 778 981 842 q 1026 639 1026 715 q 1013 481 1026 560 q 967 331 999 403 q 885 196 935 258 q 762 87 835 133 q 593 14 689 40 q 374 -12 497 -12 q 324 -10 356 -12 q 257 -6 293 -8 q 185 -2 221 -4 q 124 0 150 0 l -33 0 m 568 893 q 521 892 543 893 q 479 888 499 890 l 308 83 q 356 79 329 81 q 397 78 382 78 q 586 131 510 78 q 710 269 663 185 q 777 456 757 353 q 797 657 797 558 q 786 758 797 714 q 749 833 775 803 q 678 878 722 863 q 568 893 633 893 m 826 1253 q 853 1238 838 1253 q 874 1210 869 1224 l 642 1054 q 623 1047 635 1050 q 597 1046 611 1044 q 574 1048 586 1046 q 556 1054 563 1050 l 438 1206 q 456 1237 442 1221 q 485 1253 471 1253 l 622 1176 l 826 1253 z "},"ď":{"ha":792,"x_min":40,"x_max":1081,"o":"m 299 94 q 356 119 328 94 q 410 179 385 143 q 458 257 436 215 q 494 333 479 299 l 544 607 q 510 623 526 618 q 472 628 494 628 q 376 592 419 628 q 301 499 332 557 q 254 367 271 442 q 238 215 238 293 q 299 94 238 94 m 472 221 q 423 129 451 172 q 360 54 394 86 q 286 3 326 22 q 201 -17 246 -17 q 85 38 131 -17 q 40 201 40 92 q 67 391 40 300 q 147 552 94 482 q 274 665 199 622 q 447 707 350 707 q 515 701 493 707 q 560 685 536 696 l 607 929 l 511 947 l 511 994 q 568 1011 532 1003 q 645 1026 604 1019 q 726 1038 686 1033 q 790 1044 765 1043 l 818 1029 l 639 96 l 739 96 l 739 49 q 702 26 725 38 q 652 7 679 15 q 596 -7 625 -1 q 542 -12 567 -12 q 472 10 493 -12 q 451 56 451 32 q 458 124 451 79 q 478 221 465 168 l 472 221 m 807 742 q 841 808 825 772 q 869 880 857 843 q 888 951 881 917 q 894 1014 894 986 l 924 1049 q 955 1047 933 1050 q 1001 1037 976 1043 q 1047 1022 1025 1031 q 1081 1004 1069 1014 q 1049 922 1074 965 q 989 837 1024 878 q 916 763 954 796 q 847 714 878 731 l 807 742 z "},"Đ":{"ha":1019,"x_min":-33,"x_max":1026,"o":"m -33 0 l -24 53 q 35 77 3 67 q 100 93 67 88 l 176 457 l 56 457 l 74 540 l 194 540 l 267 879 q 208 897 235 886 q 161 919 181 907 l 172 972 l 333 972 q 392 974 357 972 q 466 977 428 975 q 540 981 504 979 q 600 983 575 983 q 798 958 717 983 q 930 888 879 933 q 1003 778 981 842 q 1026 639 1026 715 q 1013 481 1026 560 q 967 331 999 403 q 885 196 935 258 q 762 87 835 133 q 593 14 689 40 q 374 -12 497 -12 q 324 -10 356 -12 q 257 -6 293 -8 q 185 -2 221 -4 q 124 0 150 0 l -33 0 m 568 893 q 515 892 543 893 q 468 888 488 890 l 393 540 l 604 540 l 586 457 l 376 457 l 297 83 q 350 79 318 81 q 397 78 382 78 q 586 131 510 78 q 710 269 663 185 q 777 456 757 353 q 797 657 797 558 q 786 758 797 714 q 749 833 775 803 q 678 878 722 863 q 568 893 633 893 z "},"đ":{"ha":792,"x_min":40,"x_max":893,"o":"m 383 861 l 593 861 l 607 929 l 511 947 l 511 994 q 568 1011 532 1003 q 645 1026 604 1019 q 726 1038 686 1033 q 790 1044 765 1043 l 818 1029 l 786 861 l 893 861 l 874 776 l 769 776 l 639 96 l 739 96 l 739 49 q 702 26 725 38 q 652 7 679 15 q 596 -7 625 -1 q 542 -12 567 -12 q 472 10 493 -12 q 451 56 451 32 q 458 124 451 79 q 478 221 465 168 l 472 221 q 423 129 451 172 q 360 54 394 86 q 286 3 326 22 q 201 -17 246 -17 q 85 38 131 -17 q 40 201 40 92 q 67 391 40 300 q 147 552 94 482 q 274 665 199 622 q 447 707 350 707 q 515 701 493 707 q 560 685 536 696 l 576 776 l 364 776 l 383 861 m 299 94 q 356 119 328 94 q 410 179 385 143 q 458 257 436 215 q 494 333 479 299 l 544 607 q 510 623 526 618 q 472 628 494 628 q 376 592 419 628 q 301 499 332 557 q 254 367 271 442 q 238 215 238 293 q 299 94 238 94 z "},"Ē":{"ha":836,"x_min":-33,"x_max":903,"o":"m 903 972 q 868 843 889 910 q 822 718 847 776 l 764 718 l 735 882 l 475 882 l 403 542 l 574 542 l 657 649 l 700 649 q 676 497 693 581 q 636 342 658 414 l 592 342 l 554 451 l 383 451 l 308 90 l 578 90 l 689 267 l 747 267 q 745 208 747 242 q 740 139 743 175 q 731 67 736 103 q 718 0 725 31 l -33 0 l -24 53 q 35 76 4 65 q 100 93 67 88 l 267 879 q 211 895 239 885 q 161 919 183 906 l 172 972 l 903 972 m 339 1082 l 360 1179 l 810 1179 l 789 1082 l 339 1082 z "},"ē":{"ha":656,"x_min":38,"x_max":689,"o":"m 596 151 q 551 94 581 124 q 483 40 522 64 q 397 -1 444 15 q 299 -17 350 -17 q 106 51 175 -17 q 38 242 38 118 q 68 422 38 338 q 153 572 99 507 q 284 674 208 636 q 450 711 360 711 q 588 673 533 711 q 642 568 642 635 q 548 413 642 474 q 244 336 454 351 q 238 297 240 317 q 236 258 236 276 q 276 137 236 179 q 379 94 317 94 q 432 103 406 94 q 483 125 458 111 q 527 155 507 139 q 563 186 547 171 l 596 151 m 418 632 q 327 581 371 632 q 254 407 283 529 q 420 453 357 410 q 483 565 483 496 q 469 613 483 593 q 418 632 454 632 m 260 860 l 281 957 l 689 957 l 668 860 l 260 860 z "},"Ė":{"ha":836,"x_min":-33,"x_max":903,"o":"m 903 972 q 868 843 889 910 q 822 718 847 776 l 764 718 l 735 882 l 475 882 l 403 542 l 574 542 l 657 649 l 700 649 q 676 497 693 581 q 636 342 658 414 l 592 342 l 554 451 l 383 451 l 308 90 l 578 90 l 689 267 l 747 267 q 745 208 747 242 q 740 139 743 175 q 731 67 736 103 q 718 0 725 31 l -33 0 l -24 53 q 35 76 4 65 q 100 93 67 88 l 267 879 q 211 895 239 885 q 161 919 183 906 l 172 972 l 903 972 m 451 1138 q 483 1206 451 1182 q 578 1229 515 1229 q 671 1206 640 1229 q 701 1138 701 1182 q 671 1071 701 1094 q 578 1047 640 1047 q 483 1071 515 1047 q 451 1138 451 1094 z "},"ė":{"ha":656,"x_min":38,"x_max":642,"o":"m 596 151 q 551 94 581 124 q 483 40 522 64 q 397 -1 444 15 q 299 -17 350 -17 q 106 51 175 -17 q 38 242 38 118 q 68 422 38 338 q 153 572 99 507 q 284 674 208 636 q 450 711 360 711 q 588 673 533 711 q 642 568 642 635 q 548 413 642 474 q 244 336 454 351 q 238 297 240 317 q 236 258 236 276 q 276 137 236 179 q 379 94 317 94 q 432 103 406 94 q 483 125 458 111 q 527 155 507 139 q 563 186 547 171 l 596 151 m 418 632 q 327 581 371 632 q 254 407 283 529 q 420 453 357 410 q 483 565 483 496 q 469 613 483 593 q 418 632 454 632 m 363 926 q 394 1000 363 974 q 475 1026 426 1026 q 559 1000 528 1026 q 590 926 590 974 q 559 856 590 882 q 475 829 528 829 q 394 856 426 829 q 363 926 363 882 z "},"Ę":{"ha":836,"x_min":-33,"x_max":903,"o":"m 903 972 q 868 843 889 910 q 822 718 847 776 l 764 718 l 735 882 l 475 882 l 403 542 l 574 542 l 657 649 l 700 649 q 676 497 693 581 q 636 342 658 414 l 592 342 l 554 451 l 383 451 l 308 90 l 578 90 l 689 267 l 747 267 q 745 208 747 242 q 740 139 743 175 q 731 67 736 103 q 718 0 725 31 l 656 0 q 558 -90 596 -37 q 521 -187 521 -143 q 542 -243 521 -224 q 596 -262 564 -262 q 628 -261 613 -262 q 660 -256 643 -260 l 660 -315 q 602 -342 640 -331 q 519 -354 564 -354 q 390 -315 435 -354 q 344 -218 344 -275 q 401 -90 344 -143 q 553 0 458 -37 l -33 0 l -24 53 q 35 76 4 65 q 100 93 67 88 l 267 879 q 211 895 239 885 q 161 919 183 906 l 172 972 l 903 972 z "},"ę":{"ha":656,"x_min":38,"x_max":642,"o":"m 596 151 q 535 77 576 115 q 439 14 494 39 q 392 -19 415 0 q 349 -62 368 -39 q 319 -110 331 -85 q 308 -165 308 -136 q 326 -216 308 -197 q 378 -235 344 -235 q 405 -232 392 -235 q 438 -222 418 -229 l 438 -279 q 411 -294 426 -287 q 378 -304 396 -300 q 343 -311 360 -308 q 314 -314 326 -314 q 177 -276 218 -314 q 136 -186 136 -239 q 173 -88 136 -129 q 276 -15 210 -47 q 100 57 163 -8 q 38 242 38 122 q 68 422 38 338 q 153 572 99 507 q 284 674 208 636 q 450 711 360 711 q 588 673 533 711 q 642 568 642 635 q 548 413 642 474 q 244 336 454 351 q 238 297 240 317 q 236 258 236 276 q 276 138 236 182 q 379 94 315 94 q 432 103 406 94 q 483 125 458 111 q 527 155 507 139 q 563 186 547 171 l 596 151 m 418 632 q 327 581 371 632 q 254 407 283 529 q 420 453 357 410 q 483 565 483 496 q 469 613 483 593 q 418 632 454 632 z "},"Ě":{"ha":836,"x_min":-33,"x_max":903,"o":"m 903 972 q 868 843 889 910 q 822 718 847 776 l 764 718 l 735 882 l 475 882 l 403 542 l 574 542 l 657 649 l 700 649 q 676 497 693 581 q 636 342 658 414 l 592 342 l 554 451 l 383 451 l 308 90 l 578 90 l 689 267 l 747 267 q 745 208 747 242 q 740 139 743 175 q 731 67 736 103 q 718 0 725 31 l -33 0 l -24 53 q 35 76 4 65 q 100 93 67 88 l 267 879 q 211 895 239 885 q 161 919 183 906 l 172 972 l 903 972 m 801 1253 q 828 1238 813 1253 q 849 1210 844 1224 l 617 1054 q 598 1047 610 1050 q 572 1046 586 1044 q 549 1048 561 1046 q 531 1054 538 1050 l 413 1206 q 431 1237 417 1221 q 460 1253 446 1253 l 597 1176 l 801 1253 z "},"ě":{"ha":656,"x_min":38,"x_max":704,"o":"m 596 151 q 551 94 581 124 q 483 40 522 64 q 397 -1 444 15 q 299 -17 350 -17 q 106 51 175 -17 q 38 242 38 118 q 68 422 38 338 q 153 572 99 507 q 284 674 208 636 q 450 711 360 711 q 588 673 533 711 q 642 568 642 635 q 548 413 642 474 q 244 336 454 351 q 238 297 240 317 q 236 258 236 276 q 276 137 236 179 q 379 94 317 94 q 432 103 406 94 q 483 125 458 111 q 527 155 507 139 q 563 186 547 171 l 596 151 m 418 632 q 327 581 371 632 q 254 407 283 529 q 420 453 357 410 q 483 565 483 496 q 469 613 483 593 q 418 632 454 632 m 646 1100 q 681 1087 660 1100 q 704 1065 701 1074 l 464 814 q 448 808 458 810 q 426 807 438 807 q 392 814 406 807 l 279 1064 q 289 1074 281 1068 q 308 1086 297 1081 q 328 1096 318 1092 q 346 1100 339 1100 l 457 971 l 646 1100 z "},"Ĝ":{"ha":985,"x_min":82,"x_max":1008,"o":"m 838 61 q 759 28 803 43 q 670 4 715 14 q 583 -11 625 -6 q 511 -17 542 -17 q 338 7 417 -17 q 201 79 258 31 q 113 201 144 128 q 82 375 82 275 q 123 625 82 513 q 241 819 164 738 q 431 944 318 900 q 685 989 543 989 q 776 985 731 989 q 862 976 821 982 q 936 960 903 969 q 990 940 969 951 q 976 887 986 919 q 954 817 967 854 q 928 742 942 779 q 900 674 914 704 l 843 674 l 811 885 q 756 895 792 892 q 690 899 721 899 q 527 853 597 899 q 410 732 457 808 q 341 556 364 656 q 318 346 318 456 q 335 222 318 274 q 380 138 351 171 q 447 89 408 104 q 529 74 485 74 q 613 85 569 74 q 682 111 657 96 l 738 372 q 672 386 703 375 q 618 413 642 397 l 629 465 l 1008 465 l 997 413 q 959 390 982 400 q 903 372 936 379 l 838 61 m 526 1032 l 488 1071 l 726 1233 q 772 1240 743 1243 q 813 1233 799 1240 l 924 1075 l 885 1033 l 740 1111 l 526 1032 z "},"ĝ":{"ha":722,"x_min":-82,"x_max":815,"o":"m 408 711 q 538 693 488 711 q 613 656 589 675 q 650 681 626 668 q 701 706 674 694 q 755 728 728 718 q 804 744 782 738 q 813 711 811 732 q 813 669 815 690 q 804 628 811 647 q 786 596 797 608 l 649 611 q 660 582 656 600 q 665 542 665 564 q 642 447 665 492 q 573 368 618 401 q 465 315 528 335 q 322 294 401 294 q 284 295 299 294 q 251 300 269 296 q 235 288 244 294 q 217 275 226 282 q 202 259 208 268 q 196 239 196 250 q 231 207 196 218 q 317 188 265 196 q 429 168 368 179 q 542 136 490 157 q 628 80 593 115 q 663 -14 663 44 q 622 -129 663 -78 q 515 -217 581 -181 q 366 -274 449 -254 q 199 -294 283 -294 q 76 -281 129 -294 q -12 -245 24 -268 q -65 -193 -47 -222 q -82 -132 -82 -164 q -19 -10 -82 -60 q 139 71 43 39 q 81 108 103 86 q 60 163 60 129 q 72 206 60 183 q 104 249 85 228 q 147 287 124 269 q 194 315 171 304 q 151 332 174 319 q 109 363 128 344 q 78 408 90 382 q 65 463 65 433 q 89 563 65 517 q 157 641 113 608 q 265 692 201 674 q 408 711 328 711 m 264 -215 q 337 -206 301 -215 q 400 -180 372 -197 q 445 -136 428 -162 q 463 -74 463 -110 q 435 -20 463 -40 q 367 13 408 0 q 276 35 325 26 q 182 54 226 43 q 124 -15 143 25 q 104 -96 104 -56 q 147 -183 104 -151 q 264 -215 190 -215 m 392 635 q 333 621 358 635 q 292 583 308 607 q 267 528 275 560 q 258 460 258 496 q 283 391 258 411 q 335 371 307 371 q 393 385 368 371 q 435 422 418 399 q 460 475 451 444 q 468 540 468 506 q 449 608 468 582 q 392 635 429 635 m 296 801 l 238 836 l 460 1094 q 474 1101 464 1099 q 496 1103 485 1103 q 532 1094 519 1103 l 621 838 l 564 801 l 460 938 l 296 801 z "},"Ğ":{"ha":985,"x_min":82,"x_max":1008,"o":"m 838 61 q 759 28 803 43 q 670 4 715 14 q 583 -11 625 -6 q 511 -17 542 -17 q 338 7 417 -17 q 201 79 258 31 q 113 201 144 128 q 82 375 82 275 q 123 625 82 513 q 241 819 164 738 q 431 944 318 900 q 685 989 543 989 q 776 985 731 989 q 862 976 821 982 q 936 960 903 969 q 990 940 969 951 q 976 887 986 919 q 954 817 967 854 q 928 742 942 779 q 900 674 914 704 l 843 674 l 811 885 q 756 895 792 892 q 690 899 721 899 q 527 853 597 899 q 410 732 457 808 q 341 556 364 656 q 318 346 318 456 q 335 222 318 274 q 380 138 351 171 q 447 89 408 104 q 529 74 485 74 q 613 85 569 74 q 682 111 657 96 l 738 372 q 672 386 703 375 q 618 413 642 397 l 629 465 l 1008 465 l 997 413 q 959 390 982 400 q 903 372 936 379 l 838 61 m 919 1246 q 948 1238 929 1247 q 976 1214 967 1228 q 935 1158 963 1186 q 870 1106 907 1129 q 790 1069 833 1083 q 704 1054 747 1054 q 563 1102 611 1054 q 507 1217 514 1150 q 537 1243 517 1233 q 578 1250 557 1253 q 628 1202 593 1219 q 711 1183 663 1185 q 767 1187 738 1183 q 824 1199 796 1190 q 876 1219 851 1207 q 919 1246 901 1231 z "},"ğ":{"ha":722,"x_min":-82,"x_max":815,"o":"m 408 711 q 538 693 488 711 q 613 656 589 675 q 650 681 626 668 q 701 706 674 694 q 755 728 728 718 q 804 744 782 738 q 813 711 811 732 q 813 669 815 690 q 804 628 811 647 q 786 596 797 608 l 649 611 q 660 582 656 600 q 665 542 665 564 q 642 447 665 492 q 573 368 618 401 q 465 315 528 335 q 322 294 401 294 q 284 295 299 294 q 251 300 269 296 q 235 288 244 294 q 217 275 226 282 q 202 259 208 268 q 196 239 196 250 q 231 207 196 218 q 317 188 265 196 q 429 168 368 179 q 542 136 490 157 q 628 80 593 115 q 663 -14 663 44 q 622 -129 663 -78 q 515 -217 581 -181 q 366 -274 449 -254 q 199 -294 283 -294 q 76 -281 129 -294 q -12 -245 24 -268 q -65 -193 -47 -222 q -82 -132 -82 -164 q -19 -10 -82 -60 q 139 71 43 39 q 81 108 103 86 q 60 163 60 129 q 72 206 60 183 q 104 249 85 228 q 147 287 124 269 q 194 315 171 304 q 151 332 174 319 q 109 363 128 344 q 78 408 90 382 q 65 463 65 433 q 89 563 65 517 q 157 641 113 608 q 265 692 201 674 q 408 711 328 711 m 264 -215 q 337 -206 301 -215 q 400 -180 372 -197 q 445 -136 428 -162 q 463 -74 463 -110 q 435 -20 463 -40 q 367 13 408 0 q 276 35 325 26 q 182 54 226 43 q 124 -15 143 25 q 104 -96 104 -56 q 147 -183 104 -151 q 264 -215 190 -215 m 392 635 q 333 621 358 635 q 292 583 308 607 q 267 528 275 560 q 258 460 258 496 q 283 391 258 411 q 335 371 307 371 q 393 385 368 371 q 435 422 418 399 q 460 475 451 444 q 468 540 468 506 q 449 608 468 582 q 392 635 429 635 m 681 1006 q 640 930 665 965 q 581 868 614 894 q 511 826 549 842 q 435 811 474 811 q 304 866 353 811 q 253 1008 256 921 l 304 1039 q 360 979 326 1003 q 439 954 394 956 q 491 958 464 954 q 544 972 518 963 q 593 997 569 982 q 635 1033 617 1013 l 681 1006 z "},"Ģ":{"ha":985,"x_min":82,"x_max":1008,"o":"m 838 61 q 759 28 803 43 q 670 4 715 14 q 583 -11 625 -6 q 511 -17 542 -17 q 338 7 417 -17 q 201 79 258 31 q 113 201 144 128 q 82 375 82 275 q 123 625 82 513 q 241 819 164 738 q 431 944 318 900 q 685 989 543 989 q 776 985 731 989 q 862 976 821 982 q 936 960 903 969 q 990 940 969 951 q 976 887 986 919 q 954 817 967 854 q 928 742 942 779 q 900 674 914 704 l 843 674 l 811 885 q 756 895 792 892 q 690 899 721 899 q 527 853 597 899 q 410 732 457 808 q 341 556 364 656 q 318 346 318 456 q 335 222 318 274 q 380 138 351 171 q 447 89 408 104 q 529 74 485 74 q 613 85 569 74 q 682 111 657 96 l 738 372 q 672 386 703 375 q 618 413 642 397 l 629 465 l 1008 465 l 997 413 q 959 390 982 400 q 903 372 936 379 l 838 61 m 336 -336 q 463 -244 447 -312 q 428 -209 450 -224 q 381 -187 407 -194 q 390 -144 379 -167 q 418 -103 400 -122 q 458 -72 436 -85 q 501 -58 481 -60 q 602 -92 563 -62 q 640 -179 642 -122 q 619 -258 640 -221 q 559 -324 597 -294 q 468 -372 521 -353 q 351 -397 415 -392 l 336 -336 z "},"ģ":{"ha":722,"x_min":-82,"x_max":815,"o":"m 408 711 q 538 693 488 711 q 613 656 589 675 q 650 681 626 668 q 701 706 674 694 q 755 728 728 718 q 804 744 782 738 q 813 711 811 732 q 813 669 815 690 q 804 628 811 647 q 786 596 797 608 l 649 611 q 660 582 656 600 q 665 542 665 564 q 642 447 665 492 q 573 368 618 401 q 465 315 528 335 q 322 294 401 294 q 284 295 299 294 q 251 300 269 296 q 235 288 244 294 q 217 275 226 282 q 202 259 208 268 q 196 239 196 250 q 231 207 196 218 q 317 188 265 196 q 429 168 368 179 q 542 136 490 157 q 628 80 593 115 q 663 -14 663 44 q 622 -129 663 -78 q 515 -217 581 -181 q 366 -274 449 -254 q 199 -294 283 -294 q 76 -281 129 -294 q -12 -245 24 -268 q -65 -193 -47 -222 q -82 -132 -82 -164 q -19 -10 -82 -60 q 139 71 43 39 q 81 108 103 86 q 60 163 60 129 q 72 206 60 183 q 104 249 85 228 q 147 287 124 269 q 194 315 171 304 q 151 332 174 319 q 109 363 128 344 q 78 408 90 382 q 65 463 65 433 q 89 563 65 517 q 157 641 113 608 q 265 692 201 674 q 408 711 328 711 m 264 -215 q 337 -206 301 -215 q 400 -180 372 -197 q 445 -136 428 -162 q 463 -74 463 -110 q 435 -20 463 -40 q 367 13 408 0 q 276 35 325 26 q 182 54 226 43 q 124 -15 143 25 q 104 -96 104 -56 q 147 -183 104 -151 q 264 -215 190 -215 m 392 635 q 333 621 358 635 q 292 583 308 607 q 267 528 275 560 q 258 460 258 496 q 283 391 258 411 q 335 371 307 371 q 393 385 368 371 q 435 422 418 399 q 460 475 451 444 q 468 540 468 506 q 449 608 468 582 q 392 635 429 635 m 581 1060 q 497 1024 528 1049 q 460 968 467 1000 q 492 935 471 949 q 540 914 513 921 q 531 871 542 893 q 504 831 521 849 q 466 800 488 812 q 424 786 444 787 q 339 815 371 789 q 308 899 307 842 q 327 976 308 939 q 380 1042 346 1012 q 462 1092 414 1072 q 568 1117 510 1111 l 581 1060 z "},"Ĥ":{"ha":1064,"x_min":-33,"x_max":1185,"o":"m 388 0 l -33 0 l -24 53 q 37 77 4 67 q 100 93 69 88 l 267 879 q 207 896 235 885 q 161 919 179 907 l 172 972 l 593 972 l 582 919 q 532 894 561 904 q 475 879 503 885 l 403 543 l 771 543 l 843 879 q 753 919 783 894 l 764 972 l 1185 972 l 1174 919 q 1115 894 1147 904 q 1051 879 1082 883 l 885 93 q 942 76 915 88 q 989 53 969 65 l 979 0 l 558 0 l 568 53 q 619 76 592 65 q 676 93 647 88 l 751 453 l 383 453 l 308 93 q 397 53 356 83 l 388 0 m 514 1032 l 475 1071 l 714 1233 q 760 1240 731 1243 q 800 1233 786 1240 l 911 1075 l 872 1033 l 728 1111 l 514 1032 z "},"ĥ":{"ha":807,"x_min":29,"x_max":743,"o":"m 125 947 l 125 992 q 178 1009 146 1000 q 249 1026 211 1018 q 328 1039 288 1033 q 404 1044 368 1044 l 433 1032 l 317 492 l 324 492 q 383 576 350 536 q 451 647 415 617 q 528 694 488 676 q 610 711 568 711 q 708 674 674 711 q 743 583 743 638 q 736 503 743 546 q 719 419 729 460 l 640 96 l 743 96 l 743 49 q 662 7 715 26 q 540 -12 608 -12 q 474 6 494 -12 q 453 51 453 25 q 459 103 453 76 q 472 164 465 129 l 524 396 q 541 474 533 439 q 549 542 549 510 q 538 583 549 567 q 507 600 528 600 q 443 577 475 600 q 383 522 411 554 q 334 456 356 490 q 303 397 313 421 l 221 0 l 29 0 l 217 929 l 125 947 m 196 1046 l 157 1085 l 396 1247 q 442 1254 413 1257 q 482 1247 468 1254 l 593 1089 l 554 1047 l 410 1125 l 196 1046 z "},"Ħ":{"ha":1086,"x_min":-33,"x_max":1185,"o":"m 140 779 l 244 779 l 267 879 q 207 896 235 885 q 161 919 179 907 l 172 972 l 593 972 l 582 919 q 532 894 561 904 q 475 879 503 885 l 453 779 l 821 779 l 843 879 q 753 919 783 894 l 764 972 l 1185 972 l 1174 919 q 1115 894 1147 904 q 1051 879 1082 883 l 1031 779 l 1136 779 l 1117 692 l 1011 692 l 885 93 q 942 76 915 88 q 989 53 969 65 l 979 0 l 558 0 l 568 53 q 619 76 592 65 q 676 93 647 88 l 751 453 l 383 453 l 308 93 q 397 53 356 83 l 388 0 l -33 0 l -24 53 q 37 77 4 67 q 100 93 69 88 l 226 692 l 121 692 l 140 779 m 771 543 l 803 692 l 435 692 l 403 543 l 771 543 z "},"ħ":{"ha":807,"x_min":29,"x_max":743,"o":"m 92 854 l 201 854 l 217 929 l 125 947 l 125 992 q 178 1009 146 1000 q 249 1026 211 1018 q 328 1039 288 1033 q 404 1044 368 1044 l 433 1032 l 394 854 l 601 854 l 582 769 l 376 769 l 317 492 l 324 492 q 383 576 350 536 q 451 647 415 617 q 528 694 488 676 q 610 711 568 711 q 708 674 674 711 q 743 583 743 638 q 736 503 743 546 q 719 419 729 460 l 640 96 l 743 96 l 743 49 q 662 7 715 26 q 540 -12 608 -12 q 474 6 494 -12 q 453 51 453 25 q 459 103 453 76 q 472 164 465 129 l 524 396 q 541 474 533 439 q 549 542 549 510 q 538 583 549 567 q 507 600 528 600 q 443 577 475 600 q 383 522 411 554 q 334 456 356 490 q 303 397 313 421 l 221 0 l 29 0 l 185 769 l 72 769 l 92 854 z "},"Ī":{"ha":513,"x_min":-19,"x_max":661,"o":"m 414 0 l -19 0 l -10 53 q 113 93 56 83 l 279 879 q 224 894 251 883 q 175 919 197 904 l 186 972 l 619 972 l 608 919 q 548 894 581 904 q 488 879 515 883 l 321 93 q 375 78 347 88 q 424 53 403 68 l 414 0 m 190 1082 l 211 1179 l 661 1179 l 640 1082 l 190 1082 z "},"ī":{"ha":422,"x_min":58,"x_max":528,"o":"m 82 614 l 82 661 q 138 678 103 669 q 211 694 172 688 q 288 706 250 701 q 356 711 326 711 l 381 694 l 256 96 l 353 96 l 353 49 q 310 25 335 36 q 259 6 286 14 q 204 -8 232 -3 q 151 -12 176 -12 q 78 8 99 -12 q 58 51 58 28 q 63 106 58 79 q 74 164 67 132 l 168 594 l 82 614 m 99 860 l 119 957 l 528 957 l 507 860 l 99 860 z "},"Į":{"ha":513,"x_min":-19,"x_max":619,"o":"m 414 0 l 346 0 q 292 -42 317 -19 q 249 -90 267 -65 q 222 -140 232 -115 q 211 -187 211 -165 q 233 -243 211 -224 q 286 -262 256 -262 q 318 -261 303 -262 q 350 -256 333 -260 l 350 -315 q 293 -342 331 -331 q 211 -354 256 -354 q 81 -315 126 -354 q 35 -218 35 -275 q 92 -90 35 -143 q 243 0 150 -37 l -19 0 l -10 53 q 113 93 56 83 l 279 879 q 224 894 251 883 q 175 919 197 904 l 186 972 l 619 972 l 608 919 q 548 894 581 904 q 488 879 515 883 l 321 93 q 375 78 347 88 q 424 53 403 68 l 414 0 z "},"į":{"ha":422,"x_min":-11,"x_max":424,"o":"m 82 614 l 82 661 q 138 678 103 669 q 211 694 172 688 q 288 706 250 701 q 356 711 326 711 l 381 694 l 256 96 l 353 96 l 353 49 q 292 17 325 29 q 245 -17 268 1 q 203 -60 222 -36 q 173 -110 185 -83 q 161 -165 161 -136 q 178 -216 161 -197 q 229 -235 196 -235 q 290 -222 253 -235 l 290 -279 q 264 -294 279 -287 q 231 -304 249 -300 q 196 -311 213 -308 q 167 -314 179 -314 q 30 -276 71 -314 q -11 -186 -11 -239 q 28 -85 -11 -128 q 135 -11 67 -43 q 76 10 93 -8 q 58 51 58 29 q 63 106 58 79 q 74 164 67 132 l 168 594 l 82 614 m 196 926 q 228 1000 196 974 q 308 1026 260 1026 q 392 1000 361 1026 q 424 926 424 974 q 392 856 424 882 q 308 829 361 829 q 228 856 260 829 q 196 926 196 882 z "},"İ":{"ha":513,"x_min":-19,"x_max":619,"o":"m 414 0 l -19 0 l -10 53 q 113 93 56 83 l 279 879 q 224 894 251 883 q 175 919 197 904 l 186 972 l 619 972 l 608 919 q 548 894 581 904 q 488 879 515 883 l 321 93 q 375 78 347 88 q 424 53 403 68 l 414 0 m 294 1138 q 326 1206 294 1182 q 421 1229 358 1229 q 514 1206 483 1229 q 544 1138 544 1182 q 514 1071 544 1094 q 421 1047 483 1047 q 326 1071 358 1047 q 294 1138 294 1094 z "},"ı":{"ha":422,"x_min":58,"x_max":381,"o":"m 82 614 l 82 661 q 138 678 103 669 q 211 694 172 688 q 288 706 250 701 q 356 711 326 711 l 381 694 l 256 96 l 353 96 l 353 49 q 310 25 335 36 q 259 6 286 14 q 204 -8 232 -3 q 151 -12 176 -12 q 78 8 99 -12 q 58 51 58 28 q 63 106 58 79 q 74 164 67 132 l 168 594 l 82 614 z "},"Ĵ":{"ha":501,"x_min":-60,"x_max":614,"o":"m 179 972 l 608 972 l 597 919 q 541 894 574 904 q 481 879 508 883 l 331 168 q 258 -19 307 54 q 152 -135 208 -92 q 42 -197 96 -178 q -43 -222 -11 -217 l -60 -186 q -9 -142 -33 -168 q 38 -76 15 -115 q 82 21 61 -36 q 121 160 103 78 l 272 879 q 215 895 243 885 q 168 919 188 906 l 179 972 m 217 1032 l 178 1071 l 417 1233 q 463 1240 433 1243 q 503 1233 489 1240 l 614 1075 l 575 1033 l 431 1111 l 217 1032 z "},"ĵ":{"ha":415,"x_min":-112,"x_max":479,"o":"m 165 596 l 83 614 l 83 661 q 136 680 104 671 q 205 696 168 689 q 279 707 242 703 q 350 711 317 711 l 378 694 l 250 60 q 188 -104 229 -39 q 97 -210 146 -169 q -1 -269 49 -250 q -90 -294 -51 -289 l -112 -251 q -74 -225 -96 -243 q -29 -174 -51 -207 q 15 -90 -7 -140 q 51 33 36 -39 l 165 596 m 154 801 l 96 836 l 318 1094 q 333 1101 322 1099 q 354 1103 343 1103 q 390 1094 378 1103 l 479 838 l 422 801 l 318 938 l 154 801 z "},"Ķ":{"ha":979,"x_min":-33,"x_max":1071,"o":"m 693 972 l 1071 972 l 1060 919 q 1002 894 1035 904 q 942 879 969 883 l 606 542 q 660 440 628 496 q 727 325 692 385 q 801 204 763 265 q 876 88 839 143 l 935 47 l 925 0 l 692 0 l 643 39 q 592 131 618 81 q 540 237 565 182 q 492 347 515 292 q 451 456 469 403 l 385 456 l 308 93 q 359 75 336 86 q 397 53 382 64 l 388 0 l -33 0 l -24 53 q 38 78 7 68 q 100 93 69 88 l 267 879 q 207 894 235 883 q 161 919 179 906 l 172 972 l 593 972 l 582 919 q 534 897 563 908 q 475 879 506 886 l 400 526 l 482 546 l 775 879 q 723 897 747 886 q 682 919 699 907 l 693 972 m 272 -336 q 399 -244 383 -312 q 365 -209 386 -224 q 317 -187 343 -194 q 326 -144 315 -167 q 354 -103 336 -122 q 394 -72 372 -85 q 438 -58 417 -60 q 538 -92 499 -62 q 576 -179 578 -122 q 555 -258 576 -221 q 495 -324 533 -294 q 404 -372 457 -353 q 288 -397 351 -392 l 272 -336 z "},"ķ":{"ha":749,"x_min":29,"x_max":757,"o":"m 438 63 q 376 194 399 129 q 332 318 353 260 l 286 332 l 224 0 l 29 0 l 214 929 l 121 947 l 121 994 q 172 1012 140 1003 q 242 1028 204 1021 q 320 1040 279 1035 q 400 1044 361 1044 l 429 1029 l 300 393 l 344 393 q 393 436 368 411 q 440 486 418 461 q 480 535 463 511 q 507 576 497 560 q 509 603 508 586 q 509 637 510 619 q 508 670 508 654 q 506 694 507 686 q 565 708 529 703 q 639 713 601 713 q 709 708 676 713 q 757 694 742 703 q 703 604 739 649 q 627 521 668 560 q 547 451 586 482 q 482 401 507 419 q 512 335 492 375 q 557 251 532 294 q 610 166 582 207 q 661 96 638 125 l 736 96 l 736 49 q 701 26 722 38 q 654 7 679 15 q 603 -7 629 -1 q 551 -12 576 -12 q 490 3 518 -12 q 438 63 461 18 m 172 -332 q 256 -297 225 -321 q 293 -240 286 -272 q 261 -207 282 -221 q 213 -186 240 -193 q 222 -143 211 -165 q 249 -103 232 -121 q 287 -72 265 -85 q 329 -58 308 -60 q 414 -87 382 -61 q 444 -171 446 -114 q 426 -248 444 -211 q 373 -315 407 -285 q 291 -364 339 -344 q 185 -389 243 -383 l 172 -332 z "},"Ĺ":{"ha":801,"x_min":-33,"x_max":779,"o":"m 172 972 l 628 972 l 617 919 q 548 894 586 904 q 475 879 510 883 l 308 90 l 576 90 l 721 339 l 779 339 q 775 264 779 307 q 764 174 771 221 q 748 81 757 126 q 729 0 739 35 l -33 0 l -24 53 q 43 79 13 69 q 100 93 74 89 l 267 879 q 208 894 236 885 q 161 919 181 904 l 172 972 m 553 1247 q 603 1244 575 1249 q 659 1233 632 1240 q 708 1215 686 1225 q 738 1196 729 1206 l 738 1168 l 394 1035 l 356 1068 l 553 1247 z "},"ĺ":{"ha":415,"x_min":46,"x_max":635,"o":"m 213 929 l 118 947 l 118 994 q 171 1011 138 1003 q 243 1027 204 1019 q 323 1040 282 1035 q 399 1044 364 1044 l 426 1029 l 244 96 l 343 96 l 343 49 q 306 26 329 38 q 253 7 282 15 q 194 -7 225 -1 q 136 -12 164 -12 q 67 8 89 -12 q 46 51 46 28 q 50 106 46 79 q 61 164 54 132 l 213 929 m 450 1268 q 501 1265 472 1269 q 556 1253 529 1261 q 605 1236 583 1246 q 635 1217 626 1226 l 635 1189 l 292 1056 l 253 1089 l 450 1268 z "},"Ļ":{"ha":801,"x_min":-33,"x_max":779,"o":"m 172 972 l 628 972 l 617 919 q 548 894 586 904 q 475 879 510 883 l 308 90 l 576 90 l 721 339 l 779 339 q 775 264 779 307 q 764 174 771 221 q 748 81 757 126 q 729 0 739 35 l -33 0 l -24 53 q 43 79 13 69 q 100 93 74 89 l 267 879 q 208 894 236 885 q 161 919 181 904 l 172 972 m 197 -336 q 324 -244 308 -312 q 290 -209 311 -224 q 242 -187 268 -194 q 251 -144 240 -167 q 279 -103 261 -122 q 319 -72 297 -85 q 363 -58 342 -60 q 463 -92 424 -62 q 501 -179 503 -122 q 480 -258 501 -221 q 420 -324 458 -294 q 329 -372 382 -353 q 213 -397 276 -392 l 197 -336 z "},"ļ":{"ha":415,"x_min":0,"x_max":426,"o":"m 213 929 l 118 947 l 118 994 q 171 1011 138 1003 q 243 1027 204 1019 q 323 1040 282 1035 q 399 1044 364 1044 l 426 1029 l 244 96 l 343 96 l 343 49 q 306 26 329 38 q 253 7 282 15 q 194 -7 225 -1 q 136 -12 164 -12 q 67 8 89 -12 q 46 51 46 28 q 50 106 46 79 q 61 164 54 132 l 213 929 m 0 -332 q 83 -297 53 -321 q 121 -240 114 -272 q 89 -207 110 -221 q 40 -186 68 -193 q 49 -143 39 -165 q 76 -103 60 -121 q 115 -72 93 -85 q 157 -58 136 -60 q 242 -87 210 -61 q 272 -171 274 -114 q 253 -248 272 -211 q 201 -315 235 -285 q 119 -364 167 -344 q 13 -389 71 -383 l 0 -332 z "},"Ľ":{"ha":836,"x_min":-33,"x_max":931,"o":"m 172 972 l 628 972 l 617 919 q 548 894 586 904 q 475 879 510 883 l 308 90 l 576 90 l 721 339 l 779 339 q 775 264 779 307 q 764 174 771 221 q 748 81 757 126 q 729 0 739 35 l -33 0 l -24 53 q 43 79 13 69 q 100 93 74 89 l 267 879 q 208 894 236 885 q 161 919 181 904 l 172 972 m 664 682 q 690 750 678 713 q 709 826 701 788 q 720 899 717 864 q 724 961 724 933 l 753 996 q 798 991 771 996 q 851 978 825 986 q 899 958 878 969 q 931 938 921 947 q 903 858 926 901 q 846 774 879 814 q 775 701 813 733 q 704 654 738 668 l 664 682 z "},"ľ":{"ha":415,"x_min":46,"x_max":693,"o":"m 213 929 l 118 947 l 118 994 q 171 1011 138 1003 q 243 1027 204 1019 q 323 1040 282 1035 q 399 1044 364 1044 l 426 1029 l 244 96 l 343 96 l 343 49 q 306 26 329 38 q 253 7 282 15 q 194 -7 225 -1 q 136 -12 164 -12 q 67 8 89 -12 q 46 51 46 28 q 50 106 46 79 q 61 164 54 132 l 213 929 m 419 742 q 453 808 438 772 q 481 880 469 843 q 500 951 493 917 q 507 1014 507 986 l 536 1049 q 567 1047 546 1050 q 613 1037 589 1043 q 660 1022 638 1031 q 693 1004 682 1014 q 661 922 686 965 q 601 837 636 878 q 528 763 567 796 q 460 714 490 731 l 419 742 z "},"Ł":{"ha":801,"x_min":-33,"x_max":779,"o":"m 172 972 l 628 972 l 617 919 q 548 894 586 904 q 475 879 510 883 l 411 582 l 593 681 l 569 571 l 389 472 l 308 90 l 576 90 l 721 339 l 779 339 q 775 264 779 307 q 764 174 771 221 q 748 81 757 126 q 729 0 739 35 l -33 0 l -24 53 q 43 79 13 69 q 100 93 74 89 l 153 344 l 25 275 l 49 385 l 176 454 l 267 879 q 208 894 236 885 q 161 919 181 904 l 172 972 z "},"ł":{"ha":450,"x_min":-8,"x_max":489,"o":"m 14 410 l 138 479 l 228 929 l 133 947 l 133 994 q 186 1011 153 1003 q 258 1027 219 1019 q 338 1040 297 1035 q 414 1044 379 1044 l 442 1029 l 357 600 l 489 674 l 467 564 l 336 490 l 260 96 l 358 96 l 358 49 q 321 26 344 38 q 269 7 297 15 q 210 -7 240 -1 q 151 -12 179 -12 q 83 8 104 -12 q 61 51 61 28 q 65 106 61 79 q 76 164 69 132 l 117 369 l -8 300 l 14 410 z "},"Ń":{"ha":1049,"x_min":-33,"x_max":1169,"o":"m 826 972 l 1169 972 l 1158 919 q 1093 881 1126 896 q 1028 858 1060 867 l 842 -17 l 729 -17 l 385 692 l 351 799 l 347 799 l 335 688 l 211 108 q 267 85 236 101 q 318 53 299 69 l 308 0 l -33 0 l -24 53 q 106 108 39 92 l 267 867 q 216 892 243 876 q 174 921 189 907 l 183 972 l 478 972 l 757 394 l 799 275 l 804 275 l 825 394 l 922 858 q 863 885 892 869 q 815 919 835 901 l 826 972 m 733 1247 q 784 1244 756 1249 q 840 1233 813 1240 q 888 1215 867 1225 q 918 1196 910 1206 l 918 1168 l 575 1035 l 536 1068 l 733 1247 z "},"ń":{"ha":817,"x_min":39,"x_max":761,"o":"m 533 396 q 551 472 543 439 q 558 542 558 506 q 548 583 558 565 q 511 600 538 600 q 456 580 485 600 q 401 530 428 560 q 351 464 374 500 q 314 397 328 428 l 231 0 l 39 0 l 158 596 l 76 614 l 79 661 q 129 680 99 671 q 196 696 160 689 q 270 707 232 703 q 343 711 308 711 l 371 694 l 328 492 l 335 492 q 393 578 360 538 q 464 647 426 618 q 543 694 501 676 q 628 711 585 711 q 719 674 686 711 q 753 574 753 636 q 746 501 753 542 q 729 419 739 460 l 653 96 l 753 96 l 753 49 q 716 26 739 38 q 666 7 693 15 q 610 -7 639 -1 q 554 -12 581 -12 q 485 6 507 -12 q 464 47 464 24 q 471 110 464 76 q 485 174 478 143 l 533 396 m 590 1060 q 627 1062 601 1063 q 681 1057 653 1061 q 731 1045 708 1053 q 761 1029 754 1038 l 761 996 l 482 781 l 426 811 l 590 1060 z "},"Ņ":{"ha":1049,"x_min":-33,"x_max":1169,"o":"m 826 972 l 1169 972 l 1158 919 q 1093 881 1126 896 q 1028 858 1060 867 l 842 -17 l 729 -17 l 385 692 l 351 799 l 347 799 l 335 688 l 211 108 q 267 85 236 101 q 318 53 299 69 l 308 0 l -33 0 l -24 53 q 106 108 39 92 l 267 867 q 216 892 243 876 q 174 921 189 907 l 183 972 l 478 972 l 757 394 l 799 275 l 804 275 l 825 394 l 922 858 q 863 885 892 869 q 815 919 835 901 l 826 972 m 265 -336 q 392 -244 376 -312 q 358 -209 379 -224 q 310 -187 336 -194 q 319 -144 308 -167 q 347 -103 329 -122 q 388 -72 365 -85 q 431 -58 410 -60 q 531 -92 492 -62 q 569 -179 571 -122 q 548 -258 569 -221 q 488 -324 526 -294 q 397 -372 450 -353 q 281 -397 344 -392 l 265 -336 z "},"ņ":{"ha":817,"x_min":39,"x_max":753,"o":"m 533 396 q 551 472 543 439 q 558 542 558 506 q 548 583 558 565 q 511 600 538 600 q 456 580 485 600 q 401 530 428 560 q 351 464 374 500 q 314 397 328 428 l 231 0 l 39 0 l 158 596 l 76 614 l 79 661 q 129 680 99 671 q 196 696 160 689 q 270 707 232 703 q 343 711 308 711 l 371 694 l 328 492 l 335 492 q 393 578 360 538 q 464 647 426 618 q 543 694 501 676 q 628 711 585 711 q 719 674 686 711 q 753 574 753 636 q 746 501 753 542 q 729 419 739 460 l 653 96 l 753 96 l 753 49 q 716 26 739 38 q 666 7 693 15 q 610 -7 639 -1 q 554 -12 581 -12 q 485 6 507 -12 q 464 47 464 24 q 471 110 464 76 q 485 174 478 143 l 533 396 m 172 -332 q 256 -297 225 -321 q 293 -240 286 -272 q 261 -207 282 -221 q 213 -186 240 -193 q 222 -143 211 -165 q 249 -103 232 -121 q 287 -72 265 -85 q 329 -58 308 -60 q 414 -87 382 -61 q 444 -171 446 -114 q 426 -248 444 -211 q 373 -315 407 -285 q 291 -364 339 -344 q 185 -389 243 -383 l 172 -332 z "},"Ň":{"ha":1049,"x_min":-33,"x_max":1169,"o":"m 826 972 l 1169 972 l 1158 919 q 1093 881 1126 896 q 1028 858 1060 867 l 842 -17 l 729 -17 l 385 692 l 351 799 l 347 799 l 335 688 l 211 108 q 267 85 236 101 q 318 53 299 69 l 308 0 l -33 0 l -24 53 q 106 108 39 92 l 267 867 q 216 892 243 876 q 174 921 189 907 l 183 972 l 478 972 l 757 394 l 799 275 l 804 275 l 825 394 l 922 858 q 863 885 892 869 q 815 919 835 901 l 826 972 m 908 1253 q 935 1238 919 1253 q 956 1210 951 1224 l 724 1054 q 705 1047 717 1050 q 679 1046 693 1044 q 656 1048 668 1046 q 638 1054 644 1050 l 519 1206 q 538 1237 524 1221 q 567 1253 553 1253 l 704 1176 l 908 1253 z "},"ň":{"ha":817,"x_min":39,"x_max":763,"o":"m 533 396 q 551 472 543 439 q 558 542 558 506 q 548 583 558 565 q 511 600 538 600 q 456 580 485 600 q 401 530 428 560 q 351 464 374 500 q 314 397 328 428 l 231 0 l 39 0 l 158 596 l 76 614 l 79 661 q 129 680 99 671 q 196 696 160 689 q 270 707 232 703 q 343 711 308 711 l 371 694 l 328 492 l 335 492 q 393 578 360 538 q 464 647 426 618 q 543 694 501 676 q 628 711 585 711 q 719 674 686 711 q 753 574 753 636 q 746 501 753 542 q 729 419 739 460 l 653 96 l 753 96 l 753 49 q 716 26 739 38 q 666 7 693 15 q 610 -7 639 -1 q 554 -12 581 -12 q 485 6 507 -12 q 464 47 464 24 q 471 110 464 76 q 485 174 478 143 l 533 396 m 704 1100 q 739 1087 718 1100 q 763 1065 760 1074 l 522 814 q 506 808 517 810 q 485 807 496 807 q 450 814 464 807 l 338 1064 q 347 1074 339 1068 q 366 1086 356 1081 q 387 1096 376 1092 q 404 1100 397 1100 l 515 971 l 704 1100 z "},"Ō":{"ha":1043,"x_min":82,"x_max":1050,"o":"m 82 376 q 122 616 82 504 q 235 810 161 728 q 417 941 310 893 q 661 989 525 989 q 826 962 754 989 q 949 884 899 935 q 1024 761 999 833 q 1050 599 1050 689 q 1015 374 1050 485 q 910 177 981 264 q 733 37 839 90 q 483 -17 626 -17 q 313 13 388 -17 q 186 96 238 43 q 108 221 135 149 q 82 376 82 293 m 318 350 q 370 142 318 211 q 511 74 422 74 q 647 125 590 74 q 742 256 704 176 q 797 435 779 336 q 814 631 814 535 q 772 826 814 754 q 632 899 729 899 q 534 874 578 899 q 455 808 490 850 q 394 712 419 767 q 351 596 368 657 q 326 472 335 535 q 318 350 318 408 m 450 1082 l 471 1179 l 921 1179 l 900 1082 l 450 1082 z "},"ō":{"ha":763,"x_min":40,"x_max":722,"o":"m 40 267 q 65 420 40 342 q 142 563 90 499 q 272 669 193 628 q 456 711 350 711 q 651 643 581 711 q 722 440 722 575 q 694 266 722 349 q 614 120 667 183 q 485 20 561 57 q 313 -17 410 -17 q 204 1 254 -17 q 117 53 154 18 q 60 142 81 89 q 40 267 40 194 m 432 632 q 340 590 376 632 q 280 485 303 549 q 247 349 257 422 q 238 213 238 275 q 265 102 238 142 q 339 63 292 63 q 413 97 379 63 q 472 188 447 131 q 511 320 497 246 q 525 475 525 394 q 501 592 525 551 q 432 632 476 632 m 261 860 l 282 957 l 690 957 l 669 860 l 261 860 z "},"Ő":{"ha":1043,"x_min":82,"x_max":1050,"o":"m 82 376 q 122 616 82 504 q 235 810 161 728 q 417 941 310 893 q 661 989 525 989 q 826 962 754 989 q 949 884 899 935 q 1024 761 999 833 q 1050 599 1050 689 q 1015 374 1050 485 q 910 177 981 264 q 733 37 839 90 q 483 -17 626 -17 q 313 13 388 -17 q 186 96 238 43 q 108 221 135 149 q 82 376 82 293 m 318 350 q 370 142 318 211 q 511 74 422 74 q 647 125 590 74 q 742 256 704 176 q 797 435 779 336 q 814 631 814 535 q 772 826 814 754 q 632 899 729 899 q 534 874 578 899 q 455 808 490 850 q 394 712 419 767 q 351 596 368 657 q 326 472 335 535 q 318 350 318 408 m 535 1233 q 565 1231 543 1235 q 610 1222 586 1228 q 653 1209 633 1217 q 676 1194 672 1201 l 676 1175 l 489 1040 l 438 1072 l 535 1233 m 807 1233 q 838 1231 817 1235 q 884 1222 860 1228 q 928 1207 908 1215 q 956 1190 949 1199 l 954 1176 l 701 1038 l 647 1069 l 807 1233 z "},"ő":{"ha":763,"x_min":40,"x_max":832,"o":"m 40 267 q 65 420 40 342 q 142 563 90 499 q 272 669 193 628 q 456 711 350 711 q 651 643 581 711 q 722 440 722 575 q 694 266 722 349 q 614 120 667 183 q 485 20 561 57 q 313 -17 410 -17 q 204 1 254 -17 q 117 53 154 18 q 60 142 81 89 q 40 267 40 194 m 432 632 q 340 590 376 632 q 280 485 303 549 q 247 349 257 422 q 238 213 238 275 q 265 102 238 142 q 339 63 292 63 q 413 97 379 63 q 472 188 447 131 q 511 320 497 246 q 525 475 525 394 q 501 592 525 551 q 432 632 476 632 m 404 1067 q 436 1068 413 1069 q 485 1063 460 1067 q 533 1052 511 1058 q 558 1038 554 1046 l 558 1004 l 367 813 l 310 840 l 404 1067 m 676 1067 q 708 1068 686 1069 q 756 1061 731 1067 q 802 1047 781 1056 q 832 1028 824 1039 l 832 997 l 543 813 l 492 843 l 676 1067 z "},"Œ":{"ha":1367,"x_min":82,"x_max":1433,"o":"m 613 0 q 547 -12 579 -7 q 481 -17 514 -17 q 303 10 378 -17 q 179 85 228 36 q 106 203 131 135 q 82 358 82 272 q 120 604 82 489 q 231 805 158 719 q 410 940 304 890 q 654 989 517 989 q 690 988 668 989 q 734 984 711 986 q 778 978 757 982 q 817 972 800 975 l 1433 972 q 1397 843 1418 910 q 1353 718 1376 776 l 1294 718 l 1265 882 l 1006 882 l 933 542 l 1104 542 l 1188 649 l 1231 649 q 1206 497 1224 581 q 1167 342 1189 414 l 1122 342 l 1085 451 l 914 451 l 838 90 l 1108 90 l 1219 267 l 1278 267 q 1276 207 1278 240 q 1270 138 1274 174 q 1261 67 1267 103 q 1249 0 1256 31 l 613 0 m 496 74 q 565 83 529 74 q 633 107 601 92 l 792 857 q 726 887 764 875 q 646 899 689 899 q 508 849 568 899 q 405 719 447 800 q 340 536 363 639 q 318 328 318 433 q 326 224 318 271 q 356 143 335 176 q 410 92 376 110 q 496 74 444 74 z "},"œ":{"ha":1131,"x_min":40,"x_max":1106,"o":"m 432 632 q 340 590 376 632 q 280 485 303 549 q 247 349 257 422 q 238 213 238 275 q 265 102 238 142 q 339 63 292 63 q 413 97 379 63 q 472 188 447 131 q 510 320 496 246 q 524 475 524 394 q 500 592 524 551 q 432 632 476 632 m 556 74 q 442 4 507 25 q 313 -17 376 -17 q 204 1 254 -17 q 117 53 154 18 q 60 142 81 89 q 40 267 40 194 q 65 420 40 342 q 142 563 90 499 q 272 669 193 628 q 456 711 350 711 q 580 687 524 711 q 665 615 636 663 q 781 686 715 661 q 914 711 846 711 q 1051 673 997 711 q 1106 568 1106 635 q 1013 413 1106 474 q 708 336 919 351 q 703 297 706 317 q 701 258 701 276 q 742 137 701 179 q 844 94 782 94 q 897 103 871 94 q 947 125 924 111 q 991 155 971 139 q 1026 186 1011 171 l 1060 151 q 1015 94 1044 124 q 947 40 986 64 q 861 -1 908 15 q 763 -17 814 -17 q 633 10 683 -17 q 556 74 583 36 m 882 632 q 792 581 836 632 q 718 407 749 529 q 885 453 822 410 q 949 565 949 496 q 933 613 949 593 q 882 632 918 632 z "},"Ŕ":{"ha":961,"x_min":-33,"x_max":915,"o":"m 308 93 q 361 74 338 85 q 404 53 385 64 l 394 0 l -33 0 l -24 53 q 41 78 11 69 q 100 93 71 88 l 267 879 q 161 919 199 894 l 172 972 l 319 972 q 383 974 347 972 q 457 977 418 975 q 536 981 496 979 q 613 983 576 983 q 841 924 767 983 q 915 754 915 864 q 899 655 915 703 q 849 566 882 607 q 769 494 817 525 q 657 444 721 463 q 747 267 693 357 q 851 92 800 176 l 910 47 l 900 0 l 679 0 l 628 46 q 541 223 581 122 q 483 421 501 324 l 378 421 l 308 93 m 549 893 q 508 890 526 893 q 475 885 490 888 l 393 497 l 474 497 q 573 519 531 497 q 643 577 615 540 q 685 661 671 614 q 699 761 699 708 q 663 863 700 832 q 549 893 626 893 m 664 1247 q 715 1244 686 1249 q 770 1233 743 1240 q 819 1215 797 1225 q 849 1196 840 1206 l 849 1168 l 506 1035 l 467 1068 l 664 1247 z "},"ŕ":{"ha":604,"x_min":39,"x_max":665,"o":"m 436 563 q 377 513 410 551 q 322 414 344 474 l 233 0 l 39 0 l 163 596 l 83 614 l 83 661 q 138 681 107 672 q 205 697 169 690 q 278 706 240 703 q 350 711 315 710 l 378 694 l 342 522 l 347 522 q 443 657 389 603 q 569 711 497 711 q 608 708 589 711 q 644 694 628 704 q 640 631 647 665 q 619 567 632 597 q 590 513 607 536 q 558 481 574 489 l 436 563 m 494 1060 q 531 1062 506 1063 q 585 1057 557 1061 q 635 1045 613 1053 q 665 1029 658 1038 l 665 996 l 386 781 l 331 811 l 494 1060 z "},"Ŗ":{"ha":961,"x_min":-33,"x_max":915,"o":"m 308 93 q 361 74 338 85 q 404 53 385 64 l 394 0 l -33 0 l -24 53 q 41 78 11 69 q 100 93 71 88 l 267 879 q 161 919 199 894 l 172 972 l 319 972 q 383 974 347 972 q 457 977 418 975 q 536 981 496 979 q 613 983 576 983 q 841 924 767 983 q 915 754 915 864 q 899 655 915 703 q 849 566 882 607 q 769 494 817 525 q 657 444 721 463 q 747 267 693 357 q 851 92 800 176 l 910 47 l 900 0 l 679 0 l 628 46 q 541 223 581 122 q 483 421 501 324 l 378 421 l 308 93 m 549 893 q 508 890 526 893 q 475 885 490 888 l 393 497 l 474 497 q 573 519 531 497 q 643 577 615 540 q 685 661 671 614 q 699 761 699 708 q 663 863 700 832 q 549 893 626 893 m 244 -336 q 371 -244 356 -312 q 337 -209 358 -224 q 289 -187 315 -194 q 298 -144 288 -167 q 326 -103 308 -122 q 367 -72 344 -85 q 410 -58 389 -60 q 510 -92 471 -62 q 549 -179 550 -122 q 527 -258 549 -221 q 467 -324 506 -294 q 376 -372 429 -353 q 260 -397 324 -392 l 244 -336 z "},"ŗ":{"ha":604,"x_min":26,"x_max":647,"o":"m 436 563 q 377 513 410 551 q 322 414 344 474 l 233 0 l 39 0 l 163 596 l 83 614 l 83 661 q 138 681 107 672 q 205 697 169 690 q 278 706 240 703 q 350 711 315 710 l 378 694 l 342 522 l 347 522 q 443 657 389 603 q 569 711 497 711 q 608 708 589 711 q 644 694 628 704 q 640 631 647 665 q 619 567 632 597 q 590 513 607 536 q 558 481 574 489 l 436 563 m 26 -332 q 110 -297 79 -321 q 147 -240 140 -272 q 115 -207 136 -221 q 67 -186 94 -193 q 76 -143 65 -165 q 103 -103 86 -121 q 141 -72 119 -85 q 183 -58 163 -60 q 268 -87 236 -61 q 299 -171 300 -114 q 280 -248 299 -211 q 227 -315 261 -285 q 145 -364 193 -344 q 39 -389 97 -383 l 26 -332 z "},"Ř":{"ha":961,"x_min":-33,"x_max":915,"o":"m 308 93 q 361 74 338 85 q 404 53 385 64 l 394 0 l -33 0 l -24 53 q 41 78 11 69 q 100 93 71 88 l 267 879 q 161 919 199 894 l 172 972 l 319 972 q 383 974 347 972 q 457 977 418 975 q 536 981 496 979 q 613 983 576 983 q 841 924 767 983 q 915 754 915 864 q 899 655 915 703 q 849 566 882 607 q 769 494 817 525 q 657 444 721 463 q 747 267 693 357 q 851 92 800 176 l 910 47 l 900 0 l 679 0 l 628 46 q 541 223 581 122 q 483 421 501 324 l 378 421 l 308 93 m 549 893 q 508 890 526 893 q 475 885 490 888 l 393 497 l 474 497 q 573 519 531 497 q 643 577 615 540 q 685 661 671 614 q 699 761 699 708 q 663 863 700 832 q 549 893 626 893 m 796 1253 q 823 1238 807 1253 q 843 1210 839 1224 l 611 1054 q 592 1047 604 1050 q 567 1046 581 1044 q 544 1048 556 1046 q 525 1054 532 1050 l 407 1206 q 426 1237 411 1221 q 454 1253 440 1253 l 592 1176 l 796 1253 z "},"ř":{"ha":604,"x_min":39,"x_max":663,"o":"m 436 563 q 377 513 410 551 q 322 414 344 474 l 233 0 l 39 0 l 163 596 l 83 614 l 83 661 q 138 681 107 672 q 205 697 169 690 q 278 706 240 703 q 350 711 315 710 l 378 694 l 342 522 l 347 522 q 443 657 389 603 q 569 711 497 711 q 608 708 589 711 q 644 694 628 704 q 640 631 647 665 q 619 567 632 597 q 590 513 607 536 q 558 481 574 489 l 436 563 m 604 1100 q 639 1087 618 1100 q 663 1065 660 1074 l 422 814 q 406 808 417 810 q 385 807 396 807 q 350 814 364 807 l 238 1064 q 247 1074 239 1068 q 266 1086 256 1081 q 287 1096 276 1092 q 304 1100 297 1100 l 415 971 l 604 1100 z "},"Ś":{"ha":772,"x_min":21,"x_max":836,"o":"m 194 115 q 244 88 208 101 q 321 74 281 74 q 401 81 364 74 q 466 106 439 89 q 508 149 493 122 q 524 215 524 176 q 497 301 524 265 q 432 365 471 336 q 347 423 393 394 q 261 488 300 451 q 196 572 222 524 q 169 692 169 621 q 199 821 169 765 q 279 914 228 876 q 401 970 331 951 q 557 989 472 989 q 712 977 642 989 q 835 940 782 965 q 817 876 828 913 q 792 805 806 840 q 766 738 779 769 q 743 686 753 707 l 686 686 l 663 876 q 610 893 643 888 q 543 899 578 899 q 476 891 507 899 q 422 867 444 883 q 385 826 399 851 q 371 767 371 801 q 398 682 371 718 q 465 616 425 646 q 551 556 504 586 q 638 490 599 526 q 705 404 678 453 q 732 288 732 356 q 623 62 732 140 q 311 -17 514 -17 q 222 -11 267 -17 q 136 4 176 -6 q 65 25 96 14 q 21 49 35 36 q 42 119 29 82 q 68 192 54 156 q 97 262 82 229 q 124 319 111 294 l 181 319 l 194 115 m 651 1247 q 702 1244 674 1249 q 758 1233 731 1240 q 806 1215 785 1225 q 836 1196 828 1206 l 836 1168 l 493 1035 l 454 1068 l 651 1247 z "},"ś":{"ha":600,"x_min":-3,"x_max":653,"o":"m 318 153 q 301 208 318 183 q 260 256 285 232 q 205 302 235 279 q 150 354 175 325 q 108 419 125 383 q 92 501 92 454 q 167 659 92 607 q 374 711 243 711 q 423 709 396 711 q 478 701 450 707 q 531 688 506 696 q 578 668 557 681 q 576 628 579 653 q 563 580 572 604 q 540 535 554 556 q 504 508 525 515 l 393 632 q 319 614 349 632 q 289 550 289 596 q 306 494 289 519 q 349 447 324 469 q 404 400 374 424 q 460 348 435 376 q 502 283 485 319 q 519 200 519 247 q 496 107 519 147 q 431 39 472 67 q 333 -3 390 11 q 210 -17 276 -17 q 83 -1 139 -17 q -1 35 26 15 q 15 122 -3 79 q 65 189 32 165 l 200 63 q 282 85 246 63 q 318 153 318 107 m 482 1060 q 519 1062 493 1063 q 572 1057 544 1061 q 623 1045 600 1053 q 653 1029 646 1038 l 653 996 l 374 781 l 318 811 l 482 1060 z "},"Ŝ":{"ha":772,"x_min":21,"x_max":835,"o":"m 194 115 q 244 88 208 101 q 321 74 281 74 q 401 81 364 74 q 466 106 439 89 q 508 149 493 122 q 524 215 524 176 q 497 301 524 265 q 432 365 471 336 q 347 423 393 394 q 261 488 300 451 q 196 572 222 524 q 169 692 169 621 q 199 821 169 765 q 279 914 228 876 q 401 970 331 951 q 557 989 472 989 q 712 977 642 989 q 835 940 782 965 q 817 876 828 913 q 792 805 806 840 q 766 738 779 769 q 743 686 753 707 l 686 686 l 663 876 q 610 893 643 888 q 543 899 578 899 q 476 891 507 899 q 422 867 444 883 q 385 826 399 851 q 371 767 371 801 q 398 682 371 718 q 465 616 425 646 q 551 556 504 586 q 638 490 599 526 q 705 404 678 453 q 732 288 732 356 q 623 62 732 140 q 311 -17 514 -17 q 222 -11 267 -17 q 136 4 176 -6 q 65 25 96 14 q 21 49 35 36 q 42 119 29 82 q 68 192 54 156 q 97 262 82 229 q 124 319 111 294 l 181 319 l 194 115 m 382 1032 l 343 1071 l 582 1233 q 628 1240 599 1243 q 668 1233 654 1240 l 779 1075 l 740 1033 l 596 1111 l 382 1032 z "},"ŝ":{"ha":600,"x_min":-3,"x_max":579,"o":"m 318 153 q 301 208 318 183 q 260 256 285 232 q 205 302 235 279 q 150 354 175 325 q 108 419 125 383 q 92 501 92 454 q 167 659 92 607 q 374 711 243 711 q 423 709 396 711 q 478 701 450 707 q 531 688 506 696 q 578 668 557 681 q 576 628 579 653 q 563 580 572 604 q 540 535 554 556 q 504 508 525 515 l 393 632 q 319 614 349 632 q 289 550 289 596 q 306 494 289 519 q 349 447 324 469 q 404 400 374 424 q 460 348 435 376 q 502 283 485 319 q 519 200 519 247 q 496 107 519 147 q 431 39 472 67 q 333 -3 390 11 q 210 -17 276 -17 q 83 -1 139 -17 q -1 35 26 15 q 15 122 -3 79 q 65 189 32 165 l 200 63 q 282 85 246 63 q 318 153 318 107 m 253 801 l 194 836 l 417 1094 q 431 1101 421 1099 q 453 1103 442 1103 q 489 1094 476 1103 l 578 838 l 521 801 l 417 938 l 253 801 z "},"Ş":{"ha":772,"x_min":21,"x_max":835,"o":"m 194 115 q 244 88 208 101 q 321 74 281 74 q 401 81 364 74 q 466 106 439 89 q 508 149 493 122 q 524 215 524 176 q 497 301 524 265 q 432 365 471 336 q 347 423 393 394 q 261 488 300 451 q 196 572 222 524 q 169 692 169 621 q 199 821 169 765 q 279 914 228 876 q 401 970 331 951 q 557 989 472 989 q 712 977 642 989 q 835 940 782 965 q 817 876 828 913 q 792 805 806 840 q 766 738 779 769 q 743 686 753 707 l 686 686 l 663 876 q 610 893 643 888 q 543 899 578 899 q 476 891 507 899 q 422 867 444 883 q 385 826 399 851 q 371 767 371 801 q 398 682 371 718 q 465 616 425 646 q 551 556 504 586 q 638 490 599 526 q 705 404 678 453 q 732 288 732 356 q 635 72 732 149 q 360 -15 539 -6 l 311 -97 q 426 -128 392 -100 q 461 -204 461 -156 q 426 -293 461 -257 q 340 -352 390 -329 q 235 -385 290 -375 q 139 -396 179 -396 l 139 -332 q 188 -322 164 -329 q 233 -303 213 -315 q 265 -273 253 -290 q 276 -232 276 -256 q 261 -192 275 -207 q 199 -174 247 -176 l 272 -15 q 192 -8 232 -14 q 119 8 153 -1 q 59 27 85 17 q 21 49 33 38 q 42 119 29 82 q 68 192 54 156 q 97 262 82 229 q 124 319 111 294 l 181 319 l 194 115 z "},"ş":{"ha":600,"x_min":-3,"x_max":579,"o":"m 318 153 q 301 208 318 183 q 260 256 285 232 q 205 302 235 279 q 150 354 175 325 q 108 419 125 383 q 92 501 92 454 q 167 659 92 607 q 374 711 243 711 q 423 709 396 711 q 478 701 450 707 q 531 688 506 696 q 578 668 557 681 q 576 628 579 653 q 563 580 572 604 q 540 535 554 556 q 504 508 525 515 l 393 632 q 319 614 349 632 q 289 550 289 596 q 306 494 289 519 q 349 447 324 469 q 404 400 374 424 q 460 348 435 376 q 502 283 485 319 q 519 200 519 247 q 500 115 519 153 q 447 51 481 78 q 365 7 413 24 q 260 -14 317 -10 l 211 -94 q 316 -123 286 -99 q 347 -193 346 -147 q 319 -267 347 -236 q 248 -317 292 -297 q 151 -347 204 -337 q 49 -357 97 -357 l 49 -303 q 95 -292 72 -299 q 135 -274 118 -285 q 163 -250 153 -264 q 174 -218 174 -236 q 158 -178 172 -194 q 100 -158 144 -162 l 175 -15 q 69 3 117 -11 q -1 35 22 17 q 15 122 -3 79 q 65 189 32 165 l 200 63 q 282 85 246 63 q 318 153 318 107 z "},"Š":{"ha":772,"x_min":21,"x_max":843,"o":"m 194 115 q 244 88 208 101 q 321 74 281 74 q 401 81 364 74 q 466 106 439 89 q 508 149 493 122 q 524 215 524 176 q 497 301 524 265 q 432 365 471 336 q 347 423 393 394 q 261 488 300 451 q 196 572 222 524 q 169 692 169 621 q 199 821 169 765 q 279 914 228 876 q 401 970 331 951 q 557 989 472 989 q 712 977 642 989 q 835 940 782 965 q 817 876 828 913 q 792 805 806 840 q 766 738 779 769 q 743 686 753 707 l 686 686 l 663 876 q 610 893 643 888 q 543 899 578 899 q 476 891 507 899 q 422 867 444 883 q 385 826 399 851 q 371 767 371 801 q 398 682 371 718 q 465 616 425 646 q 551 556 504 586 q 638 490 599 526 q 705 404 678 453 q 732 288 732 356 q 623 62 732 140 q 311 -17 514 -17 q 222 -11 267 -17 q 136 4 176 -6 q 65 25 96 14 q 21 49 35 36 q 42 119 29 82 q 68 192 54 156 q 97 262 82 229 q 124 319 111 294 l 181 319 l 194 115 m 796 1253 q 823 1238 807 1253 q 843 1210 839 1224 l 611 1054 q 592 1047 604 1050 q 567 1046 581 1044 q 544 1048 556 1046 q 525 1054 532 1050 l 407 1206 q 426 1237 411 1221 q 454 1253 440 1253 l 592 1176 l 796 1253 z "},"š":{"ha":600,"x_min":-3,"x_max":646,"o":"m 318 153 q 301 208 318 183 q 260 256 285 232 q 205 302 235 279 q 150 354 175 325 q 108 419 125 383 q 92 501 92 454 q 167 659 92 607 q 374 711 243 711 q 423 709 396 711 q 478 701 450 707 q 531 688 506 696 q 578 668 557 681 q 576 628 579 653 q 563 580 572 604 q 540 535 554 556 q 504 508 525 515 l 393 632 q 319 614 349 632 q 289 550 289 596 q 306 494 289 519 q 349 447 324 469 q 404 400 374 424 q 460 348 435 376 q 502 283 485 319 q 519 200 519 247 q 496 107 519 147 q 431 39 472 67 q 333 -3 390 11 q 210 -17 276 -17 q 83 -1 139 -17 q -1 35 26 15 q 15 122 -3 79 q 65 189 32 165 l 200 63 q 282 85 246 63 q 318 153 318 107 m 588 1100 q 622 1087 601 1100 q 646 1065 643 1074 l 406 814 q 390 808 400 810 q 368 807 379 807 q 333 814 347 807 l 221 1064 q 231 1074 222 1068 q 249 1086 239 1081 q 270 1096 260 1092 q 288 1100 281 1100 l 399 971 l 588 1100 z "},"Ţ":{"ha":919,"x_min":126,"x_max":1050,"o":"m 640 0 l 444 0 l 386 -97 q 501 -128 467 -100 q 536 -204 536 -156 q 501 -293 536 -257 q 415 -352 465 -329 q 310 -385 365 -375 q 214 -396 254 -396 l 214 -332 q 263 -322 239 -329 q 308 -303 288 -315 q 340 -273 328 -290 q 351 -232 351 -256 q 336 -192 350 -207 q 274 -174 322 -176 l 356 0 l 163 0 l 174 53 q 242 76 204 65 q 317 93 279 88 l 485 882 l 324 882 l 183 644 l 126 644 q 130 715 126 672 q 138 804 133 758 q 150 895 143 850 q 165 972 157 940 l 1050 972 q 1031 894 1043 939 q 1006 804 1019 850 q 977 716 992 758 q 950 644 963 674 l 892 644 l 854 882 l 693 882 l 525 93 q 593 76 560 86 q 651 53 626 67 l 640 0 z "},"ţ":{"ha":510,"x_min":42,"x_max":540,"o":"m 63 661 q 121 690 89 678 q 183 708 153 701 l 206 814 q 236 830 215 822 q 282 844 257 838 q 333 856 307 850 q 379 864 358 861 l 408 847 l 375 694 l 538 694 q 535 651 540 678 q 519 607 531 624 l 357 607 l 276 247 q 268 201 271 221 q 265 164 265 181 q 283 111 265 128 q 332 94 301 94 q 397 103 367 94 q 456 126 428 111 l 474 90 q 385 27 446 58 q 254 -14 325 -4 l 204 -94 q 309 -123 279 -99 q 340 -193 339 -147 q 313 -267 340 -236 q 241 -317 285 -297 q 144 -347 197 -337 q 42 -357 90 -357 l 42 -303 q 88 -292 65 -299 q 128 -274 111 -285 q 156 -250 146 -264 q 167 -218 167 -236 q 151 -178 165 -194 q 93 -158 138 -162 l 169 -14 q 91 27 117 -4 q 65 108 65 58 q 71 176 65 140 q 82 238 76 213 l 163 607 l 63 607 l 63 661 z "},"Ť":{"ha":919,"x_min":126,"x_max":1050,"o":"m 640 0 l 163 0 l 174 53 q 242 76 204 65 q 317 93 279 88 l 485 882 l 324 882 l 183 644 l 126 644 q 130 715 126 672 q 138 804 133 758 q 150 895 143 850 q 165 972 157 940 l 1050 972 q 1031 894 1043 939 q 1006 804 1019 850 q 977 716 992 758 q 950 644 963 674 l 892 644 l 854 882 l 693 882 l 525 93 q 593 76 560 86 q 651 53 626 67 l 640 0 m 846 1253 q 873 1238 857 1253 q 893 1210 889 1224 l 661 1054 q 642 1047 654 1050 q 617 1046 631 1044 q 594 1048 606 1046 q 575 1054 582 1050 l 457 1206 q 476 1237 461 1221 q 504 1253 490 1253 l 642 1176 l 846 1253 z "},"ť":{"ha":510,"x_min":63,"x_max":701,"o":"m 63 661 q 121 690 89 678 q 183 708 153 701 l 206 814 q 236 830 215 822 q 282 844 257 838 q 333 856 307 850 q 379 864 358 861 l 408 847 l 375 694 l 538 694 q 535 651 540 678 q 519 607 531 624 l 357 607 l 276 247 q 268 201 271 221 q 265 164 265 181 q 283 111 265 128 q 332 94 301 94 q 397 103 367 94 q 456 126 428 111 l 474 90 q 429 53 457 72 q 367 19 401 35 q 292 -7 332 3 q 210 -17 251 -17 q 101 17 138 -17 q 65 108 65 50 q 71 176 65 140 q 82 238 76 213 l 163 607 l 63 607 l 63 661 m 428 763 q 462 828 446 793 q 490 901 478 864 q 508 972 501 938 q 515 1035 515 1007 l 544 1069 q 576 1067 554 1071 q 622 1058 597 1064 q 668 1043 646 1051 q 701 1025 690 1035 q 669 942 694 986 q 610 858 644 899 q 537 784 575 817 q 468 735 499 751 l 428 763 z "},"Ū":{"ha":993,"x_min":106,"x_max":1132,"o":"m 156 972 l 583 972 l 572 919 q 458 879 522 890 l 349 361 q 369 164 321 225 q 522 103 418 103 q 685 159 619 103 q 779 351 750 215 l 889 872 q 826 892 857 879 q 776 919 794 904 l 788 972 l 1132 972 l 1121 919 q 1062 890 1096 901 q 996 872 1028 879 l 885 350 q 748 79 847 171 q 464 -12 649 -12 q 185 92 265 -12 q 144 376 106 196 l 250 879 q 192 894 222 885 q 144 919 163 904 l 156 972 m 451 1082 l 472 1179 l 922 1179 l 901 1082 l 451 1082 z "},"ū":{"ha":813,"x_min":58,"x_max":771,"o":"m 758 96 l 758 49 q 722 26 744 38 q 672 7 699 15 q 615 -7 644 -1 q 556 -12 585 -12 q 487 8 506 -12 q 468 50 468 28 q 474 119 468 75 q 496 222 479 164 l 490 222 q 444 147 472 189 q 379 69 417 106 q 293 8 342 32 q 186 -17 244 -17 q 94 17 129 -17 q 58 114 58 51 q 67 201 58 144 q 90 326 76 258 q 119 465 103 393 q 147 596 135 536 l 65 614 l 65 661 q 121 678 88 669 q 190 693 154 686 q 264 705 226 700 q 332 711 301 710 l 363 694 q 317 497 340 590 q 275 299 294 403 q 260 225 268 265 q 253 144 253 185 q 266 107 253 119 q 299 94 279 94 q 367 122 333 94 q 430 187 401 149 q 480 265 458 225 q 511 332 501 306 l 583 694 l 771 694 l 661 96 l 758 96 m 296 860 l 317 957 l 725 957 l 704 860 l 296 860 z "},"Ŭ":{"ha":993,"x_min":106,"x_max":1132,"o":"m 156 972 l 583 972 l 572 919 q 458 879 522 890 l 349 361 q 369 164 321 225 q 522 103 418 103 q 685 159 619 103 q 779 351 750 215 l 889 872 q 826 892 857 879 q 776 919 794 904 l 788 972 l 1132 972 l 1121 919 q 1062 890 1096 901 q 996 872 1028 879 l 885 350 q 748 79 847 171 q 464 -12 649 -12 q 185 92 265 -12 q 144 376 106 196 l 250 879 q 192 894 222 885 q 144 919 163 904 l 156 972 m 885 1246 q 913 1238 894 1247 q 942 1214 932 1228 q 900 1158 928 1186 q 835 1106 872 1129 q 756 1069 799 1083 q 669 1054 713 1054 q 528 1102 576 1054 q 472 1217 479 1150 q 502 1243 482 1233 q 543 1250 522 1253 q 593 1202 558 1219 q 676 1183 628 1185 q 732 1187 703 1183 q 789 1199 761 1190 q 842 1219 817 1207 q 885 1246 867 1231 z "},"ŭ":{"ha":813,"x_min":58,"x_max":771,"o":"m 758 96 l 758 49 q 722 26 744 38 q 672 7 699 15 q 615 -7 644 -1 q 556 -12 585 -12 q 487 8 506 -12 q 468 50 468 28 q 474 119 468 75 q 496 222 479 164 l 490 222 q 444 147 472 189 q 379 69 417 106 q 293 8 342 32 q 186 -17 244 -17 q 94 17 129 -17 q 58 114 58 51 q 67 201 58 144 q 90 326 76 258 q 119 465 103 393 q 147 596 135 536 l 65 614 l 65 661 q 121 678 88 669 q 190 693 154 686 q 264 705 226 700 q 332 711 301 710 l 363 694 q 317 497 340 590 q 275 299 294 403 q 260 225 268 265 q 253 144 253 185 q 266 107 253 119 q 299 94 279 94 q 367 122 333 94 q 430 187 401 149 q 480 265 458 225 q 511 332 501 306 l 583 694 l 771 694 l 661 96 l 758 96 m 733 1006 q 692 930 718 965 q 634 868 667 894 q 564 826 601 842 q 488 811 526 811 q 357 866 406 811 q 306 1008 308 921 l 357 1039 q 413 979 379 1003 q 492 954 447 956 q 544 958 517 954 q 597 972 571 963 q 646 997 622 982 q 688 1033 669 1013 l 733 1006 z "},"Ů":{"ha":993,"x_min":106,"x_max":1132,"o":"m 156 972 l 583 972 l 572 919 q 458 879 522 890 l 349 361 q 369 164 321 225 q 522 103 418 103 q 685 159 619 103 q 779 351 750 215 l 889 872 q 826 892 857 879 q 776 919 794 904 l 788 972 l 1132 972 l 1121 919 q 1062 890 1096 901 q 996 872 1028 879 l 885 350 q 748 79 847 171 q 464 -12 649 -12 q 185 92 265 -12 q 144 376 106 196 l 250 879 q 192 894 222 885 q 144 919 163 904 l 156 972 m 525 1079 q 540 1134 525 1108 q 583 1178 556 1160 q 651 1208 611 1197 q 739 1219 690 1219 q 846 1196 806 1219 q 886 1119 886 1172 q 870 1061 886 1088 q 826 1016 854 1035 q 759 988 797 997 q 676 978 721 978 q 563 1004 601 978 q 525 1079 525 1031 m 640 1090 q 658 1058 640 1068 q 696 1047 675 1047 q 750 1063 729 1047 q 771 1100 771 1078 q 756 1139 771 1128 q 714 1150 740 1150 q 661 1134 682 1150 q 640 1090 640 1118 z "},"ů":{"ha":813,"x_min":58,"x_max":771,"o":"m 758 96 l 758 49 q 722 26 744 38 q 672 7 699 15 q 615 -7 644 -1 q 556 -12 585 -12 q 487 8 506 -12 q 468 50 468 28 q 474 119 468 75 q 496 222 479 164 l 490 222 q 444 147 472 189 q 379 69 417 106 q 293 8 342 32 q 186 -17 244 -17 q 94 17 129 -17 q 58 114 58 51 q 67 201 58 144 q 90 326 76 258 q 119 465 103 393 q 147 596 135 536 l 65 614 l 65 661 q 121 678 88 669 q 190 693 154 686 q 264 705 226 700 q 332 711 301 710 l 363 694 q 317 497 340 590 q 275 299 294 403 q 260 225 268 265 q 253 144 253 185 q 266 107 253 119 q 299 94 279 94 q 367 122 333 94 q 430 187 401 149 q 480 265 458 225 q 511 332 501 306 l 583 694 l 771 694 l 661 96 l 758 96 m 354 922 q 404 1036 354 989 q 544 1083 454 1083 q 640 1051 606 1083 q 674 971 674 1019 q 661 910 674 939 q 625 858 649 881 q 567 824 601 836 q 490 811 533 811 q 390 841 425 811 q 354 922 354 871 m 458 925 q 470 892 458 904 q 500 881 482 881 q 547 903 525 881 q 569 967 569 926 q 531 1014 569 1014 q 477 988 496 1014 q 458 925 458 961 z "},"Ű":{"ha":993,"x_min":106,"x_max":1132,"o":"m 156 972 l 583 972 l 572 919 q 458 879 522 890 l 349 361 q 369 164 321 225 q 522 103 418 103 q 685 159 619 103 q 779 351 750 215 l 889 872 q 826 892 857 879 q 776 919 794 904 l 788 972 l 1132 972 l 1121 919 q 1062 890 1096 901 q 996 872 1028 879 l 885 350 q 748 79 847 171 q 464 -12 649 -12 q 185 92 265 -12 q 144 376 106 196 l 250 879 q 192 894 222 885 q 144 919 163 904 l 156 972 m 586 1233 q 616 1231 594 1235 q 661 1222 638 1228 q 704 1209 685 1217 q 728 1194 724 1201 l 728 1175 l 540 1040 l 489 1072 l 586 1233 m 858 1233 q 890 1231 868 1235 q 935 1222 911 1228 q 980 1207 960 1215 q 1007 1190 1000 1199 l 1006 1176 l 753 1038 l 699 1069 l 858 1233 z "},"ű":{"ha":813,"x_min":58,"x_max":850,"o":"m 758 96 l 758 49 q 722 26 744 38 q 672 7 699 15 q 615 -7 644 -1 q 556 -12 585 -12 q 487 8 506 -12 q 468 50 468 28 q 474 119 468 75 q 496 222 479 164 l 490 222 q 444 147 472 189 q 379 69 417 106 q 293 8 342 32 q 186 -17 244 -17 q 94 17 129 -17 q 58 114 58 51 q 67 201 58 144 q 90 326 76 258 q 119 465 103 393 q 147 596 135 536 l 65 614 l 65 661 q 121 678 88 669 q 190 693 154 686 q 264 705 226 700 q 332 711 301 710 l 363 694 q 317 497 340 590 q 275 299 294 403 q 260 225 268 265 q 253 144 253 185 q 266 107 253 119 q 299 94 279 94 q 367 122 333 94 q 430 187 401 149 q 480 265 458 225 q 511 332 501 306 l 583 694 l 771 694 l 661 96 l 758 96 m 422 1067 q 454 1068 431 1069 q 503 1063 478 1067 q 551 1052 529 1058 q 576 1038 572 1046 l 576 1004 l 385 813 l 328 840 l 422 1067 m 694 1067 q 726 1068 704 1069 q 774 1061 749 1067 q 820 1047 799 1056 q 850 1028 842 1039 l 850 997 l 561 813 l 510 843 l 694 1067 z "},"Ų":{"ha":993,"x_min":106,"x_max":1132,"o":"m 156 972 l 583 972 l 572 919 q 458 879 522 890 l 349 361 q 369 164 321 225 q 522 103 418 103 q 685 159 619 103 q 779 351 750 215 l 889 872 q 826 892 857 879 q 776 919 794 904 l 788 972 l 1132 972 l 1121 919 q 1062 890 1096 901 q 996 872 1028 879 l 885 350 q 796 131 857 215 q 631 11 735 47 q 569 -31 597 -7 q 522 -83 542 -56 q 490 -137 501 -110 q 478 -187 478 -164 q 500 -243 478 -224 q 553 -262 522 -262 q 585 -261 569 -262 q 617 -256 600 -260 l 617 -315 q 560 -342 597 -331 q 478 -354 522 -354 q 347 -315 393 -354 q 301 -218 301 -275 q 351 -99 301 -150 q 481 -12 400 -49 l 464 -12 q 185 92 265 -12 q 144 376 106 196 l 250 879 q 192 894 222 885 q 144 919 163 904 l 156 972 z "},"ų":{"ha":813,"x_min":58,"x_max":771,"o":"m 758 96 l 758 49 q 700 17 733 29 q 653 -17 676 1 q 610 -60 629 -36 q 580 -110 592 -83 q 568 -165 568 -136 q 586 -216 568 -197 q 638 -235 604 -235 q 665 -232 651 -235 q 697 -222 678 -229 l 697 -279 q 671 -294 686 -287 q 638 -304 656 -300 q 603 -311 619 -308 q 574 -314 586 -314 q 437 -276 478 -314 q 396 -186 396 -239 q 435 -86 396 -128 q 543 -12 474 -44 q 484 10 500 -10 q 468 50 468 29 q 474 119 468 75 q 496 222 479 164 l 490 222 q 444 147 472 189 q 379 69 417 106 q 293 8 342 32 q 186 -17 244 -17 q 94 17 129 -17 q 58 114 58 51 q 67 201 58 144 q 90 326 76 258 q 119 465 103 393 q 147 596 135 536 l 65 614 l 65 661 q 121 678 88 669 q 190 693 154 686 q 264 705 226 700 q 332 711 301 710 l 363 694 q 317 497 340 590 q 275 299 294 403 q 260 225 268 265 q 253 144 253 185 q 266 107 253 119 q 299 94 279 94 q 367 122 333 94 q 430 187 401 149 q 480 265 458 225 q 511 332 501 306 l 583 694 l 771 694 l 661 96 l 758 96 z "},"Ÿ":{"ha":965,"x_min":133,"x_max":1115,"o":"m 769 972 l 1115 972 l 1104 919 q 1053 895 1081 906 q 997 879 1025 885 l 626 407 l 560 93 q 611 78 586 89 q 657 53 636 67 l 646 0 l 218 0 l 229 53 q 288 76 256 65 q 351 93 319 88 l 418 406 l 238 879 q 180 895 207 885 q 133 919 153 906 l 144 972 l 596 972 l 585 919 q 538 897 565 908 q 474 879 510 886 l 594 506 l 860 879 q 804 897 831 886 q 758 919 778 907 l 769 972 m 401 1101 q 433 1168 401 1146 q 514 1190 465 1190 q 594 1168 563 1190 q 626 1101 626 1146 q 594 1041 626 1063 q 514 1019 563 1019 q 433 1041 465 1019 q 401 1101 401 1063 m 742 1101 q 774 1168 742 1146 q 856 1190 807 1190 q 936 1168 904 1190 q 968 1101 968 1146 q 936 1041 968 1063 q 856 1019 904 1019 q 774 1041 807 1019 q 742 1101 742 1063 z "},"Ź":{"ha":876,"x_min":7,"x_max":936,"o":"m 749 293 l 806 293 q 803 226 806 264 q 796 150 800 189 q 785 72 792 111 q 772 0 779 33 l 7 0 l 7 90 l 689 882 l 369 882 l 246 683 l 188 683 q 190 753 188 714 q 197 831 192 792 q 207 908 201 871 q 219 972 213 944 l 936 972 l 936 882 l 253 90 l 619 90 l 749 293 m 689 1247 q 740 1244 711 1249 q 795 1233 768 1240 q 844 1215 822 1225 q 874 1196 865 1206 l 874 1168 l 531 1035 l 492 1068 l 689 1247 z "},"ź":{"ha":650,"x_min":-31,"x_max":678,"o":"m 169 254 l 169 256 l 435 532 q 317 537 381 531 q 188 554 254 543 l 124 454 l 76 463 l 96 658 q 175 713 104 713 q 244 708 203 713 q 338 696 286 703 q 451 683 390 689 q 576 672 511 676 l 613 711 q 653 692 632 710 q 676 651 674 675 l 229 185 q 367 147 300 169 q 492 92 433 124 l 585 183 l 631 164 l 569 -32 q 542 -67 563 -53 q 494 -81 522 -81 q 424 -62 465 -81 q 332 -22 383 -44 q 222 24 281 1 q 100 54 164 46 l 35 -12 q 13 -7 24 -12 q -8 7 1 -1 q -24 26 -18 15 q -29 50 -31 38 l 169 254 m 507 1060 q 544 1062 518 1063 q 597 1057 569 1061 q 648 1045 625 1053 q 678 1029 671 1038 l 678 996 l 399 781 l 343 811 l 507 1060 z "},"Ż":{"ha":876,"x_min":7,"x_max":936,"o":"m 749 293 l 806 293 q 803 226 806 264 q 796 150 800 189 q 785 72 792 111 q 772 0 779 33 l 7 0 l 7 90 l 689 882 l 369 882 l 246 683 l 188 683 q 190 753 188 714 q 197 831 192 792 q 207 908 201 871 q 219 972 213 944 l 936 972 l 936 882 l 253 90 l 619 90 l 749 293 m 463 1138 q 494 1206 463 1182 q 589 1229 526 1229 q 682 1206 651 1229 q 713 1138 713 1182 q 682 1071 713 1094 q 589 1047 651 1047 q 494 1071 526 1047 q 463 1138 463 1094 z "},"ż":{"ha":650,"x_min":-31,"x_max":676,"o":"m 169 254 l 169 256 l 435 532 q 317 537 381 531 q 188 554 254 543 l 124 454 l 76 463 l 96 658 q 175 713 104 713 q 244 708 203 713 q 338 696 286 703 q 451 683 390 689 q 576 672 511 676 l 613 711 q 653 692 632 710 q 676 651 674 675 l 229 185 q 367 147 300 169 q 492 92 433 124 l 585 183 l 631 164 l 569 -32 q 542 -67 563 -53 q 494 -81 522 -81 q 424 -62 465 -81 q 332 -22 383 -44 q 222 24 281 1 q 100 54 164 46 l 35 -12 q 13 -7 24 -12 q -8 7 1 -1 q -24 26 -18 15 q -29 50 -31 38 l 169 254 m 300 926 q 332 1000 300 974 q 413 1026 364 1026 q 497 1000 465 1026 q 528 926 528 974 q 497 856 528 882 q 413 829 465 829 q 332 856 364 829 q 300 926 300 882 z "},"Ž":{"ha":876,"x_min":7,"x_max":936,"o":"m 749 293 l 806 293 q 803 226 806 264 q 796 150 800 189 q 785 72 792 111 q 772 0 779 33 l 7 0 l 7 90 l 689 882 l 369 882 l 246 683 l 188 683 q 190 753 188 714 q 197 831 192 792 q 207 908 201 871 q 219 972 213 944 l 936 972 l 936 882 l 253 90 l 619 90 l 749 293 m 793 1253 q 820 1238 804 1253 q 840 1210 836 1224 l 608 1054 q 590 1047 601 1050 q 564 1046 578 1044 q 541 1048 553 1046 q 522 1054 529 1050 l 404 1206 q 423 1237 408 1221 q 451 1253 438 1253 l 589 1176 l 793 1253 z "},"ž":{"ha":650,"x_min":-31,"x_max":676,"o":"m 169 254 l 169 256 l 435 532 q 317 537 381 531 q 188 554 254 543 l 124 454 l 76 463 l 96 658 q 175 713 104 713 q 244 708 203 713 q 338 696 286 703 q 451 683 390 689 q 576 672 511 676 l 613 711 q 653 692 632 710 q 676 651 674 675 l 229 185 q 367 147 300 169 q 492 92 433 124 l 585 183 l 631 164 l 569 -32 q 542 -67 563 -53 q 494 -81 522 -81 q 424 -62 465 -81 q 332 -22 383 -44 q 222 24 281 1 q 100 54 164 46 l 35 -12 q 13 -7 24 -12 q -8 7 1 -1 q -24 26 -18 15 q -29 50 -31 38 l 169 254 m 608 1100 q 643 1087 622 1100 q 667 1065 664 1074 l 426 814 q 410 808 421 810 q 389 807 400 807 q 354 814 368 807 l 242 1064 q 251 1074 243 1068 q 270 1086 260 1081 q 291 1096 281 1092 q 308 1100 301 1100 l 419 971 l 608 1100 z "},"ſ":{"ha":439,"x_min":-101,"x_max":683,"o":"m 157 607 l 58 607 l 58 661 q 117 688 86 676 q 176 707 149 700 l 186 756 q 235 898 204 842 q 308 987 267 954 q 403 1032 350 1019 q 517 1044 456 1044 q 607 1037 561 1044 q 681 1014 653 1029 q 678 972 683 994 q 663 928 674 949 q 639 890 653 907 q 608 865 625 874 l 508 971 q 470 958 489 967 q 435 928 451 949 q 402 868 418 907 q 374 764 386 829 l 257 60 q 200 -104 243 -39 q 105 -209 157 -169 q 0 -268 53 -249 q -86 -294 -53 -287 l -101 -247 q -60 -220 -85 -239 q -10 -168 -35 -201 q 37 -85 15 -135 q 69 33 58 -36 l 157 607 z "},"ƒ":{"ha":778,"x_min":28,"x_max":806,"o":"m 278 607 l 181 607 l 181 661 q 240 688 208 676 q 299 707 271 700 l 308 756 q 358 898 326 842 q 431 987 389 954 q 524 1032 472 1019 q 638 1044 576 1044 q 728 1037 682 1044 q 803 1014 774 1029 q 801 972 806 994 q 785 928 796 949 q 760 890 775 907 q 729 865 746 874 l 631 971 q 592 958 611 967 q 557 928 574 950 q 525 868 540 907 q 496 764 510 829 l 482 694 l 636 694 q 635 652 639 679 q 618 607 632 625 l 464 607 l 386 60 q 328 -104 371 -39 q 233 -209 285 -169 q 128 -268 181 -249 q 43 -294 76 -287 l 28 -250 q 69 -222 44 -242 q 119 -169 94 -203 q 166 -86 144 -136 q 199 33 188 -36 l 278 607 z "},"Ǵ":{"ha":985,"x_min":82,"x_max":1008,"o":"m 838 61 q 759 28 803 43 q 670 4 715 14 q 583 -11 625 -6 q 511 -17 542 -17 q 338 7 417 -17 q 201 79 258 31 q 113 201 144 128 q 82 375 82 275 q 123 625 82 513 q 241 819 164 738 q 431 944 318 900 q 685 989 543 989 q 776 985 731 989 q 862 976 821 982 q 936 960 903 969 q 990 940 969 951 q 976 887 986 919 q 954 817 967 854 q 928 742 942 779 q 900 674 914 704 l 843 674 l 811 885 q 756 895 792 892 q 690 899 721 899 q 527 853 597 899 q 410 732 457 808 q 341 556 364 656 q 318 346 318 456 q 335 222 318 274 q 380 138 351 171 q 447 89 408 104 q 529 74 485 74 q 613 85 569 74 q 682 111 657 96 l 738 372 q 672 386 703 375 q 618 413 642 397 l 629 465 l 1008 465 l 997 413 q 959 390 982 400 q 903 372 936 379 l 838 61 m 776 1247 q 827 1244 799 1249 q 883 1233 856 1240 q 931 1215 910 1225 q 961 1196 953 1206 l 961 1168 l 618 1035 l 579 1068 l 776 1247 z "},"ǵ":{"ha":722,"x_min":-82,"x_max":815,"o":"m 408 711 q 538 693 488 711 q 613 656 589 675 q 650 681 626 668 q 701 706 674 694 q 755 728 728 718 q 804 744 782 738 q 813 711 811 732 q 813 669 815 690 q 804 628 811 647 q 786 596 797 608 l 649 611 q 660 582 656 600 q 665 542 665 564 q 642 447 665 492 q 573 368 618 401 q 465 315 528 335 q 322 294 401 294 q 284 295 299 294 q 251 300 269 296 q 235 288 244 294 q 217 275 226 282 q 202 259 208 268 q 196 239 196 250 q 231 207 196 218 q 317 188 265 196 q 429 168 368 179 q 542 136 490 157 q 628 80 593 115 q 663 -14 663 44 q 622 -129 663 -78 q 515 -217 581 -181 q 366 -274 449 -254 q 199 -294 283 -294 q 76 -281 129 -294 q -12 -245 24 -268 q -65 -193 -47 -222 q -82 -132 -82 -164 q -19 -10 -82 -60 q 139 71 43 39 q 81 108 103 86 q 60 163 60 129 q 72 206 60 183 q 104 249 85 228 q 147 287 124 269 q 194 315 171 304 q 151 332 174 319 q 109 363 128 344 q 78 408 90 382 q 65 463 65 433 q 89 563 65 517 q 157 641 113 608 q 265 692 201 674 q 408 711 328 711 m 264 -215 q 337 -206 301 -215 q 400 -180 372 -197 q 445 -136 428 -162 q 463 -74 463 -110 q 435 -20 463 -40 q 367 13 408 0 q 276 35 325 26 q 182 54 226 43 q 124 -15 143 25 q 104 -96 104 -56 q 147 -183 104 -151 q 264 -215 190 -215 m 392 635 q 333 621 358 635 q 292 583 308 607 q 267 528 275 560 q 258 460 258 496 q 283 391 258 411 q 335 371 307 371 q 393 385 368 371 q 435 422 418 399 q 460 475 451 444 q 468 540 468 506 q 449 608 468 582 q 392 635 429 635 m 528 1060 q 565 1062 539 1063 q 618 1057 590 1061 q 669 1045 646 1053 q 699 1029 692 1038 l 699 996 l 419 781 l 364 811 l 528 1060 z "},"Ș":{"ha":772,"x_min":21,"x_max":835,"o":"m 194 115 q 244 88 208 101 q 321 74 281 74 q 401 81 364 74 q 466 106 439 89 q 508 149 493 122 q 524 215 524 176 q 497 301 524 265 q 432 365 471 336 q 347 423 393 394 q 261 488 300 451 q 196 572 222 524 q 169 692 169 621 q 199 821 169 765 q 279 914 228 876 q 401 970 331 951 q 557 989 472 989 q 712 977 642 989 q 835 940 782 965 q 817 876 828 913 q 792 805 806 840 q 766 738 779 769 q 743 686 753 707 l 686 686 l 663 876 q 610 893 643 888 q 543 899 578 899 q 476 891 507 899 q 422 867 444 883 q 385 826 399 851 q 371 767 371 801 q 398 682 371 718 q 465 616 425 646 q 551 556 504 586 q 638 490 599 526 q 705 404 678 453 q 732 288 732 356 q 623 62 732 140 q 311 -17 514 -17 q 222 -11 267 -17 q 136 4 176 -6 q 65 25 96 14 q 21 49 35 36 q 42 119 29 82 q 68 192 54 156 q 97 262 82 229 q 124 319 111 294 l 181 319 l 194 115 m 138 -336 q 264 -244 249 -312 q 230 -209 251 -224 q 182 -187 208 -194 q 191 -144 181 -167 q 219 -103 201 -122 q 260 -72 238 -85 q 303 -58 282 -60 q 403 -92 364 -62 q 442 -179 443 -122 q 420 -258 442 -221 q 360 -324 399 -294 q 269 -372 322 -353 q 153 -397 217 -392 l 138 -336 z "},"ș":{"ha":600,"x_min":-3,"x_max":579,"o":"m 318 153 q 301 208 318 183 q 260 256 285 232 q 205 302 235 279 q 150 354 175 325 q 108 419 125 383 q 92 501 92 454 q 167 659 92 607 q 374 711 243 711 q 423 709 396 711 q 478 701 450 707 q 531 688 506 696 q 578 668 557 681 q 576 628 579 653 q 563 580 572 604 q 540 535 554 556 q 504 508 525 515 l 393 632 q 319 614 349 632 q 289 550 289 596 q 306 494 289 519 q 349 447 324 469 q 404 400 374 424 q 460 348 435 376 q 502 283 485 319 q 519 200 519 247 q 496 107 519 147 q 431 39 472 67 q 333 -3 390 11 q 210 -17 276 -17 q 83 -1 139 -17 q -1 35 26 15 q 15 122 -3 79 q 65 189 32 165 l 200 63 q 282 85 246 63 q 318 153 318 107 m 49 -332 q 132 -297 101 -321 q 169 -240 163 -272 q 138 -207 158 -221 q 89 -186 117 -193 q 98 -143 88 -165 q 125 -103 108 -121 q 163 -72 142 -85 q 206 -58 185 -60 q 290 -87 258 -61 q 321 -171 322 -114 q 302 -248 321 -211 q 249 -315 283 -285 q 167 -364 215 -344 q 61 -389 119 -383 l 49 -332 z "},"Ț":{"ha":919,"x_min":126,"x_max":1050,"o":"m 640 0 l 163 0 l 174 53 q 242 76 204 65 q 317 93 279 88 l 485 882 l 324 882 l 183 644 l 126 644 q 130 715 126 672 q 138 804 133 758 q 150 895 143 850 q 165 972 157 940 l 1050 972 q 1031 894 1043 939 q 1006 804 1019 850 q 977 716 992 758 q 950 644 963 674 l 892 644 l 854 882 l 693 882 l 525 93 q 593 76 560 86 q 651 53 626 67 l 640 0 m 217 -336 q 343 -244 328 -312 q 309 -209 331 -224 q 261 -187 288 -194 q 270 -144 260 -167 q 299 -103 281 -122 q 339 -72 317 -85 q 382 -58 361 -60 q 483 -92 443 -62 q 521 -179 522 -122 q 499 -258 521 -221 q 440 -324 478 -294 q 349 -372 401 -353 q 232 -397 296 -392 l 217 -336 z "},"ț":{"ha":510,"x_min":47,"x_max":540,"o":"m 63 661 q 121 690 89 678 q 183 708 153 701 l 206 814 q 236 830 215 822 q 282 844 257 838 q 333 856 307 850 q 379 864 358 861 l 408 847 l 375 694 l 538 694 q 535 651 540 678 q 519 607 531 624 l 357 607 l 276 247 q 268 201 271 221 q 265 164 265 181 q 283 111 265 128 q 332 94 301 94 q 397 103 367 94 q 456 126 428 111 l 474 90 q 429 53 457 72 q 367 19 401 35 q 292 -7 332 3 q 210 -17 251 -17 q 101 17 138 -17 q 65 108 65 50 q 71 176 65 140 q 82 238 76 213 l 163 607 l 63 607 l 63 661 m 47 -332 q 131 -297 100 -321 q 168 -240 161 -272 q 136 -207 157 -221 q 88 -186 115 -193 q 97 -143 86 -165 q 124 -103 107 -121 q 162 -72 140 -85 q 204 -58 183 -60 q 289 -87 257 -61 q 319 -171 321 -114 q 301 -248 319 -211 q 248 -315 282 -285 q 166 -364 214 -344 q 60 -389 118 -383 l 47 -332 z "},"ȷ":{"ha":415,"x_min":-112,"x_max":378,"o":"m 165 596 l 83 614 l 83 661 q 136 680 104 671 q 205 696 168 689 q 279 707 242 703 q 350 711 317 711 l 378 694 l 250 60 q 188 -104 229 -39 q 97 -210 146 -169 q -1 -269 49 -250 q -90 -294 -51 -289 l -112 -251 q -74 -225 -96 -243 q -29 -174 -51 -207 q 15 -90 -7 -140 q 51 33 36 -39 l 165 596 z "},"ʼ":{"ha":428,"x_min":168,"x_max":450,"o":"m 168 635 q 254 686 219 650 q 296 760 289 722 q 259 795 285 782 q 210 817 233 808 q 219 867 208 842 q 249 915 231 893 q 288 951 267 936 q 328 971 308 967 q 413 940 376 968 q 450 853 450 913 q 426 757 450 803 q 363 674 401 711 q 278 610 325 636 q 188 575 232 585 l 168 635 z "},"ˆ":{"ha":625,"x_min":249,"x_max":632,"o":"m 307 801 l 249 836 l 471 1094 q 485 1101 475 1099 q 507 1103 496 1103 q 543 1094 531 1103 l 632 838 l 575 801 l 471 938 l 307 801 z "},"ˇ":{"ha":542,"x_min":254,"x_max":679,"o":"m 621 1100 q 656 1087 635 1100 q 679 1065 676 1074 l 439 814 q 423 808 433 810 q 401 807 413 807 q 367 814 381 807 l 254 1064 q 264 1074 256 1068 q 283 1086 272 1081 q 303 1096 293 1092 q 321 1100 314 1100 l 432 971 l 621 1100 z "},"˘":{"ha":708,"x_min":301,"x_max":729,"o":"m 729 1006 q 688 930 714 965 q 630 868 663 894 q 560 826 597 842 q 483 811 522 811 q 353 866 401 811 q 301 1008 304 921 l 353 1039 q 409 979 375 1003 q 488 954 443 956 q 540 958 513 954 q 592 972 567 963 q 642 997 618 982 q 683 1033 665 1013 l 729 1006 z "},"˙":{"ha":446,"x_min":265,"x_max":493,"o":"m 265 926 q 297 1000 265 974 q 378 1026 329 1026 q 462 1000 431 1026 q 493 926 493 974 q 462 856 493 882 q 378 829 431 829 q 297 856 329 829 q 265 926 265 882 z "},"˚":{"ha":656,"x_min":303,"x_max":622,"o":"m 303 922 q 353 1036 303 989 q 493 1083 403 1083 q 588 1051 554 1083 q 622 971 622 1019 q 610 910 622 939 q 574 858 597 881 q 516 824 550 836 q 439 811 482 811 q 338 841 374 811 q 303 922 303 871 m 407 925 q 419 892 407 904 q 449 881 431 881 q 496 903 474 881 q 518 967 518 926 q 479 1014 518 1014 q 426 988 444 1014 q 407 925 407 961 z "},"˛":{"ha":601,"x_min":78,"x_max":421,"o":"m 421 39 q 365 6 394 26 q 309 -42 335 -15 q 267 -99 283 -68 q 250 -165 250 -131 q 267 -216 250 -197 q 318 -235 285 -235 q 379 -222 342 -235 l 379 -279 q 353 -294 368 -287 q 319 -304 338 -300 q 285 -311 301 -308 q 256 -314 268 -314 q 119 -276 160 -314 q 78 -186 78 -239 q 99 -111 78 -144 q 160 -51 121 -78 q 251 -1 199 -24 q 367 39 304 21 l 421 39 z "},"˜":{"ha":607,"x_min":156,"x_max":607,"o":"m 607 926 q 521 858 565 879 q 444 836 476 836 q 397 844 419 836 q 354 860 375 851 q 313 876 333 868 q 272 883 293 883 q 235 877 254 883 q 194 856 217 871 l 156 914 q 253 988 207 967 q 332 1008 300 1008 q 378 1001 357 1008 q 419 986 400 994 q 459 971 439 978 q 500 964 479 964 q 536 967 518 964 q 576 985 554 971 l 607 926 z "},"˝":{"ha":896,"x_min":346,"x_max":868,"o":"m 440 1067 q 472 1068 449 1069 q 522 1063 496 1067 q 569 1052 547 1058 q 594 1038 590 1046 l 594 1004 l 403 813 l 346 840 l 440 1067 m 713 1067 q 744 1068 722 1069 q 792 1061 767 1067 q 838 1047 817 1056 q 868 1028 860 1039 l 868 997 l 579 813 l 528 843 l 713 1067 z "},"́":{"ha":3,"x_min":-321,"x_max":14,"o":"m -157 1060 q -120 1062 -146 1063 q -67 1057 -94 1061 q -16 1045 -39 1053 q 14 1029 7 1038 l 14 996 l -265 781 l -321 811 l -157 1060 z "},"Δ":{"ha":913,"x_min":-26,"x_max":838,"o":"m -26 0 l -26 63 l 381 972 l 439 972 l 838 63 l 838 0 l -26 0 m 363 704 l 97 104 l 610 104 l 363 704 z "},"Ω":{"ha":1107,"x_min":42,"x_max":1065,"o":"m 42 0 q 44 67 42 25 q 50 154 46 108 q 59 244 54 200 q 69 319 64 289 l 117 319 l 178 156 l 411 156 q 292 214 350 178 q 188 300 233 250 q 114 415 142 350 q 86 563 86 481 q 121 742 86 663 q 219 876 156 821 q 370 960 282 931 q 564 989 458 989 q 758 960 672 989 q 902 878 843 932 q 993 747 961 825 q 1025 569 1025 669 q 995 415 1025 483 q 919 295 965 346 q 816 210 872 244 q 708 156 760 175 l 928 156 l 990 319 l 1038 319 q 1049 242 1043 288 q 1058 151 1054 197 q 1063 65 1061 106 q 1065 0 1065 24 l 624 0 l 624 165 q 683 214 653 179 q 739 299 714 249 q 780 412 764 349 q 796 547 796 475 q 737 804 796 710 q 564 899 678 899 q 449 874 496 899 q 372 806 401 850 q 328 701 342 763 q 315 563 315 639 q 333 422 315 488 q 378 305 351 357 q 438 217 406 253 q 497 165 469 181 l 497 0 l 42 0 z "},"π":{"ha":942,"x_min":39,"x_max":981,"o":"m 796 89 l 786 40 q 733 23 764 32 q 666 7 701 14 q 594 -6 631 0 q 522 -12 557 -11 l 475 -12 l 599 569 l 396 569 l 360 399 q 295 165 332 267 q 219 0 258 64 q 189 -7 208 -6 q 147 -8 169 -8 q 110 -8 128 -8 q 77 -6 92 -7 q 53 -3 63 -4 q 44 0 44 -1 l 39 13 q 121 123 79 56 q 199 267 163 190 q 263 424 235 344 q 304 569 290 503 l 281 569 q 207 549 242 569 q 132 488 172 529 l 104 499 q 144 587 124 549 q 194 651 165 625 q 263 691 224 678 q 358 703 303 704 q 418 701 374 703 q 522 699 463 700 q 648 696 582 697 q 771 694 714 694 q 844 695 815 694 q 893 700 874 696 q 927 711 913 704 q 958 731 942 718 l 981 718 q 924 609 964 649 q 824 569 883 569 l 807 569 l 707 100 l 796 89 z "},"Ё":{"ha":836,"x_min":-33,"x_max":903,"o":"m 903 972 q 868 843 889 910 q 822 718 847 776 l 764 718 l 735 882 l 475 882 l 403 542 l 574 542 l 657 649 l 700 649 q 676 497 693 581 q 636 342 658 414 l 592 342 l 554 451 l 383 451 l 308 90 l 578 90 l 689 267 l 747 267 q 745 208 747 242 q 740 139 743 175 q 731 67 736 103 q 718 0 725 31 l -33 0 l -24 53 q 35 76 4 65 q 100 93 67 88 l 267 879 q 211 895 239 885 q 161 919 183 906 l 172 972 l 903 972 m 293 1101 q 325 1168 293 1146 q 406 1190 357 1190 q 486 1168 454 1190 q 518 1101 518 1146 q 486 1041 518 1063 q 406 1019 454 1019 q 325 1041 357 1019 q 293 1101 293 1063 m 633 1101 q 666 1168 633 1146 q 747 1190 699 1190 q 828 1168 796 1190 q 860 1101 860 1146 q 828 1041 860 1063 q 747 1019 796 1019 q 666 1041 699 1019 q 633 1101 633 1063 z "},"Ђ":{"ha":1113,"x_min":118,"x_max":1092,"o":"m 1092 388 q 1056 208 1092 283 q 960 84 1019 132 q 824 15 900 36 q 667 -4 747 -7 l 671 58 q 828 164 774 82 q 883 372 883 246 q 878 426 883 401 q 860 467 874 450 q 824 492 847 483 q 765 501 801 501 q 676 488 719 501 q 594 454 633 475 l 518 93 q 558 75 539 86 q 592 53 576 64 l 582 0 l 156 0 l 165 53 q 233 76 196 65 q 310 93 271 88 l 476 882 l 315 882 l 176 644 l 118 644 q 124 715 119 672 q 133 804 128 758 q 144 895 138 850 q 157 972 150 940 l 1042 972 q 1024 899 1035 938 q 1002 824 1014 861 q 977 751 990 786 q 951 686 964 715 l 893 686 l 846 882 l 685 882 l 611 538 q 727 582 664 565 q 868 599 790 599 q 1036 543 981 599 q 1092 388 1092 488 z "},"Ѓ":{"ha":746,"x_min":-33,"x_max":883,"o":"m 308 93 q 372 76 340 88 q 432 53 404 65 l 422 0 l -33 0 l -24 53 q 100 93 40 83 l 267 879 q 212 894 239 885 q 161 919 185 904 l 172 972 l 883 972 q 867 896 878 939 q 844 807 857 853 q 817 717 832 761 q 788 639 803 674 l 731 639 l 696 882 l 475 882 l 308 93 m 669 1247 q 720 1244 692 1249 q 776 1233 749 1240 q 824 1215 803 1225 q 854 1196 846 1206 l 854 1168 l 511 1035 l 472 1068 l 669 1247 z "}}}
